<?xml version="1.0" encoding="utf-8"?>
<svg viewBox="0 32.94 1163.225 404.13" xmlns="http://www.w3.org/2000/svg">
  <defs>
    <view id="view-1" viewBox="447.886 442.642 112.094 2.95">
      <title>View 1</title>
    </view>
  </defs>
  <g style="" transform="matrix(16.038462, 0, 0, 21.200727, -1032.637329, -575.39624)">
    <g id="layer1" transform="matrix(1, 0, 0, 1, 341.046936, -248.673996)">
      <g id="g6024" transform="translate(0.13229045,-0.13228917)">
        <path d="m -257.83908,288.62038 c -0.13176,1.46579 -1.30175,2.46353 -2.75934,2.55931 l -1.1475,0.01 h -1.14697 v -8.00629 h 0.004 a 2.1206354,2.1206354 0 0 1 1.28005,-1.92564 h -4.15502 v 10.31875 h 7.9375 v -2.95566 z m -11.2948,-7.36309 -6.41932,10.31875 h 3.04139 c -0.69983,-0.34316 -1.18428,-0.96838 -1.18428,-1.80896 0,-0.41169 0.1614,-0.68183 0.38656,-1.06891 l 3.80047,-6.11452 v 7.13607 l -0.001,5.3e-4 a 2.1230166,2.1230166 0 0 1 -1.1811,1.85579 h 4.13411 v -10.31875 z" id="path5993" style="fill:#fedb00;fill-rule:evenodd;stroke-width:0.26458332"/>
        <path d="m -250.87207,286.85958 h -1.47294 l 0.64082,-1.50125 c 0.0328,-0.081 0.0667,-0.17013 0.0958,-0.24765 0.0288,0.0778 0.0627,0.16722 0.096,0.24924 z m -0.92896,-2.4474 -1.74572,4.02431 h 0.52547 l 0.47783,-1.12156 h 1.86955 l 0.4781,1.12183 h 0.52546 l -1.74598,-4.02431 h -0.38471 z m 6.94426,2.03438 c 0,0.99298 -0.75406,1.51289 -1.4986,1.51289 h -1.21417 v -3.06943 h 1.17104 c 0.89324,0 1.54173,0.65484 1.54173,1.55681 m -1.54173,-2.03438 h -1.64782 v 4.02431 h 1.69095 c 1.13242,0 1.98623,-0.8554 1.98623,-1.98993 0,-1.15967 -0.87234,-2.03438 -2.02936,-2.03438 m 7.00167,2.03411 c 0,0.99298 -0.75406,1.51289 -1.4986,1.51289 h -1.21391 v -3.06943 h 1.17105 c 0.89323,0 1.54146,0.65484 1.54146,1.55681 m -1.54146,-2.03438 h -1.64836 v 4.02431 h 1.69122 c 1.13242,0 1.98623,-0.8554 1.98623,-1.98993 0,-1.15967 -0.87233,-2.03438 -2.02936,-2.03438 m 3.81212,4.02431 h 0.47678 v -4.02431 h -0.47678 z m 3.85524,-2.33336 -0.0243,-0.007 c -0.48233,-0.13493 -0.98134,-0.27437 -0.98134,-0.6678 0,-0.38418 0.34158,-0.63289 0.87048,-0.63289 0.49715,0 0.8644,0.2929 0.93557,0.74613 l 0.0153,0.0955 0.46832,-0.12859 -0.0146,-0.0794 c -0.11853,-0.65458 -0.67892,-1.09432 -1.39409,-1.09432 -0.79295,0 -1.36868,0.46435 -1.36868,1.10464 0,0.71702 0.71358,0.9271 1.15649,1.05727 0.0595,0.018 0.12118,0.0355 0.18388,0.0532 0.48684,0.13865 0.99008,0.28126 0.99008,0.78132 0,0.42783 -0.3736,0.7157 -0.92949,0.7157 -0.6514,0 -0.97948,-0.42122 -1.01573,-0.83873 l -0.009,-0.10425 -0.46566,0.12991 0.01,0.0757 c 0.0934,0.73131 0.67019,1.20386 1.47003,1.20386 0.84402,0 1.43324,-0.48842 1.43324,-1.18772 0,-0.84296 -0.8001,-1.07156 -1.33006,-1.2229 m 6.45266,0.3212 c 0,0.93081 -0.65273,1.60655 -1.55204,1.60655 -0.89641,0 -1.54702,-0.67574 -1.54702,-1.60655 0,-0.9308 0.65061,-1.60655 1.54702,-1.60655 0.89931,0 1.55204,0.67575 1.55204,1.60655 m -1.55204,-2.08915 c -1.15994,0 -2.03465,0.898 -2.03465,2.08915 0,1.19089 0.87471,2.08915 2.03465,2.08915 1.16284,0 2.03993,-0.89826 2.03993,-2.08915 0,-1.19115 -0.87709,-2.08915 -2.03993,-2.08915 m 6.50716,2.50164 c 0,0.27464 0.006,0.53366 0.0111,0.71675 a 85.216999,85.216999 0 0 0 -0.34025,-0.47201 l -1.93728,-2.66965 h -0.41804 v 4.02431 h 0.47678 v -2.42993 c 0,-0.28707 -0.005,-0.54742 -0.008,-0.73078 0.0804,0.11668 0.19261,0.27781 0.33708,0.48075 l 1.9423,2.68023 h 0.41857 v -4.02431 h -0.48233 z m 5.64647,-2.42491 h -0.47704 v 4.02431 h 2.56037 v -0.47704 h -2.08333 z m 4.25715,2.11058 h 1.72376 v -0.46593 h -1.72376 v -1.16681 h 2.13704 v -0.47757 h -2.61409 v 4.02431 h 2.64637 v -0.47705 h -2.16932 z m 4.55797,1.43669 v -1.43669 h 1.7235 v -0.46593 h -1.7235 v -1.16681 h 2.13704 v -0.47757 h -2.61408 v 4.02431 h 2.64636 v -0.47705 z" id="path5997" style="fill:#000000;fill-rule:evenodd;stroke-width:0.26458332"/>
      </g>
    </g>
  </g>
</svg>