<svg width="454" height="323" viewBox="0 0 454 323" fill="none" xmlns="http://www.w3.org/2000/svg">
<path d="M10.7685 322.528C13.6708 322.528 16.5693 321.36 18.6865 319.063L164.476 161.023L233.742 236.102C237.813 240.52 245.5 240.52 249.57 236.102L432.02 38.3315V83.3045C432.02 89.2537 436.841 94.0745 442.79 94.0745C448.74 94.0745 453.561 89.2542 453.561 83.3045V10.7735C453.561 10.6993 453.518 10.6368 453.518 10.5587C453.502 9.7071 453.232 8.89845 453.014 8.06645C452.873 7.53129 452.853 6.95705 452.635 6.46095C452.412 5.95314 451.998 5.54299 451.697 5.07036C451.24 4.35552 450.83 3.61725 450.221 3.03125C450.166 2.98047 450.15 2.90625 450.096 2.85547C449.693 2.48438 449.185 2.33594 448.748 2.03516C448.084 1.57813 447.459 1.08594 446.697 0.789062C445.943 0.496092 445.162 0.437503 444.377 0.320312C443.838 0.238282 443.357 0 442.795 0H375.889C369.94 0 365.119 4.8203 365.119 10.77C365.119 16.7192 369.939 21.54 375.889 21.54H418.209L241.659 212.92L172.393 137.842C168.322 133.424 160.635 133.424 156.565 137.842L2.85478 304.452C-1.17642 308.827 -0.906923 315.636 3.46416 319.671C5.53836 321.585 8.15557 322.526 10.765 322.526L10.7685 322.528Z" fill="black"/>
</svg>
