<svg width="137" height="158" viewBox="0 0 137 158" fill="none" xmlns="http://www.w3.org/2000/svg">
<path d="M68.5 0L0 39.5V118.496L68.5 158L137 118.5V39.5L68.5 0ZM134.256 39.9459L68.5 77.8642L2.7438 39.9459L68.5 2.02591L134.256 39.9459ZM1.75772 41.403L67.6211 79.3845V155.467L1.75772 117.484V41.403ZM68.3031 155.86H68.6969L68.5 155.974L68.3031 155.86ZM69.3789 155.467V79.3845L135.242 41.403V117.487L69.3789 155.467Z" fill="#2B2E32"/>
<path d="M38 25C30.1495 25 24 28.2665 24 32.4357V40.5643C24 44.7335 30.1495 48 38 48C45.8505 48 52 44.7335 52 40.5643V32.4357C52 28.2665 45.8505 25 38 25ZM38 26.7496C44.6395 26.7496 50.25 29.353 50.25 32.4357C50.25 35.5185 44.6395 38.1219 38 38.1219C31.3605 38.1219 25.75 35.5185 25.75 32.4357C25.75 29.353 31.3605 26.7496 38 26.7496ZM38 46.2504C31.3605 46.2504 25.75 43.647 25.75 40.5643V36.0819C28.1178 38.3598 32.6625 39.8714 38 39.8714C43.3375 39.8714 47.8822 38.3598 50.25 36.0819V40.5643C50.25 43.6453 44.6413 46.2504 38 46.2504Z" fill="#2B2E32"/>
<path d="M68 41C60.1495 41 54 44.267 54 48.4369V56.5631C54 60.733 60.1495 64 68 64C75.8505 64 82 60.733 82 56.5631V48.4369C82 44.267 75.8505 41 68 41ZM68 42.7498C74.6413 42.7498 80.25 45.3536 80.25 48.4369C80.25 51.5201 74.6413 54.1239 68 54.1239C61.3605 54.1239 55.75 51.5201 55.75 48.4369C55.75 45.3536 61.3605 42.7498 68 42.7498ZM68 62.2502C61.3605 62.2502 55.75 59.6464 55.75 56.5631V52.0835C58.1178 54.3618 62.6625 55.8737 68 55.8737C73.3375 55.8737 77.8822 54.3618 80.25 52.0835V56.5631C80.25 59.6446 74.6413 62.2502 68 62.2502Z" fill="#2B2E32"/>
<path d="M67.5 9C59.3691 9 53 12.2665 53 16.4357V24.5643C53 28.7335 59.3691 32 67.5 32C75.6309 32 82 28.7335 82 24.5643V16.4357C81.9982 12.2665 75.6309 9 67.5 9ZM67.5 10.7496C74.3766 10.7496 80.1875 13.353 80.1875 16.4357C80.1875 19.5185 74.3784 22.1219 67.5 22.1219C60.6216 22.1219 54.8125 19.5185 54.8125 16.4357C54.8125 13.353 60.6216 10.7496 67.5 10.7496ZM67.5 30.2487C60.6234 30.2487 54.8125 27.6453 54.8125 24.5625V20.0801C57.2648 22.3581 61.9719 23.8697 67.5 23.8697C73.0281 23.8697 77.737 22.3581 80.1875 20.0801V24.5625C80.1857 27.6453 74.3766 30.2487 67.5 30.2487Z" fill="#2B2E32"/>
<path d="M97 24C89.1512 24 83 27.267 83 31.4369V39.5631C83 43.733 89.1512 47 97 47C104.851 47 111 43.733 111 39.5631V31.4369C111 27.267 104.851 24 97 24ZM97 25.7498C103.641 25.7498 109.25 28.3536 109.25 31.4369C109.25 34.5201 103.641 37.1239 97 37.1239C90.3605 37.1239 84.75 34.5201 84.75 31.4369C84.75 28.3536 90.3605 25.7498 97 25.7498ZM97 45.2502C90.3605 45.2502 84.75 42.6464 84.75 39.5631V35.0835C87.1195 37.3618 91.6625 38.8737 97 38.8737C102.339 38.8737 106.884 37.3618 109.25 35.0835V39.5631C109.25 42.6446 103.641 45.2502 97 45.2502Z" fill="#2B2E32"/>
</svg>
