<svg width="286" height="317" viewBox="0 0 286 317" fill="none" xmlns="http://www.w3.org/2000/svg">
<path d="M190.27 274.6C187.501 298.248 167.391 316.6 142.997 316.6C118.603 316.6 98.4933 298.248 95.7243 274.6H31.0523C14.0133 274.6 0.197266 260.815 0.197266 243.799C0.197266 226.803 14.0023 212.998 31.0093 212.998C32.5327 212.998 33.7984 211.732 33.7984 210.189V142.994C33.7984 95.096 64.8723 53.42 109.396 39.064V33.8023C109.396 15.2513 124.458 0.197266 142.998 0.197266C161.564 0.197266 176.6 15.2203 176.6 33.8023V39.064C221.12 53.423 252.198 95.103 252.198 142.994V210.189C252.198 211.763 253.433 212.998 254.987 212.998C271.967 212.998 285.799 226.799 285.799 243.799C285.799 260.795 271.971 274.6 254.944 274.6H190.27ZM173.29 274.6H112.704C115.337 288.936 127.899 299.799 142.997 299.799C158.095 299.799 170.657 288.936 173.29 274.6ZM119.892 53.5096C79.4043 63.9276 50.5993 100.58 50.5993 142.998V210.193C50.5993 221.013 41.8141 229.802 31.0093 229.802C23.2788 229.802 16.9973 236.087 16.9973 243.802C16.9973 251.532 23.2825 257.802 31.0523 257.802H254.942C262.7 257.802 268.997 251.512 268.997 243.802C268.997 236.091 262.696 229.802 254.985 229.802C244.153 229.802 235.395 221.048 235.395 210.193V142.998C235.395 100.592 206.59 63.9276 166.102 53.5096L159.798 51.8885V33.8065C159.798 24.5057 152.29 17.0015 142.997 17.0015C133.735 17.0015 126.196 24.5367 126.196 33.8065V51.8885L119.892 53.5096Z" fill="black"/>
</svg>
