<svg width="109" height="106" viewBox="0 0 109 106" fill="none" xmlns="http://www.w3.org/2000/svg">
<path d="M21.9506 61.38C25.1587 61.38 28.1997 62.055 30.9396 63.301L34.4038 56.911H8.83015C8.22694 56.911 7.73877 56.423 7.73877 55.82C7.73877 55.214 8.22694 54.729 8.83015 54.729H35.5722L36.8756 52.32L36.6846 51.66L34.2388 49.259C33.8966 48.925 33.6195 48.559 33.3915 48.16C31.7589 45.629 31.7259 42.259 33.5705 39.638L47.1831 20.319C49.618 16.88 54.3736 16.058 57.8167 18.484C58.0858 18.679 58.3299 18.883 58.57 19.09C58.8591 19.298 59.1282 19.538 59.3763 19.806L77.1713 39.516C78.9429 41.47 78.9009 44.433 77.1473 46.345L80.2984 46.361C81.1577 46.361 81.8499 46.797 81.8499 47.652C81.8499 48.514 81.1537 48.946 80.2904 48.938L75.2297 48.922L75.8359 52.04C75.8399 52.04 75.8399 52.194 75.8399 52.194L76.8042 56.728L79.4711 67.594V52.41C79.4711 51.58 80.1433 50.916 80.9736 50.916C81.7959 50.916 82.4631 51.58 82.4631 52.41V68.612H105.914C105.931 68.612 105.951 68.612 105.971 68.62C106.382 68.612 106.785 68.771 107.082 69.104C107.64 69.714 107.587 70.659 106.976 71.216L96.2608 80.865C97.9063 83.332 98.8707 86.303 98.8707 89.477C98.8707 98.064 91.8803 105.051 83.2864 105.051C74.6965 105.051 67.7021 98.06 67.7021 89.477C67.7021 82.68 72.0866 76.885 78.1777 74.768L74.6685 60.109L57.5086 77.813L54.9848 86.017C54.3006 88.219 52.2609 89.631 50.0671 89.603C49.59 89.603 49.1098 89.53 48.6256 89.374C47.1851 88.943 46.0978 87.918 45.5116 86.647L43.6029 86.504C42.0434 97.094 32.8913 105.23 21.8706 105.205C9.79147 105.181 -0.0248642 95.332 0.000144958 83.244C0.0191498 71.171 9.86349 61.356 21.9506 61.38ZM71.2403 89.482C71.2403 96.124 76.6431 101.528 83.2864 101.528C89.9306 101.528 95.3325 96.124 95.3325 89.482C95.3325 87.211 94.7013 85.083 93.5979 83.271L84.971 91.044C84.8159 91.468 84.4868 91.817 84.0266 91.981C83.8556 92.038 83.6845 92.066 83.5135 92.066C82.8742 92.066 82.272 91.664 82.052 91.024L78.9899 78.229C74.4684 79.954 71.2403 84.35 71.2403 89.482ZM84.3858 87.544L91.7503 80.914C89.5725 78.766 86.5835 77.438 83.2904 77.438C82.8262 77.438 82.3711 77.467 81.9229 77.516L84.3858 87.544ZM83.2864 73.899C87.6219 73.899 91.5472 75.681 94.3721 78.546L102.083 71.603H80.9776C80.7865 71.603 80.6075 71.55 80.4404 71.498L81.0676 74.061C81.7919 73.955 82.5331 73.899 83.2864 73.899ZM71.7855 47.852C71.7815 47.811 71.7775 47.779 71.7695 47.738C70.9632 47.465 70.222 46.997 69.6157 46.33L57.2115 32.59L46.805 47.339L49.684 50.163L72.3887 50.208L71.7855 47.852ZM60.0155 60.285C61.371 61.615 61.8761 63.597 61.3179 65.408L59.5513 71.146L73.6131 56.732L73.0679 54.071L53.6373 54.039L60.0155 60.285ZM47.2202 76.633L50.6803 65.376L41.2351 56.121L47.2202 76.633ZM43.6409 83.348C43.6409 83.377 43.6409 83.402 43.6409 83.417L45.1274 83.527C45.1635 83.368 45.2045 83.197 45.2535 83.035L45.4886 82.265L38.0631 56.637L33.5605 64.834C39.6716 68.737 43.6579 75.579 43.6409 83.348ZM31.945 68.022L24.4184 81.941L40.2018 83.145C40.1488 76.828 36.8786 71.269 31.945 68.022ZM21.8726 101.601C30.9837 101.618 38.5652 94.948 39.9737 86.238L21.7955 84.854C21.2744 84.822 20.8022 84.512 20.5541 84.057C20.297 83.588 20.297 83.036 20.5501 82.579L29.2171 66.544C26.9943 65.575 24.5305 65.022 21.9496 65.022C11.8532 64.998 3.63737 73.195 3.61737 83.28C3.60236 93.364 11.7881 101.581 21.8726 101.601Z" fill="black"/>
<path d="M63.0165 16.27C58.5222 16.27 54.8788 12.6278 54.8788 8.135C54.8788 3.64216 58.5222 0 63.0165 0C67.5109 0 71.1543 3.64216 71.1543 8.135C71.1543 12.6278 67.5109 16.27 63.0165 16.27Z" fill="black"/>
<path d="M85.7621 41.861H109V65.091H85.7621V41.861Z" fill="black"/>
<path d="M46.5839 18.3876L32.71 37.606L22.3358 30.1218L36.2098 10.9035L46.5839 18.3876Z" fill="black"/>
</svg>
