<svg width="336" height="336" viewBox="0 0 336 336" fill="none" xmlns="http://www.w3.org/2000/svg">
<path d="M83.9982 77.0513L107.74 100.797L57.3422 151.195H302.392V33.5953L235.193 55.9933V100.794H201.591L201.594 55.9933C201.594 48.9463 203.813 42.0753 207.934 36.3563C212.051 30.6373 217.868 26.3603 224.551 24.1293L291.75 1.73129L291.754 1.72728C302 -1.69072 313.266 0.0242805 322.031 6.33728C330.793 12.6493 335.988 22.7903 335.992 33.5953V302.395C335.988 313.2 330.793 323.34 322.031 329.653C313.266 335.965 302 337.68 291.754 334.262L224.555 311.864L224.551 311.86C217.868 309.63 212.051 305.352 207.934 299.633C203.813 293.914 201.594 287.043 201.594 279.996V235.195H235.192V279.996L302.391 302.394V184.794H57.3412L107.739 235.192L83.9972 258.938L4.92719 179.864C1.77919 176.716 0.0131836 172.446 0.0131836 167.993C0.0131836 163.54 1.77919 159.271 4.92719 156.122L83.9982 77.0513Z" fill="black"/>
</svg>
