<svg width="441" height="472" viewBox="0 0 441 472" fill="none" xmlns="http://www.w3.org/2000/svg">
<path fill-rule="evenodd" clip-rule="evenodd" d="M220.501 0C343.721 0 441 97.2789 441 214.014C441 304.805 382.635 382.63 304.809 415.057L220.499 471.5L136.19 415.057C58.3685 382.63 0 304.808 0 214.014C0 97.2789 97.2789 0 220.499 0H220.501Z" fill="#0066B0"/>
<path fill-rule="evenodd" clip-rule="evenodd" d="M211.561 93.9144C202.926 93.3587 194.933 98.4484 191.796 106.515C188.665 114.585 191.06 123.815 197.883 129.143C201.703 132.138 206.295 134.247 210.325 134.262C220.07 134.307 228.014 126.345 228.072 116.599L223.031 116.898C222.803 123.785 217.254 129.248 210.325 129.248C209.517 129.248 208.725 129.174 207.971 129.024C208.781 127.9 209.351 126.435 209.755 124.743C212.18 114.567 219.465 114.417 226.22 113.923C228.183 113.773 230.83 113.773 233.152 113.773C237.172 113.773 237.314 108.712 233.854 108.039L229.244 107.231C227.974 103.76 225.804 100.765 222.821 98.3112C219.853 95.8556 215.873 94.1976 211.561 93.9143L211.561 93.9144Z" fill="white"/>
<path fill-rule="evenodd" clip-rule="evenodd" d="M160.454 285.589H190.581C190.581 293.908 183.833 300.659 175.51 300.659C167.204 300.659 160.454 293.91 160.454 285.589V285.589ZM303.22 270.532C311.525 270.532 318.275 277.284 318.275 285.589C318.275 293.908 311.544 300.659 303.22 300.659C294.897 300.659 288.146 293.906 288.161 285.589C288.161 282.534 289.09 279.543 290.826 277.028L298.701 287.041C300.166 289.042 302.681 289.93 304.839 288.671C306.992 287.424 307.399 284.855 306.483 282.549L300.482 270.785C301.379 270.621 302.288 270.533 303.221 270.533L303.22 270.532ZM198.855 137.332C193.75 137.452 188.845 140.081 187.511 144.684L173.116 194.654C170.871 202.409 173.415 212.808 185.177 212.808H225.977L234.058 255.626C235.48 263.164 249.847 263.288 249.268 255.608L245.641 207.208C245.058 199.443 241.919 196.537 236.29 195.789L204.124 191.507L206.984 167.517L219.781 177.216C221.894 178.817 222.747 179.219 225.905 179.746L248.264 183.488C249.733 184.191 250.689 185.416 251.124 187.181L275.147 245.973C280.594 259.308 276.343 268.378 258.967 268.378H227.982C214.559 268.378 207.401 257.003 211.771 247.155L218.15 232.821C221.035 226.322 217.087 219.482 210.143 219.482L164.522 219.481V177.026C164.522 173.852 161.962 171.31 158.788 171.31H141.906V184.809C141.906 186.352 140.665 187.595 139.124 187.595H132.759C131.218 187.595 129.977 186.354 129.977 184.809V171.31L113.102 171.308C109.927 171.308 107.381 173.854 107.381 177.024V228.736C107.381 231.909 109.925 234.466 113.102 234.466H151.07C136.295 243.731 126.911 261.868 128.497 277.839C129.185 284.767 133.199 285.593 136.16 285.593H145.724C145.724 302.055 159.063 315.386 175.51 315.386C191.975 315.386 205.306 302.051 205.306 285.593H273.415C273.415 302.055 286.753 315.386 303.217 315.386C319.664 315.386 332.998 302.051 332.998 285.593C332.998 280.369 331.607 275.235 328.986 270.716L330.813 270.997C334.167 271.511 335.032 267.407 333.372 263.8C327.894 251.827 316.203 243.97 303.256 243.326C302.017 243.267 300.847 242.536 300.847 240.99L300.849 238.614C300.849 235.705 300.864 233.363 298.594 230.233L266.308 185.288C264.689 182.475 265.095 180.906 267.941 180.906H273.373C277.054 180.906 279.704 180.126 279.179 175.875L277.561 165.173C277.158 161.837 275.737 159.556 270.934 159.556H262.401C253.303 159.556 249.62 165.858 247.199 169.149C246.613 169.931 246.21 170.544 245.803 171.102L226.844 165.635L209.5 141.87C206.893 138.665 202.823 137.245 198.851 137.334L198.855 137.332Z" fill="white"/>
</svg>
