<svg width="360" height="360" viewBox="0 0 360 360" fill="none" xmlns="http://www.w3.org/2000/svg">
<path fill-rule="evenodd" clip-rule="evenodd" d="M157.6 168.8H95.9978C89.8103 168.8 84.7988 173.811 84.7988 179.999C84.7988 186.186 89.8105 191.198 95.9978 191.198H157.6C163.783 191.198 168.799 196.213 168.799 202.397V263.999C168.799 270.186 173.811 275.198 179.998 275.198C186.185 275.198 191.197 270.186 191.197 263.999V202.397C191.197 196.213 196.212 191.198 202.396 191.198H263.998C270.185 191.198 275.197 186.186 275.197 179.999C275.197 173.811 270.185 168.8 263.998 168.8H202.396C196.212 168.8 191.197 163.784 191.197 157.601V95.9988C191.197 89.8113 186.185 84.7998 179.998 84.7998C173.811 84.7998 168.799 89.8115 168.799 95.9988V157.601C168.799 163.784 163.783 168.8 157.6 168.8Z" fill="black"/>
<path d="M180.001 336.8C266.599 336.8 336.801 266.597 336.801 180C336.801 93.4028 266.598 23.1999 180.001 23.1999C93.4038 23.1999 23.2008 93.4028 23.2008 180C23.2008 266.597 93.4038 336.8 180.001 336.8ZM180.001 359.198C81.0318 359.198 0.800781 278.968 0.800781 179.998C0.800781 81.0278 81.0308 0.797852 180.001 0.797852C278.971 0.797852 359.201 81.0278 359.201 179.998C359.201 278.968 278.971 359.198 180.001 359.198Z" fill="black"/>
</svg>
