<svg width="376" height="444" viewBox="0 0 376 444" fill="none" xmlns="http://www.w3.org/2000/svg">
<path d="M188.001 201.84C243.442 201.84 288.801 156.481 288.801 101.04C288.801 45.5992 243.442 0.240234 188.001 0.240234C132.56 0.240234 87.2012 45.5992 87.2012 101.04C87.2012 156.481 132.56 201.84 188.001 201.84ZM188.001 22.6402C231.122 22.6402 266.399 57.9212 266.399 101.038C266.399 144.159 231.118 179.436 188.001 179.436C144.88 179.436 109.603 144.155 109.603 101.038C109.603 57.9212 144.88 22.6402 188.001 22.6402Z" fill="black"/>
<path d="M12.1609 443.76H363.841C370.001 443.76 375.04 438.721 375.04 432.561V370.959C375.04 290.881 309.52 225.359 229.44 225.359H146.561C66.4829 225.359 0.960938 290.879 0.960938 370.959V432.561C0.964845 439.28 6.00393 443.76 12.1639 443.76H12.1609ZM23.3599 371.518C23.3599 303.756 78.8009 248.318 146.56 248.318H229.439C297.201 248.318 352.639 303.759 352.639 371.518V421.916L23.3589 421.92L23.3599 371.518Z" fill="black"/>
</svg>
