<svg width="256" height="256" viewBox="0 0 256 256" fill="none" xmlns="http://www.w3.org/2000/svg">
<path d="M128.186 31.6985C102.64 31.7106 78.1416 41.8526 60.0675 59.9C41.9884 77.9474 31.8026 102.427 31.7473 127.975C31.692 153.523 41.7702 178.046 59.7691 196.168C77.829 214.142 102.272 224.233 127.757 224.233C153.237 224.233 177.679 214.142 195.745 196.168C213.676 178.113 223.747 153.707 223.769 128.261C223.791 102.815 213.759 78.3918 195.859 60.304C177.96 42.2199 153.641 31.9372 128.195 31.6973L128.186 31.6985ZM208.357 128.186C208.386 146.629 202.002 164.511 190.299 178.766L159.842 148.309C166.519 138.012 167.704 125.088 163.011 113.746C158.317 102.405 148.348 94.099 136.346 91.5275V48.0173C156.145 50.0933 174.471 59.4388 187.774 74.2496C201.075 89.058 208.41 108.278 208.356 128.186H208.357ZM113.287 143.414H113.284C109.025 139.408 106.556 133.857 106.437 128.011C106.316 122.164 108.554 116.517 112.648 112.34C116.739 108.164 122.341 105.809 128.187 105.809C134.034 105.809 139.635 108.164 143.727 112.34C147.82 116.517 150.059 122.164 149.938 128.011C149.819 133.858 147.349 139.408 143.09 143.414C139.055 147.207 133.726 149.319 128.187 149.319C122.648 149.319 117.319 147.207 113.283 143.414H113.287ZM120.032 48.3443V91.8545H120.03C108.028 94.4233 98.0582 102.732 93.3653 114.071C88.6719 125.412 89.8568 138.336 96.5339 148.633L66.0767 179.091C54.3035 164.748 47.9149 146.74 48.0194 128.185C48.0461 108.333 55.4173 89.1954 68.7134 74.4529C82.0071 59.7123 100.288 50.4129 120.03 48.3443H120.032ZM77.6095 190.299L107.957 159.952H107.955C109.603 160.928 111.31 161.799 113.068 162.562L115.353 163.431C116.455 163.822 117.582 164.15 118.723 164.41L122.53 165.279H124.053H128.185H132.318H133.84L137.647 164.41H137.652C138.793 164.15 139.92 163.822 141.022 163.431L143.307 162.562C145.065 161.799 146.772 160.928 148.42 159.952L178.768 190.299C164.501 201.981 146.628 208.364 128.188 208.364C109.747 208.364 91.8739 201.98 77.6069 190.299H77.6095Z" fill="black"/>
<path d="M128.186 0.375C94.288 0.375 61.7765 13.8408 37.8086 37.8106C13.8407 61.7803 0.373047 94.2887 0.373047 128.188C0.373047 162.086 13.8388 194.597 37.8086 218.564C61.7784 242.532 94.2867 256 128.186 256C162.084 256 194.595 242.534 218.562 218.564C242.53 194.595 255.998 162.086 255.998 128.188C255.969 94.2993 242.493 61.8033 218.531 37.8416C194.569 13.8793 162.075 0.404214 128.186 0.375V0.375ZM128.186 239.681C98.6148 239.681 70.2554 227.935 49.345 207.024C28.4347 186.116 16.6881 157.757 16.6881 128.184C16.6881 98.6105 28.4347 70.2537 49.345 49.3433C70.2529 28.4329 98.6123 16.6864 128.186 16.6864C157.759 16.6864 186.116 28.4329 207.026 49.3433C227.936 70.2512 239.683 98.6105 239.683 128.184C239.654 157.745 227.897 186.087 206.994 206.993C186.091 227.899 157.749 239.653 128.185 239.682L128.186 239.681Z" fill="black"/>
</svg>
