<svg width="500" height="500" viewBox="0 0 500 500" fill="none" xmlns="http://www.w3.org/2000/svg">
<path d="M318.82 290.989V150.97H279.616V139.789L262.813 139.77C259.545 131.036 250.96 125 241.466 125C231.965 125 223.5 131.044 220.224 139.77H201.204V150.97H162V341.396H243.211V375H338.424V290.989L318.82 290.989ZM332.822 310.591H304.818V296.589H332.822V310.591ZM276.815 310.591H248.811V296.589H276.815V310.591ZM282.415 296.589H299.218V329.648L291.346 318.303L282.415 330.199L282.415 296.589ZM206.805 145.369L224.443 145.252L225 143.177C226.989 135.77 233.757 130.601 241.463 130.601C249.156 130.601 255.913 135.774 257.899 143.177L258.45 145.236L274.013 145.351V162.174H206.804L206.805 145.369ZM167.6 335.795V156.57H201.204V167.771H279.615V156.57H313.219V290.989H243.21V335.796L167.6 335.795ZM248.811 369.399V316.192H276.815V346.991L291.167 327.869L304.819 347.542V316.19H332.823V369.397L248.811 369.399Z" fill="#9400D3"/>
<path d="M241.125 137.819C237.187 137.819 233.983 141.025 233.983 144.967C233.983 148.907 237.187 152.114 241.125 152.114C245.063 152.114 248.266 148.909 248.266 144.967C248.264 141.025 245.065 137.819 241.125 137.819ZM241.125 146.512C240.277 146.512 239.586 145.821 239.586 144.967C239.586 144.113 240.277 143.422 241.125 143.422C241.973 143.422 242.664 144.113 242.664 144.967C242.664 145.821 241.973 146.512 241.125 146.512Z" fill="#9400D3"/>
<path d="M218.007 195.776H299.218V201.377H218.007V195.776Z" fill="#9400D3"/>
<path d="M218.007 232.181H299.218V237.781H218.007V232.181Z" fill="#9400D3"/>
<path d="M218.007 268.586H299.218V274.186H218.007V268.586Z" fill="#9400D3"/>
<path d="M194.503 199.517L187.461 191.969L183.363 195.792L194.986 208.237L212.4 184.913L207.909 181.561L194.503 199.517Z" fill="#9400D3"/>
<path d="M194.503 237.212L187.461 229.664L183.363 233.486L194.986 245.932L212.4 222.606L207.909 219.254L194.503 237.212Z" fill="#9400D3"/>
<path d="M194.504 273.277L187.458 265.733L183.367 269.555L194.986 281.994L212.4 258.673L207.909 255.321L194.504 273.277Z" fill="#9400D3"/>
<rect width="500" height="500" rx="20" fill="#9400D3" fill-opacity="0.2"/>
</svg>
