<svg width="500" height="500" viewBox="0 0 500 500" fill="none" xmlns="http://www.w3.org/2000/svg">
<path d="M321.921 129H157.566C152.377 129 147.401 131.061 143.73 134.73C140.061 138.4 138 143.377 138 148.566V312.921C138 318.11 140.061 323.086 143.73 326.757C147.4 330.426 152.377 332.487 157.566 332.487H250.387C255.878 349.326 268.921 362.631 285.647 368.455C302.372 374.281 320.858 371.956 335.624 362.171C350.386 352.387 359.728 336.265 360.88 318.592C362.031 300.919 354.858 283.722 341.489 272.107V148.566C341.489 143.377 339.427 138.401 335.759 134.73C332.089 131.061 327.111 129 321.923 129H321.921ZM210.392 136.826H269.09V222.917H210.392V136.826ZM157.566 324.66C154.453 324.66 151.465 323.424 149.265 321.222C147.064 319.021 145.827 316.034 145.827 312.921V148.566C145.827 145.453 147.063 142.466 149.265 140.265C151.466 138.064 154.453 136.827 157.566 136.827H202.566V226.831C202.566 227.868 202.978 228.864 203.712 229.598C204.445 230.332 205.441 230.744 206.479 230.744H273.003C274.041 230.744 275.037 230.332 275.771 229.598C276.504 228.864 276.917 227.868 276.917 226.831V136.827H321.916C325.029 136.827 328.017 138.064 330.218 140.265C332.419 142.466 333.656 145.454 333.656 148.566V266.392C322.143 259.378 308.507 256.7 295.196 258.84C281.886 260.981 269.776 267.802 261.045 278.074C252.314 288.346 247.534 301.396 247.565 314.877C247.586 318.158 247.887 321.43 248.465 324.66L157.566 324.66ZM353.227 314.877C353.227 327.851 348.073 340.292 338.9 349.466C329.726 358.639 317.284 363.793 304.311 363.793C291.338 363.793 278.897 358.639 269.723 349.466C260.55 340.292 255.396 327.851 255.396 314.877C255.396 301.904 260.55 289.463 269.723 280.289C278.897 271.116 291.338 265.962 304.311 265.962C317.277 265.983 329.707 271.144 338.877 280.312C348.045 289.482 353.206 301.912 353.227 314.877Z" fill="#9400D3"/>
<path d="M161.475 297.268H177.127V305.094H161.475V297.268Z" fill="#9400D3"/>
<path d="M184.954 297.268H200.607V305.094H184.954V297.268Z" fill="#9400D3"/>
<rect width="500" height="500" rx="20" fill="#9400D3" fill-opacity="0.2"/>
<path d="M325.787 311.289H306.711V292.213C306.711 291.065 306.099 290.004 305.104 289.431C304.11 288.856 302.885 288.856 301.891 289.431C300.897 290.004 300.285 291.065 300.285 292.213V311.289H281.213C280.065 311.289 279.004 311.901 278.431 312.896C277.856 313.89 277.856 315.115 278.431 316.109C279.004 317.103 280.065 317.715 281.213 317.715H300.289V336.787C300.289 337.935 300.901 338.996 301.896 339.569C302.89 340.144 304.115 340.144 305.109 339.569C306.103 338.996 306.715 337.935 306.715 336.787V317.711H325.787C326.935 317.711 327.996 317.099 328.569 316.104C329.144 315.11 329.144 313.885 328.569 312.891C327.996 311.897 326.935 311.285 325.787 311.285V311.289Z" fill="#9400D3"/>
</svg>
