<svg width="500" height="500" viewBox="0 0 500 500" fill="none" xmlns="http://www.w3.org/2000/svg">
<rect width="500" height="500" rx="20" fill="#9400D3" fill-opacity="0.2"/>
<path d="M328.921 129H164.566C159.377 129 154.401 131.061 150.73 134.73C147.061 138.4 145 143.377 145 148.566V312.921C145 318.11 147.061 323.086 150.73 326.757C154.4 330.426 159.377 332.487 164.566 332.487H257.387C262.878 349.326 275.921 362.631 292.647 368.455C309.372 374.281 327.858 371.956 342.624 362.171C357.386 352.387 366.728 336.265 367.88 318.592C369.031 300.919 361.858 283.722 348.489 272.107V148.566C348.489 143.377 346.427 138.401 342.759 134.73C339.089 131.061 334.111 129 328.923 129H328.921ZM217.392 136.826H276.09V222.917H217.392V136.826ZM164.566 324.66C161.453 324.66 158.465 323.424 156.265 321.222C154.064 319.021 152.827 316.034 152.827 312.921V148.566C152.827 145.453 154.063 142.466 156.265 140.265C158.466 138.064 161.453 136.827 164.566 136.827H209.566V226.831C209.566 227.868 209.978 228.864 210.712 229.598C211.445 230.332 212.441 230.744 213.479 230.744H280.003C281.041 230.744 282.037 230.332 282.771 229.598C283.504 228.864 283.917 227.868 283.917 226.831V136.827H328.916C332.029 136.827 335.017 138.064 337.218 140.265C339.419 142.466 340.656 145.454 340.656 148.566V266.392C329.143 259.378 315.507 256.7 302.196 258.84C288.886 260.981 276.776 267.802 268.045 278.074C259.314 288.346 254.534 301.396 254.565 314.877C254.586 318.158 254.887 321.43 255.465 324.66L164.566 324.66ZM360.227 314.877C360.227 327.851 355.073 340.292 345.9 349.466C336.726 358.639 324.284 363.793 311.311 363.793C298.338 363.793 285.897 358.639 276.723 349.466C267.55 340.292 262.396 327.851 262.396 314.877C262.396 301.904 267.55 289.463 276.723 280.289C285.897 271.116 298.338 265.962 311.311 265.962C324.277 265.983 336.707 271.144 345.877 280.312C355.045 289.482 360.206 301.912 360.227 314.877Z" fill="#9400D3"/>
<path d="M168 297H183.653V304.826H168V297Z" fill="#9400D3"/>
<path d="M191.479 297H207.132V304.826H191.479V297Z" fill="#9400D3"/>
<path d="M67.4896 153.977H122.245C123.62 153.977 124.733 152.863 124.733 151.488C124.733 150.115 123.62 149 122.245 149H67.4896C66.1146 149 65 150.115 65 151.488C65 152.863 66.1146 153.977 67.4896 153.977Z" fill="#9400D3"/>
<path d="M92.4896 177.977H122.356C123.731 177.977 124.844 176.863 124.844 175.49C124.844 174.115 123.731 173 122.356 173H92.4896C91.1146 173 90 174.115 90 175.49C90 176.863 91.1146 177.977 92.4896 177.977Z" fill="#9400D3"/>
<path d="M105.5 202H123.501C124.329 202 125 200.88 125 199.501C125 198.12 124.329 197 123.501 197H105.5C104.672 197 104 198.12 104 199.501C104 200.88 104.672 202 105.5 202Z" fill="#9400D3"/>
<path fill-rule="evenodd" clip-rule="evenodd" d="M327.428 325H313.143V300.501C313.143 298.569 311.544 297 309.572 297C307.601 297 306 298.569 306 300.501V328.499C306 330.431 307.601 332 309.572 332H327.428C329.399 332 331 330.431 331 328.499C331 326.567 329.399 325 327.428 325Z" fill="#9400D3"/>
</svg>
