<svg width="177" height="250" viewBox="0 0 177 250" fill="none" xmlns="http://www.w3.org/2000/svg">
<path d="M156.82 165.989V25.9701H117.616V14.789L100.813 14.7695C97.5447 6.03582 88.9596 0 79.4658 0C69.9645 0 61.5004 6.04382 58.2244 14.7695H39.2043V25.97H0V216.396H81.211V250H176.424V165.989L156.82 165.989ZM170.822 185.591H142.818V171.589H170.822V185.591ZM114.815 185.591H86.8108V171.589H114.815V185.591ZM120.415 171.589H137.218V204.648L129.346 193.303L120.415 205.199L120.415 171.589ZM44.8046 20.3688L62.4435 20.2516L63.0002 18.1771C64.9888 10.7701 71.7574 5.6014 79.4635 5.6014C87.156 5.6014 93.9129 10.7741 95.8992 18.1771L96.4501 20.236L112.013 20.3512V37.174H44.8035L44.8046 20.3688ZM5.60026 210.795V31.5703H39.2043V42.7708H117.615V31.5703H151.219V165.989H81.2095V210.796L5.60026 210.795ZM86.8113 244.399V191.192H114.815V221.991L129.167 202.869L142.819 222.542V191.19H170.823V244.397L86.8113 244.399Z" fill="black"/>
<path d="M79.1249 12.8193C75.1868 12.8193 71.9834 16.0249 71.9834 19.9668C71.9834 23.9068 75.1869 27.1143 79.1249 27.1143C83.0628 27.1143 86.2663 23.9087 86.2663 19.9668C86.2644 16.0249 83.0648 12.8193 79.1249 12.8193ZM79.1249 21.512C78.2771 21.512 77.5856 20.8205 77.5856 19.9669C77.5856 19.1133 78.2771 18.4218 79.1249 18.4218C79.9726 18.4218 80.6641 19.1133 80.6641 19.9669C80.6641 20.8205 79.9726 21.512 79.1249 21.512Z" fill="black"/>
<path d="M56.0068 70.7764H137.218V76.3766H56.0068V70.7764Z" fill="black"/>
<path d="M56.0068 107.181H137.218V112.781H56.0068V107.181Z" fill="black"/>
<path d="M56.0068 143.586H137.218V149.186H56.0068V143.586Z" fill="black"/>
<path d="M32.5034 74.5168L25.4615 66.9688L21.3633 70.7915L32.9859 83.2367L50.4002 59.913L45.9094 56.561L32.5034 74.5168Z" fill="black"/>
<path d="M32.5034 112.212L25.4615 104.664L21.3633 108.486L32.9859 120.932L50.4002 97.6059L45.9094 94.2539L32.5034 112.212Z" fill="black"/>
<path d="M32.5036 148.277L25.4576 140.733L21.3672 144.555L32.9858 156.994L50.4001 133.673L45.9093 130.321L32.5036 148.277Z" fill="black"/>
</svg>
