<svg width="303" height="243" viewBox="0 0 303 243" fill="none" xmlns="http://www.w3.org/2000/svg">
<path d="M263.921 0H99.5661C94.3774 0 89.4007 2.06143 85.7298 5.72983C82.0612 9.4002 80 14.3774 80 19.566V183.921C80 189.11 82.0614 194.086 85.7298 197.757C89.4002 201.426 94.3774 203.487 99.5661 203.487H192.387C197.878 220.326 210.921 233.631 227.647 239.455C244.372 245.281 262.858 242.956 277.624 233.171C292.386 223.387 301.728 207.265 302.88 189.592C304.031 171.919 296.858 154.722 283.489 143.107V19.566C283.489 14.3774 281.427 9.40065 277.759 5.72983C274.089 2.06121 269.111 0 263.923 0H263.921ZM152.392 7.82642H211.09V93.917H152.392V7.82642ZM99.5661 195.66C96.453 195.66 93.4655 194.424 91.2647 192.222C89.0639 190.021 87.8266 187.034 87.8266 183.921V19.5663C87.8266 16.4532 89.0635 13.4657 91.2647 11.2649C93.4659 9.06411 96.4534 7.82687 99.5661 7.82687H144.566V97.8307C144.566 98.8684 144.978 99.8642 145.712 100.598C146.445 101.332 147.441 101.744 148.479 101.744H215.003C216.041 101.744 217.037 101.332 217.771 100.598C218.504 99.8642 218.917 98.8684 218.917 97.8307V7.82687H263.916C267.029 7.82687 270.017 9.06371 272.218 11.2649C274.419 13.4661 275.656 16.4536 275.656 19.5663V137.392C264.143 130.378 250.507 127.7 237.196 129.84C223.886 131.981 211.776 138.802 203.045 149.074C194.314 159.346 189.534 172.396 189.565 185.877C189.586 189.158 189.887 192.43 190.465 195.66L99.5661 195.66ZM295.227 185.877C295.227 198.851 290.073 211.292 280.9 220.466C271.726 229.639 259.284 234.793 246.311 234.793C233.338 234.793 220.897 229.639 211.723 220.466C202.55 211.292 197.396 198.851 197.396 185.877C197.396 172.904 202.55 160.463 211.723 151.289C220.897 142.116 233.338 136.962 246.311 136.962C259.277 136.983 271.707 142.144 280.877 151.312C290.045 160.482 295.206 172.912 295.227 185.877Z" fill="black"/>
<path d="M103 168H118.653V175.826H103V168Z" fill="black"/>
<path d="M126.479 168H142.132V175.826H126.479V168Z" fill="black"/>
<path d="M2.48961 24.9775H57.2452C58.6203 24.9775 59.7331 23.8629 59.7331 22.4879C59.7331 21.1146 58.6203 20 57.2452 20H2.48961C1.11458 20 0 21.1146 0 22.4879C0 23.8629 1.11458 24.9775 2.48961 24.9775Z" fill="black"/>
<path d="M27.4896 48.9775H57.3559C58.7309 48.9775 59.8437 47.8629 59.8437 46.4896C59.8437 45.1146 58.7309 44 57.3559 44H27.4896C26.1146 44 25 45.1146 25 46.4896C25 47.8628 26.1146 48.9775 27.4896 48.9775Z" fill="black"/>
<path d="M40.5005 73H58.5006C59.3293 73 60 71.8804 60 70.5009C60 69.1196 59.3293 68 58.5006 68H40.5005C39.6717 68 39 69.1196 39 70.5009C39 71.8803 39.6717 73 40.5005 73Z" fill="black"/>
<path fill-rule="evenodd" clip-rule="evenodd" d="M262.428 196H248.143V171.501C248.143 169.569 246.544 168 244.572 168C242.601 168 241 169.569 241 171.501V199.499C241 201.431 242.601 203 244.572 203H262.428C264.399 203 266 201.431 266 199.499C266 197.567 264.399 196 262.428 196Z" fill="black"/>
</svg>
