<svg width="223" height="243" viewBox="0 0 223 243" fill="none" xmlns="http://www.w3.org/2000/svg">
<path d="M183.921 0H19.5661C14.3774 0 9.40065 2.06143 5.72984 5.72983C2.06121 9.4002 0 14.3774 0 19.566V183.921C0 189.11 2.06144 194.086 5.72984 197.757C9.4002 201.426 14.3774 203.487 19.5661 203.487H112.387C117.878 220.326 130.921 233.631 147.647 239.455C164.372 245.281 182.858 242.956 197.624 233.171C212.386 223.387 221.728 207.265 222.88 189.592C224.031 171.919 216.858 154.722 203.489 143.107V19.566C203.489 14.3774 201.427 9.40065 197.759 5.72983C194.089 2.06121 189.111 0 183.923 0H183.921ZM72.3921 7.82642H131.09V93.917H72.3921V7.82642ZM19.5661 195.66C16.453 195.66 13.4655 194.424 11.2647 192.222C9.06389 190.021 7.82664 187.034 7.82664 183.921V19.5663C7.82664 16.4532 9.06349 13.4657 11.2647 11.2649C13.4659 9.06411 16.4534 7.82687 19.5661 7.82687H64.5657V97.8307C64.5657 98.8684 64.978 99.8642 65.7117 100.598C66.4455 101.332 67.4412 101.744 68.4789 101.744H135.003C136.041 101.744 137.037 101.332 137.771 100.598C138.504 99.8642 138.917 98.8684 138.917 97.8307V7.82687H183.916C187.029 7.82687 190.017 9.06371 192.218 11.2649C194.419 13.4661 195.656 16.4536 195.656 19.5663V137.392C184.143 130.378 170.507 127.7 157.196 129.84C143.886 131.981 131.776 138.802 123.045 149.074C114.314 159.346 109.534 172.396 109.565 185.877C109.586 189.158 109.887 192.43 110.465 195.66L19.5661 195.66ZM215.227 185.877C215.227 198.851 210.073 211.292 200.9 220.466C191.726 229.639 179.284 234.793 166.311 234.793C153.338 234.793 140.897 229.639 131.723 220.466C122.55 211.292 117.396 198.851 117.396 185.877C117.396 172.904 122.55 160.463 131.723 151.289C140.897 142.116 153.338 136.962 166.311 136.962C179.277 136.983 191.707 142.144 200.877 151.312C210.045 160.482 215.206 172.912 215.227 185.877Z" fill="black"/>
<path d="M163.229 196.364L144.85 177.639L141 181.55L161.331 202.202V202.201C161.843 202.717 162.535 203.004 163.257 203C163.977 203.004 164.669 202.717 165.181 202.201L195 171.911L191.15 168L163.229 196.364Z" fill="black"/>
<path d="M23.4746 168.268H39.1274V176.094H23.4746V168.268Z" fill="black"/>
<path d="M46.9541 168.268H62.6069V176.094H46.9541V168.268Z" fill="black"/>
</svg>
