<svg width="190" height="50" viewBox="0 0 190 50" fill="none" xmlns="http://www.w3.org/2000/svg">
<path fill-rule="evenodd" clip-rule="evenodd" d="M177.09 21.68C177.151 21.645 177.17 21.636 177.188 21.623C178.271 20.465 179.647 19.891 181.179 19.668C182.777 19.44 184.347 19.568 185.833 20.239C187.858 21.152 188.993 22.784 189.533 24.883C189.738 25.6784 189.839 26.4967 189.835 27.318C189.835 30.997 189.835 34.003 189.833 37.679C189.83 39.181 188.637 40.387 187.173 40.383C186.817 40.3851 186.464 40.3167 186.135 40.1816C185.805 40.0465 185.506 39.8475 185.254 39.5961C185.002 39.3447 184.802 39.0458 184.667 38.7167C184.531 38.3877 184.462 38.035 184.463 37.679C184.459 34.354 184.463 31.7 184.46 28.374C184.46 27.724 184.37 27.084 184.12 26.475C183.648 25.302 182.754 24.66 181.521 24.484C180.516 24.337 179.551 24.452 178.698 25.057C177.798 25.699 177.347 26.603 177.165 27.661C177.112 27.966 177.093 28.281 177.093 28.592C177.088 31.817 177.093 34.362 177.089 37.592C177.089 38.772 176.555 39.648 175.481 40.143C173.759 40.943 171.763 39.655 171.704 37.73V13.24C171.704 11.94 172.484 10.871 173.666 10.536C175.309 10.074 177.1 11.302 177.093 13.192C177.085 15.772 177.089 18.787 177.089 21.366V21.679L177.09 21.68ZM56.804 20.316V20.006C56.822 19.008 56.794 18.01 56.871 17.016C57.129 13.639 59.456 11.23 62.821 10.795C63.9372 10.6472 65.0709 10.7014 66.168 10.955C66.943 11.135 67.598 11.516 68.045 12.197C68.905 13.508 68.157 15.189 66.597 15.398C66.126 15.462 65.637 15.408 65.153 15.43C64.817 15.442 64.478 15.455 64.153 15.528C62.995 15.785 62.318 16.536 62.24 17.738C62.184 18.582 62.233 19.435 62.233 20.316H62.497C63.463 20.316 64.428 20.313 65.399 20.32C66.549 20.326 67.543 21.192 67.679 22.298C67.7509 22.8554 67.6174 23.4199 67.3035 23.8861C66.9895 24.3522 66.5166 24.6881 65.973 24.831C65.7588 24.8833 65.5395 24.9115 65.319 24.915C64.385 24.921 63.45 24.917 62.513 24.917H62.223V37.55C62.223 38.723 61.716 39.608 60.658 40.12C58.943 40.954 56.88 39.704 56.816 37.807C56.793 37.031 56.809 36.255 56.809 35.479C56.804 32.28 56.804 29.296 56.804 25.259V24.916H56.517C55.738 24.916 54.959 24.926 54.178 24.912C53.035 24.889 52.064 24.02 51.94 22.927C51.801 21.752 52.514 20.686 53.64 20.397C53.837 20.347 54.046 20.323 54.249 20.319C55.002 20.309 55.757 20.315 56.513 20.315H56.804V20.316ZM160.852 19.505C162.176 19.555 163.475 19.695 164.709 20.23C165.761 20.692 166.579 21.423 167.182 22.4C167.74 23.307 167.47 24.438 166.533 25.167C165.695 25.82 164.756 25.807 163.78 25.103C163.381 24.816 163.017 24.479 162.626 24.186C161.652 23.449 160.022 23.431 159.024 24.132C158.358 24.602 158.072 25.332 158.274 26.062C158.434 26.647 158.849 27.006 159.386 27.187C159.905 27.357 160.444 27.452 160.973 27.581C162.103 27.861 163.253 28.084 164.36 28.434C165.671 28.849 166.786 29.612 167.612 30.739C169.05 32.695 169.033 35.543 167.59 37.631C166.527 39.165 165.027 40.045 163.234 40.41C161.03 40.859 158.864 40.729 156.783 39.799C155.569 39.2617 154.537 38.3835 153.813 37.271C153.276 36.463 153.351 35.496 153.986 34.769C154.938 33.68 156.192 33.619 157.363 34.617C157.576 34.797 157.756 35.009 157.945 35.214C158.902 36.225 160.081 36.618 161.448 36.483C161.945 36.436 162.413 36.297 162.823 36.001C163.863 35.247 163.818 33.772 162.732 33.081C162.218 32.759 161.629 32.652 161.052 32.508C159.883 32.216 158.704 31.968 157.551 31.608C156.231 31.195 155.098 30.447 154.283 29.288C152.913 27.343 152.974 24.54 154.445 22.527C155.658 20.867 157.319 19.96 159.317 19.647C159.823 19.565 160.34 19.551 160.852 19.505ZM149.718 30.248V37.658C149.714 38.938 148.876 40.024 147.662 40.306C145.939 40.71 144.351 39.506 144.242 37.849C144.235 37.7512 144.231 37.6531 144.231 37.555C144.231 32.144 144.231 28.253 144.236 22.843C144.236 21.483 145.11 20.394 146.421 20.114C148.015 19.771 149.624 20.958 149.706 22.552C149.741 23.231 149.718 23.172 149.718 23.854V30.248V30.248ZM90.108 30.162C90.108 32.869 90.112 34.955 90.108 37.659C90.107 39.032 89.168 40.119 87.789 40.349C86.214 40.616 84.658 39.367 84.621 37.799C84.611 37.249 84.618 36.699 84.618 36.15V22.75C84.618 21.274 85.853 20.051 87.341 20.056C88.874 20.062 90.105 21.248 90.107 22.736C90.112 25.461 90.108 27.44 90.108 30.163V30.162ZM143.682 13.74C143.705 11.87 145.199 10.424 147.085 10.44C148.847 10.457 150.3 11.987 150.275 13.796C150.255 15.59 148.766 17.048 146.965 17.033C145.157 17.019 143.66 15.519 143.682 13.739V13.74ZM90.66 13.775C90.652 15.578 89.182 17.029 87.37 17.033C85.562 17.034 84.064 15.549 84.066 13.756C84.0641 13.3185 84.1492 12.885 84.3163 12.4806C84.4834 12.0763 84.7292 11.7092 85.0394 11.4007C85.3496 11.0921 85.7181 10.8483 86.1233 10.6834C86.5285 10.5185 86.9625 10.4358 87.4 10.44C89.218 10.444 90.658 11.926 90.658 13.775H90.66ZM110.68 29.9C110.673 29.757 110.665 29.52 110.643 29.284C110.571 28.454 110.373 27.504 109.974 26.767C109.509 25.912 108.866 25.244 107.996 24.807C107.19 24.397 106.328 24.247 105.434 24.307C104.615 24.3512 103.822 24.6113 103.136 25.061C102.146 25.711 101.514 26.783 101.163 27.899C100.876 28.816 100.814 29.757 100.897 30.707C100.973 31.527 101.169 32.312 101.562 33.04C101.891 33.654 102.314 34.194 102.87 34.609C104.18 35.581 105.634 35.807 107.19 35.374C108.596 34.988 109.55 34.055 110.145 32.741C110.538 31.869 110.669 30.941 110.68 29.901V29.9ZM100.777 22.509C100.929 22.305 100.98 22.169 101.212 21.903C101.83 21.188 102.586 20.526 103.452 20.16C104.251 19.822 105.098 19.6143 105.963 19.545C107.373 19.429 108.755 19.564 110.096 20.045C111.402 20.5093 112.564 21.3042 113.471 22.352C114.296 23.306 114.882 24.399 115.282 25.592C115.582 26.479 115.768 27.389 115.862 28.318C115.947 29.168 115.957 30.169 115.892 31.024C115.747 32.912 115.241 34.684 114.21 36.289C112.922 38.285 111.005 39.7 108.685 40.243C107.741 40.468 106.785 40.525 105.815 40.459C104.745 40.386 103.823 40.31 102.765 39.659C101.905 39.131 101.491 38.714 100.981 38.048C100.973 38.038 100.971 38.222 100.947 38.189C100.944 38.2276 100.942 38.2663 100.942 38.305V47.361C100.943 48.66 99.924 49.817 98.628 49.98C97.941 50.0651 97.2476 49.8823 96.6918 49.4697C96.1359 49.0571 95.7604 48.4462 95.643 47.764C95.6128 47.5736 95.5997 47.3808 95.604 47.188V24.682C95.604 23.996 95.609 23.311 95.604 22.632C95.6 21.842 95.875 21.166 96.459 20.646C97.189 19.991 98.042 19.802 98.972 20.104C99.904 20.407 100.485 21.058 100.719 22.012C100.798 22.333 100.777 22.408 100.777 22.509V22.509ZM124.2 30.262C124.21 30.405 124.217 30.642 124.239 30.877C124.309 31.71 124.505 32.658 124.903 33.396C125.369 34.249 126.011 34.919 126.881 35.359C127.685 35.769 128.542 35.915 129.434 35.858C130.254 35.8135 131.049 35.5531 131.736 35.103C132.722 34.452 133.349 33.378 133.699 32.263C133.989 31.348 134.046 30.405 133.966 29.455C133.893 28.635 133.694 27.848 133.301 27.121C132.973 26.508 132.554 25.969 131.996 25.554C130.689 24.58 129.231 24.354 127.686 24.784C126.283 25.174 125.329 26.106 124.734 27.42C124.341 28.293 124.215 29.222 124.2 30.262V30.262ZM134.085 37.66C133.935 37.857 133.882 37.996 133.651 38.264C133.036 38.977 132.278 39.643 131.415 40.008C130.618 40.3463 129.771 40.5533 128.907 40.621C127.501 40.736 126.121 40.601 124.785 40.119C123.482 39.6567 122.322 38.8626 121.419 37.815C120.59 36.858 120.003 35.765 119.603 34.573C119.31 33.6887 119.118 32.7737 119.033 31.846C118.944 30.9473 118.933 30.0427 118.998 29.142C119.145 27.252 119.649 25.476 120.678 23.872C121.962 21.872 123.874 20.458 126.191 19.917C127.13 19.6973 128.098 19.6241 129.059 19.7C130.119 19.77 131.046 19.847 132.102 20.498C132.962 21.026 133.373 21.442 133.882 22.11C133.887 22.12 133.895 21.938 133.914 21.969C133.919 21.913 133.924 21.884 133.924 21.856C133.92 18.756 133.962 16.452 133.962 13.355C133.959 12.057 134.98 10.895 136.27 10.735C136.957 10.649 137.65 10.8315 138.205 11.2444C138.76 11.6573 139.135 12.2687 139.25 12.951C139.283 13.141 139.286 13.335 139.286 13.529C139.286 21.296 139.246 27.719 139.246 35.483C139.246 36.165 139.243 37.014 139.249 37.698C139.254 38.487 138.979 39.16 138.395 39.683C137.665 40.338 136.816 40.527 135.887 40.223C134.959 39.921 134.377 39.271 134.143 38.316C134.103 38.146 134.09 37.882 134.085 37.81C134.082 37.747 134.085 37.706 134.085 37.66ZM78.626 40.385C74.809 40.385 71.703 37.226 71.703 33.345V13.455C71.703 11.94 72.913 10.713 74.396 10.713C75.884 10.713 77.094 11.94 77.094 13.455V33.343C77.094 34.205 77.779 34.905 78.626 34.905C80.111 34.905 81.319 36.13 81.319 37.643C81.319 39.158 80.111 40.383 78.626 40.383V40.385ZM44.872 20.159H44.312C44.292 19.951 44.295 19.739 44.269 19.533C44.1769 18.7893 44.0332 18.0528 43.839 17.329C42.929 13.973 41.191 11.131 38.61 8.836C36.112 6.614 33.272 5.253 30.117 4.698C30.31 4.277 30.427 3.81 30.427 3.313C30.426 1.483 28.96 0 27.152 0C25.344 0 23.88 1.483 23.88 3.313C23.88 3.799 23.99 4.258 24.175 4.675C23.324 4.825 22.483 5.034 21.663 5.322C19.5804 6.05224 17.661 7.18318 16.013 8.651H2.383C1.066 8.65 0 9.73 0 11.06C0 12.39 1.066 13.47 2.382 13.47H12.183C12.013 13.78 11.845 14.09 11.695 14.407H5.77C4.454 14.407 3.388 15.486 3.388 16.817C3.388 18.147 4.454 19.227 5.77 19.227H10.272C10.227 19.535 10.18 19.843 10.15 20.158H9.053C7.739 20.158 6.673 21.237 6.673 22.569C6.673 23.899 7.739 24.978 9.053 24.978H22.208L22.136 27.647L14.141 30.938C13.8241 31.0698 13.5391 31.2679 13.3052 31.5191C13.0713 31.7702 12.8939 32.0686 12.785 32.394C12.6752 32.721 12.6361 33.0676 12.6704 33.4109C12.7048 33.7541 12.8116 34.0862 12.984 34.385L15.059 37.983C15.2665 38.346 15.5662 38.6478 15.9277 38.8578C16.2893 39.0678 16.6999 39.1786 17.118 39.179C17.525 39.179 17.938 39.074 18.318 38.849C18.8647 38.5221 19.2608 37.9933 19.4208 37.3767C19.5808 36.7602 19.4918 36.1055 19.173 35.554L18.48 34.354L25.373 31.517C25.8037 31.3383 26.1731 31.0382 26.4362 30.6532C26.6993 30.2683 26.8448 29.8152 26.855 29.349L26.972 24.978H27.842L30.618 30.674L26.915 36.7C26.6909 37.0661 26.5674 37.4848 26.5568 37.9139C26.5463 38.3431 26.6491 38.7673 26.855 39.144C27.0592 39.5182 27.3601 39.8307 27.7264 40.0488C28.0926 40.2669 28.5107 40.3827 28.937 40.384H33.341C34.656 40.384 35.724 39.304 35.724 37.974C35.724 36.642 34.656 35.563 33.341 35.563H33.223L35.366 32.083C35.797 31.373 35.842 30.489 35.476 29.741L33.153 24.978H44.872C46.189 24.978 47.252 23.898 47.252 22.569C47.252 21.237 46.189 20.158 44.872 20.158V20.159ZM39.816 18.858C39.816 18.942 39.806 19.023 39.792 19.105C39.788 19.135 39.781 19.163 39.774 19.192C39.7631 19.2367 39.7498 19.2808 39.734 19.324C39.6361 19.6184 39.4411 19.8708 39.181 20.04C39.131 20.076 39.076 20.103 39.023 20.13C39.008 20.137 38.996 20.146 38.983 20.152C38.976 20.154 38.973 20.158 38.967 20.159C38.8004 20.226 38.6226 20.2606 38.443 20.261C38.2266 20.2591 38.0135 20.2078 37.82 20.111C37.7686 20.0875 37.7185 20.0611 37.67 20.032L37.641 20.014C37.4681 19.9048 37.3225 19.7576 37.215 19.5836C37.1076 19.4096 37.0412 19.2135 37.021 19.01C36.979 18.61 36.935 18.21 36.845 17.817C36.6017 16.7833 36.1654 15.8048 35.559 14.933C34.9748 14.0693 34.2328 13.3236 33.372 12.735C32.7851 12.3316 32.1343 12.0304 31.447 11.844C31.1148 11.7605 30.8245 11.5588 30.6305 11.2766C30.4364 10.9943 30.352 10.651 30.393 10.311C30.4128 10.1088 30.4763 9.91328 30.579 9.73801C30.6818 9.56274 30.8214 9.41188 30.9882 9.29586C31.155 9.17984 31.345 9.10144 31.5451 9.06607C31.7452 9.0307 31.9505 9.0392 32.147 9.091C33.0762 9.33398 33.9596 9.72716 34.762 10.255C36.354 11.295 37.586 12.675 38.505 14.346C38.951 15.164 39.294 16.024 39.525 16.93C39.667 17.494 39.759 18.07 39.809 18.65C39.815 18.718 39.816 18.783 39.816 18.849V18.859" fill="#171460"/>
</svg>
