<svg width="21" height="21" viewBox="0 0 21 21" fill="none" xmlns="http://www.w3.org/2000/svg">
<g clip-path="url(#clip0)">
<path d="M20.4749 9.09299C20.4743 9.09251 20.4738 9.09187 20.4733 9.09139L11.907 0.525354C11.5418 0.160057 11.0564 -0.0410156 10.54 -0.0410156C10.0236 -0.0410156 9.53813 0.160057 9.17284 0.525354L0.610969 9.08706C0.608085 9.08995 0.605041 9.09299 0.602318 9.09587C-0.147501 9.85002 -0.146219 11.0736 0.606003 11.8258C0.949669 12.1696 1.40341 12.3686 1.8887 12.3896C1.90857 12.3916 1.92844 12.3925 1.94847 12.3925H2.28973V18.6964C2.28973 19.944 3.30487 20.959 4.55248 20.959H7.90391C8.24374 20.959 8.51915 20.6835 8.51915 20.3438V15.4014C8.51915 14.8321 8.98234 14.3691 9.55159 14.3691H11.5284C12.0976 14.3691 12.5606 14.8321 12.5606 15.4014V20.3438C12.5606 20.6835 12.8361 20.959 13.1759 20.959H16.5273C17.7751 20.959 18.7901 19.944 18.7901 18.6964V12.3925H19.1066C19.6229 12.3925 20.1083 12.1914 20.4738 11.826C21.2268 11.0726 21.2271 9.84681 20.4749 9.09299V9.09299ZM19.6036 10.956C19.4708 11.0888 19.2943 11.162 19.1066 11.162H18.1748C17.835 11.162 17.5596 11.4375 17.5596 11.7773V18.6964C17.5596 19.2655 17.0966 19.7286 16.5273 19.7286H13.7911V15.4014C13.7911 14.1538 12.7761 13.1386 11.5284 13.1386H9.55159C8.30382 13.1386 7.28868 14.1538 7.28868 15.4014V19.7286H4.55248C3.98339 19.7286 3.5202 19.2655 3.5202 18.6964V11.7773C3.5202 11.4375 3.24479 11.162 2.90496 11.162H1.98916C1.97955 11.1614 1.9701 11.1609 1.96032 11.1608C1.77703 11.1576 1.60512 11.0848 1.4763 10.9558C1.20233 10.6819 1.20233 10.236 1.4763 9.96185C1.47646 9.96185 1.47646 9.96169 1.47662 9.96153L1.47711 9.96105L10.0431 1.39534C10.1758 1.26251 10.3522 1.18946 10.54 1.18946C10.7276 1.18946 10.904 1.26251 11.0368 1.39534L19.6009 9.95929C19.6022 9.96057 19.6036 9.96185 19.6049 9.96313C19.8775 10.2376 19.877 10.6825 19.6036 10.956V10.956Z" fill="black"/>
</g>
<defs>
<clipPath id="clip0">
<rect width="21" height="21" fill="white"/>
</clipPath>
</defs>
</svg>
