<svg width="26" height="12" viewBox="0 0 26 12" fill="none" xmlns="http://www.w3.org/2000/svg">
<path d="M20.2902 0.000261092C18.4927 0.137417 17.1971 0.780474 16.1139 1.86682L9.07309 8.50102C7.95317 9.56091 6.79407 10.0355 5.69126 10.0532C4.58844 10.0709 3.51826 9.63556 2.559 8.74105C0.68775 6.99619 0.697412 4.24758 2.559 2.48541C4.4744 0.6725 6.83695 0.844518 8.49996 2.24513L11.1147 4.65678C11.3445 4.86736 11.7452 4.84983 11.9556 4.61986C12.1662 4.3901 12.1484 3.98939 11.9185 3.77899C11.0327 2.96556 10.1402 2.15336 9.25751 1.33972C7.18805 -0.402861 4.05559 -0.560202 1.74579 1.6262C-0.571198 3.81921 -0.592634 7.41984 1.74579 9.59992C2.89147 10.6683 4.27724 11.2585 5.70963 11.2355C7.14201 11.2122 8.59441 10.5821 9.88614 9.35989L16.9269 2.73466C18.0468 1.67477 19.2059 1.20021 20.3087 1.18247C21.4115 1.16453 22.4817 1.60013 23.441 2.49464C25.3122 4.23949 25.3026 6.97887 23.441 8.74077C21.5256 10.5537 19.163 10.3817 17.5 8.98105L14.8853 6.57869C14.658 6.36832 14.2595 6.38358 14.0491 6.61107C13.8388 6.83836 13.854 7.23685 14.0815 7.4472C14.9673 8.26062 15.8598 9.07283 16.7425 9.88646C18.8119 11.629 21.9444 11.7864 24.2542 9.59999C26.5712 7.40698 26.5926 3.80634 24.2542 1.62627C23.008 0.549428 21.5701 -0.000211136 20.2902 6.08403e-08L20.2902 0.000261092Z" fill="#0066B0"/>
</svg>
