<svg width="97" height="97" viewBox="0 0 97 97" fill="none" xmlns="http://www.w3.org/2000/svg">
<path d="M95.3175 68.3484L76.1882 58.6621L94.2957 49.3004C94.8725 49.0007 94.8725 48.5193 94.2923 48.2275L73.8711 37.8884L95.3413 26.7874C96.3847 26.2459 97.0034 25.2854 96.9977 24.2171C96.9909 23.151 96.3608 22.1996 95.3175 21.6729L53.4441 0.474555C52.6688 0.0828766 51.8593 0 51.3155 0C50.816 0 50.069 0.0703882 49.3458 0.408707L1.74617 22.6935C0.663119 23.201 0.0103385 24.1501 0.000121099 25.2309C-0.0100963 26.3128 0.626791 27.2744 1.70189 27.8035L24.5651 39.0464L2.71001 49.2777C2.12648 49.5513 2.12421 50.0077 2.70434 50.2926L22.1107 59.836L1.74617 69.3679C0.661984 69.8754 0.00920327 70.8245 0.000121099 71.9053C-0.00896107 72.9873 0.627926 73.9489 1.70189 74.4756L46.6064 96.5595C47.3455 96.9239 48.1129 97 48.6261 97C49.1664 97 49.9725 96.9171 50.7513 96.5175L95.3436 73.4618C96.3869 72.9203 97.0056 71.9598 97 70.8915C96.9909 69.8266 96.3619 68.8741 95.3175 68.3484ZM51.1952 4.55142C51.2065 4.54914 51.2508 4.5412 51.3155 4.5412C51.3848 4.5412 51.4359 4.55028 51.4086 4.53439L90.3586 24.2523L48.743 45.7753C48.7316 45.7775 48.6885 45.7866 48.6261 45.7866L48.6102 45.8105L6.89462 25.2967L51.1952 4.55142ZM48.7487 92.4474C48.7362 92.4509 48.6908 92.4588 48.6249 92.4588L48.6113 92.4849L6.89689 71.97L26.6222 62.7355L46.6041 72.5615C47.3443 72.926 48.1118 73.0032 48.6249 73.0032C49.1664 73.0032 49.9736 72.9192 50.7479 72.5195L71.9025 61.5832L90.3564 70.9267L48.7487 92.4474Z" fill="black"/>
</svg>
