<svg width="50" height="36" viewBox="0 0 50 36" fill="none" xmlns="http://www.w3.org/2000/svg">
<path d="M45.6055 0.871971H4.39453C1.97139 0.871971 0 2.84336 0 5.2665V30.7335C0 33.1566 1.97139 35.128 4.39453 35.128H45.6055C48.0286 35.128 50 33.1566 50 30.7335V5.2665C50 2.84336 48.0286 0.871971 45.6055 0.871971ZM45.0319 3.80166L44.4454 4.29004L26.7436 19.0304C25.7332 19.8716 24.2666 19.8716 23.2564 19.0304L5.55459 4.29004L4.96807 3.80166H45.0319ZM2.92969 5.9167L17.3527 17.9268L2.92969 27.5257V5.9167ZM45.6055 32.1983H4.39453C3.68672 32.1983 3.09473 31.6936 2.95908 31.0254L19.7018 19.8827L21.3818 21.2817C22.4301 22.1546 23.7151 22.591 25.0001 22.591C26.2851 22.591 27.57 22.1546 28.6184 21.2817L30.2984 19.8827L47.041 31.0253C46.9053 31.6937 46.3133 32.1983 45.6055 32.1983ZM47.0703 27.5257L32.6473 17.9268L47.0703 5.9167V27.5257Z" fill="black"/>
</svg>
