<svg width="516" height="538" viewBox="0 0 516 538" fill="none" xmlns="http://www.w3.org/2000/svg">
<path d="M78.9685 0.203125C35.6635 0.203125 0.394531 33.2811 0.394531 78.6011C0.394531 89.0151 3.30473 105.843 6.69533 114.999L78.7973 268.999L150.899 114.999C154.267 105.847 157.2 89.0071 157.2 78.6011C157.2 33.2811 122.278 0.203125 78.9731 0.203125H78.9685ZM78.7967 45.0041C97.3557 45.0041 112.399 60.0471 112.399 78.6061C112.399 97.1651 97.3557 112.208 78.7967 112.208C60.2417 112.208 45.1946 97.1651 45.1946 78.6061C45.1946 60.0471 60.2377 45.0041 78.7967 45.0041V45.0041ZM425.817 235.404C376.329 235.404 336.391 274.017 336.391 325.006C336.391 336.717 339.715 354.26 343.566 364.557L425.992 537.807L508.418 364.557C512.29 354.256 515.594 336.721 515.594 325.006C515.594 274.022 475.309 235.404 425.821 235.404H425.817ZM101.717 246.603L91.2167 269.001H224.397C252.514 269.001 274.795 291.286 274.795 319.399C274.795 347.516 252.51 369.797 224.397 369.797H151.596C105.252 369.797 67.5956 407.453 67.5956 453.797C67.5956 500.141 105.252 537.797 151.596 537.797H413.576L402.9 515.399H151.6C117.28 515.399 89.9976 488.122 89.9976 453.797C89.9976 419.477 117.275 392.195 151.6 392.195H224.401C264.538 392.195 297.202 359.531 297.202 319.394C297.202 279.257 264.538 246.593 224.401 246.593L101.717 246.603ZM425.987 285.802C447.635 285.802 465.186 303.353 465.186 325.001C465.186 346.649 447.635 364.2 425.987 364.2C404.339 364.2 386.788 346.649 386.788 325.001C386.788 303.353 404.339 285.802 425.987 285.802Z" fill="black"/>
</svg>
