<svg width="336" height="336" viewBox="0 0 336 336" fill="none" xmlns="http://www.w3.org/2000/svg">
<path d="M252.002 77.0512L228.26 100.797L278.658 151.195H33.6084V33.5952L100.807 55.9932V100.794H134.409L134.406 55.9932C134.406 48.9463 132.187 42.0752 128.066 36.3562C123.949 30.6374 118.132 26.3601 111.449 24.1292L44.2497 1.73123L44.2458 1.72733C33.9998 -1.69067 22.7338 0.0242248 13.9688 6.33672C5.20711 12.6492 0.0118125 22.7897 0.0078125 33.5947V302.395C0.0117185 313.2 5.20701 323.34 13.9688 329.653C22.7344 335.965 33.9998 337.68 44.2458 334.262L111.445 311.864L111.449 311.86C118.132 309.63 123.949 305.352 128.066 299.633C132.187 293.914 134.406 287.043 134.406 279.996V235.195H100.808V279.996L33.6085 302.394V184.794H278.659L228.261 235.192L252.003 258.938L331.073 179.864C334.221 176.716 335.987 172.446 335.987 167.993C335.987 163.54 334.221 159.271 331.073 156.122L252.002 77.0512Z" fill="black"/>
</svg>
