<svg width="382" height="516" viewBox="0 0 382 516" fill="none" xmlns="http://www.w3.org/2000/svg">
<path d="M34.1996 0.402344C15.7776 0.402344 0.597656 15.5823 0.597656 34.0043V482.004C0.597656 500.426 15.7776 515.606 34.1996 515.606H347.8C366.222 515.606 381.402 500.426 381.402 482.004V34.0043C381.402 15.5823 366.222 0.402344 347.8 0.402344H34.1996ZM34.1996 22.8003H347.8C354.198 22.8003 358.999 27.6011 358.999 33.9993V481.999C358.999 488.398 354.198 493.198 347.8 493.198H34.1996C27.8012 493.198 23.0007 488.398 23.0007 481.999V33.9993C23.0007 27.6009 27.8014 22.8003 34.1996 22.8003ZM79.0007 95.6013C72.8132 95.6013 67.8017 100.617 67.8017 106.8C67.8017 112.988 72.8173 117.999 79.0007 117.999H303.001C309.188 117.999 314.2 112.984 314.2 106.8C314.2 100.613 309.184 95.6013 303.001 95.6013H79.0007ZM79.0007 196.401C72.8132 196.401 67.8017 201.417 67.8017 207.6C67.8017 213.788 72.8173 218.799 79.0007 218.799H303.001C309.188 218.799 314.2 213.784 314.2 207.6C314.2 201.413 309.184 196.401 303.001 196.401H79.0007ZM79.0007 297.201C72.8132 297.201 67.8017 302.217 67.8017 308.4C67.8017 314.588 72.8173 319.599 79.0007 319.599H303.001C309.188 319.599 314.2 314.584 314.2 308.4C314.2 302.213 309.184 297.201 303.001 297.201H79.0007ZM79.0007 398.001C72.8132 398.001 67.8017 403.017 67.8017 409.2C67.8017 415.388 72.8173 420.399 79.0007 420.399H224.601C230.788 420.399 235.8 415.384 235.8 409.2C235.8 403.013 230.784 398.001 224.601 398.001H79.0007Z" fill="black"/>
</svg>
