<svg width="517" height="560" viewBox="0 0 517 560" fill="none" xmlns="http://www.w3.org/2000/svg">
<path d="M490 542.495V244.995C506.547 232.62 516.277 213.159 516.25 192.495V118.12C516.269 115.714 515.793 113.331 514.852 111.12L471.102 10.5001C469.734 7.3712 467.48 4.7071 464.621 2.8399C461.762 0.976605 458.414 -0.0116956 455 0.000104445H61.2499C57.8476 0.00401065 54.5233 1.0001 51.6796 2.8673C48.8358 4.7306 46.5976 7.38291 45.2382 10.5001L1.48824 111.12C0.542925 113.331 0.0663375 115.714 0.0859375 118.12H0V192.495C0.003906 204.433 3.2656 216.143 9.4336 226.366C15.6016 236.589 24.4416 244.936 34.9996 250.507V542.497C34.9996 547.138 36.8434 551.591 40.1246 554.872C43.4058 558.153 47.859 559.997 52.4996 559.997H472.5C477.14 559.997 481.593 558.153 484.875 554.872C488.156 551.591 490 547.138 490 542.497L490 542.495ZM65.6199 223.115C57.4988 223.115 49.7099 219.889 43.9639 214.146C38.2217 208.4 34.9951 200.611 34.9951 192.49V135.615H96.2451V192.49C96.2451 200.611 93.0185 208.4 87.2763 214.146C81.5302 219.889 73.7413 223.115 65.6203 223.115H65.6199ZM322.26 100.615L316.572 34.9901H370.299L381.674 100.615H322.26ZM287.26 100.615H229.072L234.759 34.9901H281.486L287.26 100.615ZM194.072 100.615H134.572L145.947 34.9901H199.674L194.072 100.615ZM131.248 135.615H192.498V192.49C192.498 203.431 186.662 213.541 177.186 219.013C167.709 224.482 156.038 224.482 146.561 219.013C137.084 213.54 131.249 203.431 131.249 192.49L131.248 135.615ZM227.498 135.615H288.748V192.49C288.748 203.431 282.912 213.541 273.436 219.013C263.959 224.482 252.288 224.482 242.811 219.013C233.334 213.54 227.499 203.431 227.499 192.49L227.498 135.615ZM323.748 135.615H384.998V192.49C384.998 203.431 379.162 213.541 369.686 219.013C360.209 224.482 348.538 224.482 339.061 219.013C329.584 213.54 323.749 203.431 323.749 192.49L323.748 135.615ZM419.998 135.615H481.248V192.49C481.248 203.431 475.412 213.541 465.936 219.013C456.459 224.482 444.788 224.482 435.311 219.013C425.834 213.54 419.999 203.431 419.999 192.49L419.998 135.615ZM472.498 100.615H417.197L405.822 34.9901H443.533L472.498 100.615ZM72.7079 34.9901H110.419L99.0439 100.615H44.1849L72.7079 34.9901ZM323.748 524.99H201.248V349.99H323.748V524.99ZM358.748 524.99V332.49C358.748 327.85 356.904 323.396 353.623 320.115C350.342 316.834 345.889 314.99 341.248 314.99H183.748C179.107 314.99 174.654 316.834 171.373 320.115C168.092 323.396 166.248 327.85 166.248 332.49V524.99H69.9979V257.85C86.7279 256.764 102.396 249.276 113.748 236.936C126.111 250.428 143.572 258.112 161.873 258.112C180.174 258.112 197.635 250.428 209.998 236.936C222.361 250.428 239.822 258.112 258.123 258.112C276.424 258.112 293.885 250.428 306.248 236.936C318.611 250.428 336.072 258.112 354.373 258.112C372.674 258.112 390.135 250.428 402.498 236.936C414.881 250.401 432.33 258.081 450.623 258.112C452.08 258.198 453.541 258.198 454.998 258.112V524.992L358.748 524.99Z" fill="#9400D3"/>
</svg>
