<svg width="23" height="29" viewBox="0 0 23 29" fill="none" xmlns="http://www.w3.org/2000/svg">
<path d="M22.6058 9.78431L16.8505 7.55508C17.1515 6.69976 17.2431 5.78474 17.1175 4.88674C16.992 3.98874 16.653 3.13393 16.1289 2.39396C15.6049 1.654 14.9111 1.05045 14.1057 0.633913C13.3003 0.217379 12.4067 0 11.5 0C10.5933 0 9.69974 0.217379 8.89434 0.633913C8.08894 1.05045 7.39514 1.654 6.87109 2.39396C6.34705 3.13393 6.00804 3.98874 5.88249 4.88674C5.75693 5.78474 5.84849 6.69976 6.14949 7.55508L0.394184 9.78431C0.278009 9.82963 0.178224 9.90897 0.107891 10.0119C0.0375574 10.1149 -4.70815e-05 10.2367 4.4239e-08 10.3614V23.7113C-3.52255e-05 23.8362 0.0376919 23.9582 0.108229 24.0613C0.178766 24.1643 0.278816 24.2436 0.395246 24.2888L11.276 28.5067C11.3475 28.5343 11.4234 28.5484 11.5 28.5484C11.5758 28.5469 11.6507 28.5313 11.7208 28.5024L11.724 28.5067L22.6058 24.2888C22.722 24.2435 22.8219 24.1641 22.8922 24.061C22.9625 23.958 23.0001 23.8361 23 23.7113V10.3614C23 10.2367 22.9624 10.1149 22.8921 10.0119C22.8218 9.90897 22.722 9.82963 22.6058 9.78431ZM20.6685 10.3614L18.6597 11.1399L15.3307 9.85897C15.71 9.51001 16.0402 9.11126 16.3123 8.67359L20.6685 10.3614ZM14.1128 10.7174L16.9436 11.8062L15.3452 12.4254L12.4133 11.28C13.0062 11.1843 13.5799 10.9943 14.1128 10.7174ZM16.0395 13.4841L18.119 12.6781V15.258L17.7712 15.0311C17.6495 14.9519 17.5039 14.918 17.3598 14.9352C17.2156 14.9524 17.0821 15.0197 16.9825 15.1253L16.0395 16.1259V13.4841ZM11.5 1.25414C12.3769 1.25414 13.2341 1.51417 13.9632 2.00135C14.6923 2.48853 15.2606 3.18098 15.5962 3.99113C15.9318 4.80128 16.0196 5.69275 15.8485 6.5528C15.6774 7.41285 15.2552 8.20286 14.6351 8.82293C14.015 9.44299 13.225 9.86526 12.365 10.0363C11.5049 10.2074 10.6135 10.1196 9.8033 9.78403C8.99315 9.44845 8.3007 8.88018 7.81352 8.15106C7.32634 7.42194 7.06631 6.56473 7.06631 5.68783C7.06762 4.51235 7.53516 3.38538 8.36635 2.55418C9.19755 1.72299 10.3245 1.25545 11.5 1.25414ZM7.04154 9.18029L6.21283 8.85652L6.68734 8.67252C6.79606 8.84845 6.9143 9.01831 7.04154 9.18135V9.18029ZM4.50482 9.51857L13.6355 13.0878L11.5 13.9155L2.33149 10.3614L4.50482 9.51857ZM1.23846 23.2871V11.2659L10.8808 15.0039V27.0251L1.23846 23.2871ZM12.1192 27.0251V15.0039L14.801 13.9636V17.6864C14.8011 17.8104 14.8384 17.9316 14.9081 18.0342C14.9778 18.1368 15.0767 18.216 15.192 18.2618C15.2646 18.2908 15.3421 18.3057 15.4203 18.3056C15.5047 18.3057 15.5883 18.2884 15.6658 18.2549C15.7433 18.2215 15.8132 18.1725 15.8711 18.111L17.5288 16.3513L18.4004 16.9175C18.4938 16.9779 18.6017 17.012 18.7129 17.0162C18.824 17.0205 18.9342 16.9947 19.032 16.9416C19.1297 16.8886 19.2114 16.8101 19.2683 16.7146C19.3253 16.6191 19.3555 16.51 19.3557 16.3988V12.1979L21.7615 11.2659V23.2871L12.1192 27.0251Z" fill="black"/>
<path d="M10.397 7.50968C10.5113 7.60634 10.6566 7.65837 10.8062 7.65616C10.9558 7.65395 11.0996 7.59764 11.2109 7.49765L14.214 4.79851C14.2776 4.74507 14.3299 4.67936 14.3676 4.6053C14.4053 4.53125 14.4277 4.45036 14.4335 4.36745C14.4393 4.28455 14.4283 4.20133 14.4013 4.12275C14.3742 4.04417 14.3316 3.97184 14.276 3.91007C14.2204 3.84829 14.153 3.79834 14.0777 3.76319C14.0024 3.72804 13.9208 3.70841 13.8377 3.70547C13.7547 3.70252 13.6719 3.71633 13.5942 3.74605C13.5166 3.77578 13.4458 3.82083 13.386 3.87851L10.7845 6.21708L9.59983 5.2157C9.47441 5.10965 9.31199 5.05777 9.14832 5.07148C8.98464 5.08518 8.83312 5.16334 8.72707 5.28876C8.62102 5.41419 8.56915 5.5766 8.58285 5.74028C8.59655 5.90395 8.67471 6.05548 8.80014 6.16153L10.397 7.50968Z" fill="black"/>
</svg>
