<svg width="129" height="32" viewBox="0 0 129 32" fill="none" xmlns="http://www.w3.org/2000/svg">
<path d="M25.6856 21.6539C25.6856 21.1692 25.4457 20.7896 24.966 20.5153C24.4952 20.2317 23.7348 19.9802 22.6848 19.7607C19.1906 19.0198 17.4436 17.5198 17.4436 15.2606C17.4436 13.9436 17.9822 12.846 19.0594 11.968C20.1457 11.0808 21.5623 10.6372 23.3094 10.6372C25.1741 10.6372 26.6633 11.0808 27.7767 11.968C28.8991 12.8552 29.4603 14.0076 29.4603 15.4253H25.5363C25.5363 14.8582 25.3552 14.3918 24.9931 14.0259C24.631 13.6509 24.0653 13.4634 23.2958 13.4634C22.635 13.4634 22.1235 13.6144 21.7615 13.9162C21.3994 14.218 21.2183 14.6021 21.2183 15.0686C21.2183 15.5076 21.422 15.8643 21.8293 16.1387C22.2458 16.404 22.9427 16.6372 23.9204 16.8384C24.8981 17.0305 25.7218 17.25 26.3917 17.497C28.4646 18.2652 29.5011 19.596 29.5011 21.4893C29.5011 22.843 28.9263 23.9405 27.7767 24.782C26.627 25.6144 25.1425 26.0305 23.3229 26.0305C22.0919 26.0305 20.9965 25.811 20.037 25.3719C19.0866 24.9238 18.3398 24.3155 17.7966 23.5472C17.2535 22.7698 16.9819 21.933 16.9819 21.0366H20.7024C20.7385 21.7409 20.9965 22.2805 21.4763 22.6554C21.9561 23.0305 22.5988 23.2179 23.4044 23.2179C24.1558 23.2179 24.7215 23.0762 25.1017 22.7927C25.491 22.5 25.6856 22.1204 25.6856 21.6539ZM38.8022 26.0305C36.6478 26.0305 34.8917 25.3628 33.5339 24.0275C32.1851 22.6921 31.5107 20.9131 31.5107 18.6906V18.3064C31.5107 16.8155 31.7958 15.4847 32.3661 14.314C32.9364 13.1341 33.742 12.2287 34.7831 11.5976C35.8331 10.9573 37.028 10.6372 38.3677 10.6372C40.3774 10.6372 41.9569 11.2774 43.1066 12.5579C44.2653 13.8384 44.8446 15.6539 44.8446 18.0046V19.6235H35.4891C35.6159 20.593 35.9961 21.3705 36.6297 21.9558C37.2724 22.5412 38.0826 22.8339 39.0602 22.8339C40.5719 22.8339 41.7533 22.2805 42.6042 21.1738L44.5323 23.3552C43.9439 24.1967 43.1473 24.8552 42.1425 25.3308C41.1377 25.7972 40.0243 26.0305 38.8022 26.0305ZM38.3541 13.8476C37.5757 13.8476 36.942 14.1128 36.4532 14.6433C35.9734 15.1738 35.6657 15.933 35.5299 16.9207H40.9884V16.6052C40.9702 15.7271 40.7349 15.0503 40.2823 14.5747C39.8297 14.0899 39.1869 13.8476 38.3541 13.8476ZM53.1952 22.8339C53.9194 22.8339 54.5078 22.6326 54.9605 22.2302C55.413 21.8277 55.6484 21.2926 55.6665 20.625H59.3462C59.3372 21.6311 59.0656 22.5548 58.5315 23.3964C57.9974 24.2287 57.2642 24.878 56.3319 25.3445C55.4085 25.8018 54.3856 26.0305 53.2631 26.0305C51.1631 26.0305 49.5065 25.3582 48.2935 24.0137C47.0805 22.6601 46.474 20.7942 46.474 18.4162V18.1555C46.474 15.8689 47.0759 14.0442 48.2799 12.6814C49.4838 11.3186 51.1359 10.6372 53.236 10.6372C55.0736 10.6372 56.5445 11.1677 57.6489 12.2287C58.7623 13.2805 59.3282 14.6845 59.3462 16.4406H55.6665C55.6484 15.6723 55.413 15.0503 54.9605 14.5747C54.5078 14.0899 53.9104 13.8476 53.1681 13.8476C52.2539 13.8476 51.5614 14.186 51.0906 14.8628C50.6289 15.5305 50.3981 16.6189 50.3981 18.1281V18.5396C50.3981 20.067 50.6289 21.1646 51.0906 21.8323C51.5523 22.5 52.2539 22.8339 53.1952 22.8339ZM60.9756 18.1967C60.9756 16.7241 61.2563 15.4116 61.8175 14.2591C62.3787 13.1067 63.1844 12.2149 64.2344 11.5838C65.2935 10.9527 66.5201 10.6372 67.9141 10.6372C69.8966 10.6372 71.5124 11.25 72.7616 12.4756C74.0199 13.7012 74.7214 15.3658 74.8662 17.4695L74.8934 18.4848C74.8934 20.7622 74.2643 22.5914 73.006 23.9725C71.7478 25.3445 70.0595 26.0305 67.9413 26.0305C65.8231 26.0305 64.1304 25.3445 62.863 23.9725C61.6047 22.6006 60.9756 20.7347 60.9756 18.375V18.1967ZM64.8998 18.4848C64.8998 19.8933 65.1623 20.9726 65.6873 21.7225C66.2124 22.4634 66.9636 22.8339 67.9413 22.8339C68.8918 22.8339 69.6341 22.468 70.1682 21.7363C70.7022 20.9954 70.9693 19.8156 70.9693 18.1967C70.9693 16.8155 70.7022 15.7454 70.1682 14.9863C69.6341 14.2271 68.8827 13.8476 67.9141 13.8476C66.9546 13.8476 66.2124 14.2271 65.6873 14.9863C65.1623 15.7363 64.8998 16.9024 64.8998 18.4848ZM80.9224 10.9116L81.0445 12.6265C82.0943 11.3003 83.5017 10.6372 85.2675 10.6372C86.824 10.6372 87.9827 11.0991 88.7436 12.0229C89.5037 12.9466 89.893 14.3277 89.9107 16.1662V25.7561H85.9867V16.2622C85.9867 15.4207 85.8059 14.8125 85.4436 14.4375C85.0813 14.0534 84.4796 13.8613 83.6376 13.8613C82.5338 13.8613 81.7049 14.3369 81.1526 15.2881V25.7561H77.2289V10.9116H80.9224ZM92.2876 18.2241C92.2876 15.9101 92.7989 14.067 93.8217 12.6951C94.8537 11.3232 96.2611 10.6372 98.0447 10.6372C99.4745 10.6372 100.656 11.1768 101.589 12.2561V4.68292H105.526V25.7561H101.982L101.792 24.1783C100.815 25.4131 99.5564 26.0305 98.0176 26.0305C96.2881 26.0305 94.8985 25.3445 93.8487 23.9725C92.8074 22.5914 92.2876 20.6753 92.2876 18.2241ZM96.2116 18.5122C96.2116 19.9024 96.4511 20.968 96.9308 21.7089C97.4105 22.4497 98.108 22.8201 99.0218 22.8201C100.235 22.8201 101.09 22.3034 101.589 21.2698V15.4116C101.1 14.3781 100.253 13.8613 99.0489 13.8613C97.1571 13.8613 96.2116 15.4116 96.2116 18.5122ZM116.524 21.6539C116.524 21.1692 116.285 20.7896 115.805 20.5153C115.334 20.2317 114.574 19.9802 113.524 19.7607C110.029 19.0198 108.283 17.5198 108.283 15.2606C108.283 13.9436 108.821 12.846 109.898 11.968C110.985 11.0808 112.402 10.6372 114.148 10.6372C116.013 10.6372 117.502 11.0808 118.616 11.968C119.738 12.8552 120.299 14.0076 120.299 15.4253H116.375C116.375 14.8582 116.194 14.3918 115.832 14.0259C115.47 13.6509 114.904 13.4634 114.135 13.4634C113.474 13.4634 112.962 13.6144 112.6 13.9162C112.239 14.218 112.057 14.6021 112.057 15.0686C112.057 15.5076 112.261 15.8643 112.668 16.1387C113.084 16.404 113.782 16.6372 114.759 16.8384C115.737 17.0305 116.56 17.25 117.231 17.497C119.303 18.2652 120.34 19.596 120.34 21.4893C120.34 22.843 119.765 23.9405 118.616 24.782C117.466 25.6144 115.981 26.0305 114.162 26.0305C112.931 26.0305 111.835 25.811 110.876 25.3719C109.926 24.9238 109.179 24.3155 108.636 23.5472C108.092 22.7698 107.821 21.933 107.821 21.0366H111.541C111.577 21.7409 111.835 22.2805 112.315 22.6554C112.795 23.0305 113.437 23.2179 114.243 23.2179C114.995 23.2179 115.56 23.0762 115.941 22.7927C116.33 22.5 116.524 22.1204 116.524 21.6539Z" fill="black"/>
<path d="M14.5267 10.4946C15.343 8.50342 14.4071 6.22062 12.4364 5.39583C10.4657 4.57105 8.20643 5.51662 7.39014 7.50782L1.47802 21.9294C0.661727 23.9206 1.59756 26.2034 3.56827 27.0281C5.53897 27.8529 7.79828 26.9074 8.61457 24.9162L14.5267 10.4946Z" fill="#9400D3"/>
</svg>
