<svg width="200" height="49" viewBox="0 0 200 49" fill="none" xmlns="http://www.w3.org/2000/svg">
<path d="M39.8225 33.1576C39.8225 32.4153 39.4506 31.8341 38.7068 31.414C37.977 30.9798 36.7982 30.5946 35.1702 30.2586C29.7528 29.124 27.0442 26.8272 27.0442 23.3678C27.0442 21.3511 27.8793 19.6705 29.5493 18.326C31.2335 16.9675 33.4299 16.2882 36.1386 16.2882C39.0296 16.2882 41.3383 16.9675 43.0645 18.326C44.8048 19.6845 45.675 21.4492 45.675 23.62H39.591C39.591 22.7516 39.3103 22.0374 38.749 21.4772C38.1875 20.9029 37.3104 20.6158 36.1175 20.6158C35.0929 20.6158 34.3 20.847 33.7387 21.3091C33.1772 21.7713 32.8965 22.3595 32.8965 23.0737C32.8965 23.746 33.2123 24.2923 33.8439 24.7124C34.4895 25.1186 35.5702 25.4757 37.0859 25.7838C38.6015 26.0779 39.8787 26.4141 40.9172 26.7922C44.1311 27.9686 45.7381 30.0064 45.7381 32.9055C45.7381 34.9783 44.8469 36.6589 43.0645 37.9475C41.2821 39.222 38.9805 39.8592 36.1596 39.8592C34.2509 39.8592 32.5527 39.523 31.065 38.8508C29.5915 38.1645 28.4336 37.2332 27.5916 36.0567C26.7494 34.8662 26.3285 33.5848 26.3285 32.2122H32.0966C32.1527 33.2907 32.5527 34.117 33.2965 34.6911C34.0403 35.2654 35.0369 35.5525 36.2859 35.5525C37.4508 35.5525 38.3279 35.3354 38.9174 34.9013C39.5208 34.4531 39.8225 33.8719 39.8225 33.1576ZM60.1584 39.8592C56.8183 39.8592 54.0956 38.8368 51.9904 36.7921C49.8993 34.7472 48.8538 32.0232 48.8538 28.6199V28.0317C48.8538 25.7488 49.2958 23.711 50.18 21.9183C51.0642 20.1116 52.3132 18.7252 53.9272 17.7588C55.5552 16.7784 57.4077 16.2882 59.4848 16.2882C62.6005 16.2882 65.0494 17.2685 66.8318 19.2293C68.6283 21.1901 69.5265 23.9701 69.5265 27.5695V30.0485H55.0219C55.2183 31.533 55.8078 32.7235 56.7902 33.6198C57.7866 34.5162 59.0427 34.9644 60.5584 34.9644C62.9021 34.9644 64.7336 34.117 66.0529 32.4223L69.0423 35.7626C68.1301 37.0512 66.895 38.0595 65.3371 38.7878C63.7794 39.502 62.053 39.8592 60.1584 39.8592ZM59.4637 21.2041C58.2568 21.2041 57.2744 21.6102 56.5165 22.4225C55.7727 23.2348 55.2956 24.3973 55.085 25.9099H63.5478V25.4267C63.5198 24.0822 63.1548 23.0458 62.453 22.3175C61.7514 21.5752 60.755 21.2041 59.4637 21.2041ZM82.4732 34.9644C83.5959 34.9644 84.5081 34.6561 85.2099 34.0399C85.9116 33.4237 86.2765 32.6043 86.3045 31.582H92.0096C91.9956 33.1226 91.5745 34.5371 90.7465 35.8257C89.9184 37.1002 88.7817 38.0945 87.3362 38.8088C85.9047 39.509 84.3187 39.8592 82.5784 39.8592C79.3225 39.8592 76.7541 38.8297 74.8735 36.771C72.9929 34.6982 72.0527 31.8411 72.0527 28.1997V27.8006C72.0527 24.2992 72.986 21.5051 74.8524 19.4183C76.719 17.3316 79.2804 16.2882 82.5364 16.2882C85.3854 16.2882 87.666 17.1005 89.3782 18.7252C91.1044 20.3357 91.9816 22.4856 92.0096 25.1746H86.3045C86.2765 23.9982 85.9116 23.0458 85.2099 22.3175C84.5081 21.5752 83.5819 21.2041 82.4311 21.2041C81.0136 21.2041 79.94 21.7223 79.2102 22.7587C78.4945 23.781 78.1365 25.4477 78.1365 27.7586V28.3888C78.1365 30.7276 78.4945 32.4083 79.2102 33.4308C79.926 34.4531 81.0136 34.9644 82.4732 34.9644ZM94.5358 27.8637C94.5358 25.6087 94.9709 23.599 95.841 21.8343C96.7111 20.0697 97.9602 18.7041 99.5881 17.7377C101.23 16.7714 103.132 16.2882 105.293 16.2882C108.367 16.2882 110.872 17.2266 112.809 19.1033C114.759 20.98 115.847 23.5289 116.072 26.7502L116.114 28.3048C116.114 31.7921 115.138 34.5931 113.188 36.7079C111.237 38.8088 108.619 39.8592 105.335 39.8592C102.051 39.8592 99.4268 38.8088 97.462 36.7079C95.5111 34.6071 94.5358 31.7501 94.5358 28.1367V27.8637ZM100.62 28.3048C100.62 30.4616 101.027 32.1142 101.841 33.2626C102.655 34.397 103.82 34.9644 105.335 34.9644C106.809 34.9644 107.96 34.4041 108.788 33.2837C109.616 32.1492 110.03 30.3426 110.03 27.8637C110.03 25.7488 109.616 24.1101 108.788 22.9478C107.96 21.7853 106.795 21.2041 105.293 21.2041C103.806 21.2041 102.655 21.7853 101.841 22.9478C101.027 24.0962 100.62 25.8818 100.62 28.3048ZM125.461 16.7084L125.65 19.3343C127.278 17.3036 129.461 16.2882 132.198 16.2882C134.611 16.2882 136.407 16.9955 137.587 18.41C138.765 19.8245 139.369 21.9393 139.396 24.7544V39.439H133.313V24.9014C133.313 23.613 133.032 22.6816 132.471 22.1073C131.909 21.5192 130.976 21.2251 129.671 21.2251C127.959 21.2251 126.674 21.9533 125.818 23.4099V39.439H119.735V16.7084H125.461ZM143.081 27.9056C143.081 24.3623 143.874 21.5401 145.46 19.4394C147.06 17.3386 149.242 16.2882 152.007 16.2882C154.224 16.2882 156.056 17.1145 157.502 18.7671V7.17072H163.606V39.439H158.111L157.817 37.0231C156.302 38.9138 154.351 39.8592 151.965 39.8592C149.284 39.8592 147.129 38.8088 145.502 36.7079C143.887 34.5931 143.081 31.659 143.081 27.9056ZM149.165 28.3468C149.165 30.4756 149.537 32.1072 150.28 33.2417C151.024 34.3761 152.105 34.9433 153.522 34.9433C155.404 34.9433 156.729 34.152 157.502 32.5694V23.599C156.744 22.0164 155.431 21.2251 153.564 21.2251C150.631 21.2251 149.165 23.599 149.165 28.3468ZM180.659 33.1576C180.659 32.4153 180.286 31.8341 179.543 31.414C178.812 30.9798 177.634 30.5946 176.006 30.2586C170.588 29.124 167.88 26.8272 167.88 23.3678C167.88 21.3511 168.715 19.6705 170.384 18.326C172.069 16.9675 174.266 16.2882 176.974 16.2882C179.865 16.2882 182.174 16.9675 183.901 18.326C185.641 19.6845 186.51 21.4492 186.51 23.62H180.426C180.426 22.7516 180.146 22.0374 179.584 21.4772C179.023 20.9029 178.146 20.6158 176.953 20.6158C175.928 20.6158 175.135 20.847 174.574 21.3091C174.013 21.7713 173.732 22.3595 173.732 23.0737C173.732 23.746 174.048 24.2923 174.679 24.7124C175.325 25.1186 176.406 25.4757 177.921 25.7838C179.437 26.0779 180.714 26.4141 181.753 26.7922C184.966 27.9686 186.574 30.0064 186.574 32.9055C186.574 34.9783 185.683 36.6589 183.901 37.9475C182.117 39.222 179.816 39.8592 176.995 39.8592C175.086 39.8592 173.388 39.523 171.901 38.8508C170.428 38.1645 169.269 37.2332 168.428 36.0567C167.584 34.8662 167.164 33.5848 167.164 32.2122H172.932C172.988 33.2907 173.388 34.117 174.132 34.6911C174.875 35.2654 175.872 35.5525 177.121 35.5525C178.286 35.5525 179.163 35.3354 179.753 34.9013C180.357 34.4531 180.659 33.8719 180.659 33.1576Z" fill="white"/>
<path d="M22.5221 16.0699C23.7876 13.0209 22.3367 9.52531 19.2814 8.26237C16.226 6.99942 12.7232 8.44732 11.4576 11.4963L2.29156 33.5793C1.02599 36.6283 2.4769 40.1239 5.53225 41.3868C8.58761 42.6498 12.0904 41.2019 13.356 38.1529L22.5221 16.0699Z" fill="white"/>
</svg>
