<svg width="136" height="39" viewBox="0 0 136 39" fill="none" xmlns="http://www.w3.org/2000/svg">
<path d="M25.6855 28.6539C25.6855 28.1691 25.4457 27.7896 24.9659 27.5152C24.4952 27.2317 23.7348 26.9801 22.6848 26.7606C19.1906 26.0197 17.4435 24.5198 17.4435 22.2606C17.4435 20.9435 17.9822 19.846 19.0593 18.9679C20.1456 18.0808 21.5623 17.6371 23.3094 17.6371C25.1741 17.6371 26.6632 18.0808 27.7767 18.9679C28.8991 19.8551 29.4603 21.0076 29.4603 22.4253H25.5362C25.5362 21.8582 25.3552 21.3917 24.993 21.0258C24.631 20.6508 24.0652 20.4633 23.2958 20.4633C22.635 20.4633 22.1235 20.6143 21.7615 20.9161C21.3993 21.2179 21.2183 21.6021 21.2183 22.0685C21.2183 22.5075 21.422 22.8643 21.8293 23.1386C22.2457 23.4039 22.9427 23.6371 23.9204 23.8383C24.898 24.0304 25.7218 24.25 26.3916 24.4969C28.4646 25.2651 29.5011 26.596 29.5011 28.4893C29.5011 29.8429 28.9262 30.9405 27.7767 31.782C26.627 32.6143 25.1424 33.0305 23.3229 33.0305C22.0918 33.0305 20.9965 32.8109 20.037 32.3719C19.0865 31.9237 18.3397 31.3155 17.7965 30.5472C17.2534 29.7697 16.9819 28.9329 16.9819 28.0365H20.7024C20.7385 28.7408 20.9965 29.2804 21.4763 29.6554C21.9561 30.0304 22.5987 30.2179 23.4044 30.2179C24.1558 30.2179 24.7215 30.0762 25.1017 29.7926C25.491 29.4999 25.6855 29.1204 25.6855 28.6539ZM38.8022 33.0305C36.6478 33.0305 34.8917 32.3627 33.5338 31.0274C32.1851 29.692 31.5106 27.913 31.5106 25.6905V25.3064C31.5106 23.8155 31.7958 22.4847 32.3661 21.3139C32.9363 20.1341 33.742 19.2286 34.7831 18.5975C35.8331 17.9573 37.028 17.6371 38.3677 17.6371C40.3773 17.6371 41.9569 18.2774 43.1066 19.5578C44.2652 20.8384 44.8446 22.6539 44.8446 25.0045V26.6234H35.4891C35.6158 27.5929 35.996 28.3704 36.6297 28.9558C37.2724 29.5411 38.0826 29.8338 39.0602 29.8338C40.5719 29.8338 41.7532 29.2804 42.6042 28.1737L44.5323 30.3551C43.9438 31.1966 43.1473 31.8551 42.1425 32.3307C41.1377 32.7972 40.0242 33.0305 38.8022 33.0305ZM38.3541 20.8475C37.5756 20.8475 36.942 21.1127 36.4532 21.6432C35.9734 22.1737 35.6657 22.9329 35.5299 23.9207H40.9883V23.6051C40.9702 22.7271 40.7349 22.0502 40.2822 21.5746C39.8297 21.0898 39.1869 20.8475 38.3541 20.8475ZM53.1952 29.8338C53.9194 29.8338 54.5078 29.6325 54.9604 29.2301C55.413 28.8277 55.6484 28.2926 55.6665 27.625H59.3462C59.3372 28.631 59.0656 29.5548 58.5315 30.3963C57.9974 31.2286 57.2642 31.878 56.3318 32.3445C55.4085 32.8018 54.3856 33.0305 53.2631 33.0305C51.163 33.0305 49.5064 32.3581 48.2934 31.0137C47.0805 29.66 46.4739 27.7942 46.4739 25.4161V25.1554C46.4739 22.8688 47.0759 21.0441 48.2799 19.6813C49.4838 18.3186 51.1359 17.6371 53.2359 17.6371C55.0736 17.6371 56.5445 18.1676 57.6489 19.2286C58.7623 20.2804 59.3281 21.6844 59.3462 23.4405H55.6665C55.6484 22.6722 55.413 22.0502 54.9604 21.5746C54.5078 21.0898 53.9104 20.8475 53.1681 20.8475C52.2538 20.8475 51.5613 21.1859 51.0906 21.8628C50.6289 22.5304 50.3981 23.6189 50.3981 25.128V25.5396C50.3981 27.067 50.6289 28.1646 51.0906 28.8323C51.5523 29.4999 52.2538 29.8338 53.1952 29.8338ZM60.9756 25.1966C60.9756 23.724 61.2562 22.4115 61.8174 21.2591C62.3787 20.1067 63.1844 19.2149 64.2344 18.5838C65.2935 17.9527 66.5201 17.6371 67.9141 17.6371C69.8965 17.6371 71.5124 18.25 72.7616 19.4756C74.0198 20.7012 74.7214 22.3658 74.8662 24.4694L74.8934 25.4847C74.8934 27.7622 74.2642 29.5914 73.006 30.9725C71.7477 32.3445 70.0595 33.0305 67.9413 33.0305C65.8231 33.0305 64.1303 32.3445 62.863 30.9725C61.6047 29.6005 60.9756 27.7347 60.9756 25.375V25.1966ZM64.8998 25.4847C64.8998 26.8932 65.1622 27.9725 65.6873 28.7225C66.2123 29.4633 66.9636 29.8338 67.9413 29.8338C68.8917 29.8338 69.6341 29.4679 70.1681 28.7362C70.7022 27.9954 70.9693 26.8155 70.9693 25.1966C70.9693 23.8155 70.7022 22.7453 70.1681 21.9862C69.6341 21.2271 68.8827 20.8475 67.9141 20.8475C66.9546 20.8475 66.2123 21.2271 65.6873 21.9862C65.1622 22.7362 64.8998 23.9023 64.8998 25.4847ZM80.9224 17.9115L81.0445 19.6264C82.0942 18.3002 83.5016 17.6371 85.2675 17.6371C86.824 17.6371 87.9827 18.099 88.7435 19.0228C89.5036 19.9466 89.8929 21.3277 89.9107 23.1661V32.756H85.9866V23.2621C85.9866 22.4207 85.8059 21.8124 85.4436 21.4374C85.0813 21.0533 84.4796 20.8612 83.6376 20.8612C82.5338 20.8612 81.7049 21.3368 81.1526 22.2881V32.756H77.2288V17.9115H80.9224ZM92.2875 25.224C92.2875 22.91 92.7989 21.067 93.8216 19.695C94.8536 18.3231 96.2611 17.6371 98.0447 17.6371C99.4745 17.6371 100.656 18.1768 101.589 19.256V11.6829H105.526V32.756H101.982L101.792 31.1783C100.815 32.413 99.5563 33.0305 98.0176 33.0305C96.2881 33.0305 94.8984 32.3445 93.8487 30.9725C92.8074 29.5914 92.2875 27.6752 92.2875 25.224ZM96.2116 25.5122C96.2116 26.9024 96.4511 27.9679 96.9308 28.7088C97.4105 29.4497 98.108 29.8201 99.0218 29.8201C100.235 29.8201 101.09 29.3033 101.589 28.2698V22.4115C101.1 21.378 100.253 20.8612 99.0488 20.8612C97.1571 20.8612 96.2116 22.4115 96.2116 25.5122ZM116.524 28.6539C116.524 28.1691 116.285 27.7896 115.805 27.5152C115.334 27.2317 114.574 26.9801 113.524 26.7606C110.029 26.0197 108.283 24.5198 108.283 22.2606C108.283 20.9435 108.821 19.846 109.898 18.9679C110.985 18.0808 112.402 17.6371 114.148 17.6371C116.013 17.6371 117.502 18.0808 118.616 18.9679C119.738 19.8551 120.299 21.0076 120.299 22.4253H116.375C116.375 21.8582 116.194 21.3917 115.832 21.0258C115.47 20.6508 114.904 20.4633 114.135 20.4633C113.474 20.4633 112.962 20.6143 112.6 20.9161C112.239 21.2179 112.057 21.6021 112.057 22.0685C112.057 22.5075 112.261 22.8643 112.668 23.1386C113.084 23.4039 113.782 23.6371 114.759 23.8383C115.737 24.0304 116.56 24.25 117.231 24.4969C119.303 25.2651 120.34 26.596 120.34 28.4893C120.34 29.8429 119.765 30.9405 118.616 31.782C117.466 32.6143 115.981 33.0305 114.162 33.0305C112.931 33.0305 111.835 32.8109 110.876 32.3719C109.926 31.9237 109.179 31.3155 108.636 30.5472C108.092 29.7697 107.821 28.9329 107.821 28.0365H111.541C111.577 28.7408 111.835 29.2804 112.315 29.6554C112.795 30.0304 113.437 30.2179 114.243 30.2179C114.995 30.2179 115.56 30.0762 115.941 29.7926C116.33 29.4999 116.524 29.1204 116.524 28.6539Z" fill="black"/>
<path d="M14.5267 17.4945C15.343 15.5033 14.4071 13.2205 12.4364 12.3957C10.4657 11.571 8.20643 12.5165 7.39014 14.5077L1.47802 28.9293C0.66173 30.9205 1.59756 33.2033 3.56827 34.028C5.53897 34.8528 7.79828 33.9073 8.61457 31.9161L14.5267 17.4945Z" fill="#9400D3"/>
<path d="M116.219 7.38379C116.219 8.514 115.959 9.42318 115.439 10.1113C114.92 10.7949 114.223 11.1367 113.348 11.1367C112.413 11.1367 111.691 10.8063 111.181 10.1455L111.119 11H109.957V0.5H111.222V4.41699C111.732 3.78353 112.436 3.4668 113.334 3.4668C114.232 3.4668 114.936 3.80632 115.446 4.48535C115.961 5.16439 116.219 6.09408 116.219 7.27441V7.38379ZM114.954 7.24023C114.954 6.37891 114.788 5.71354 114.455 5.24414C114.122 4.77474 113.644 4.54004 113.02 4.54004C112.186 4.54004 111.586 4.92741 111.222 5.70215V8.90137C111.609 9.67611 112.213 10.0635 113.033 10.0635C113.639 10.0635 114.111 9.82878 114.448 9.35938C114.785 8.88997 114.954 8.18359 114.954 7.24023ZM120.888 11.1367C119.885 11.1367 119.069 10.8086 118.44 10.1523C117.812 9.49154 117.497 8.6097 117.497 7.50684V7.27441C117.497 6.54069 117.636 5.88672 117.914 5.3125C118.197 4.73372 118.589 4.28255 119.09 3.95898C119.596 3.63086 120.143 3.4668 120.73 3.4668C121.692 3.4668 122.439 3.78353 122.973 4.41699C123.506 5.05046 123.772 5.95736 123.772 7.1377V7.66406H118.762C118.78 8.39323 118.992 8.9834 119.397 9.43457C119.808 9.88118 120.327 10.1045 120.956 10.1045C121.403 10.1045 121.781 10.0133 122.091 9.83105C122.401 9.64876 122.672 9.40723 122.904 9.10645L123.677 9.70801C123.057 10.6605 122.127 11.1367 120.888 11.1367ZM120.73 4.50586C120.22 4.50586 119.792 4.69271 119.445 5.06641C119.099 5.43555 118.885 5.95508 118.803 6.625H122.508V6.5293C122.471 5.88672 122.298 5.38997 121.988 5.03906C121.678 4.68359 121.259 4.50586 120.73 4.50586ZM126.958 1.8125V3.60352H128.339V4.58105H126.958V9.16797C126.958 9.46419 127.02 9.6875 127.143 9.83789C127.266 9.98372 127.475 10.0566 127.771 10.0566C127.917 10.0566 128.118 10.0293 128.373 9.97461V11C128.04 11.0911 127.717 11.1367 127.402 11.1367C126.837 11.1367 126.411 10.9658 126.124 10.624C125.837 10.2822 125.693 9.79688 125.693 9.16797V4.58105H124.347V3.60352H125.693V1.8125H126.958ZM134.389 11C134.316 10.8542 134.257 10.5944 134.211 10.2207C133.623 10.8314 132.921 11.1367 132.105 11.1367C131.376 11.1367 130.777 10.9316 130.308 10.5215C129.843 10.1068 129.61 9.58268 129.61 8.94922C129.61 8.17904 129.902 7.58203 130.485 7.1582C131.073 6.72982 131.898 6.51562 132.96 6.51562H134.19V5.93457C134.19 5.49251 134.058 5.1416 133.794 4.88184C133.53 4.61751 133.14 4.48535 132.625 4.48535C132.174 4.48535 131.796 4.59928 131.49 4.82715C131.185 5.05501 131.032 5.33073 131.032 5.6543H129.761C129.761 5.28516 129.891 4.92969 130.15 4.58789C130.415 4.24154 130.77 3.9681 131.217 3.76758C131.668 3.56706 132.162 3.4668 132.7 3.4668C133.552 3.4668 134.22 3.68099 134.703 4.10938C135.186 4.5332 135.437 5.11882 135.455 5.86621V9.27051C135.455 9.94954 135.542 10.4896 135.715 10.8906V11H134.389ZM132.29 10.0361C132.687 10.0361 133.062 9.93359 133.418 9.72852C133.773 9.52344 134.031 9.25684 134.19 8.92871V7.41113H133.199C131.65 7.41113 130.875 7.86458 130.875 8.77148C130.875 9.16797 131.007 9.47786 131.271 9.70117C131.536 9.92448 131.875 10.0361 132.29 10.0361Z" fill="black"/>
</svg>
