<svg width="167" height="41" viewBox="0 0 167 41" fill="none" xmlns="http://www.w3.org/2000/svg">
<path d="M33.252 27.7441C33.252 27.123 32.9414 26.6367 32.3203 26.2852C31.7109 25.9219 30.7266 25.5996 29.3672 25.3184C24.8438 24.3691 22.582 22.4473 22.582 19.5527C22.582 17.8652 23.2793 16.459 24.6738 15.334C26.0801 14.1973 27.9141 13.6289 30.1758 13.6289C32.5898 13.6289 34.5176 14.1973 35.959 15.334C37.4121 16.4707 38.1387 17.9473 38.1387 19.7637H33.0586C33.0586 19.0371 32.8242 18.4395 32.3555 17.9707C31.8867 17.4902 31.1543 17.25 30.1582 17.25C29.3027 17.25 28.6406 17.4434 28.1719 17.8301C27.7031 18.2168 27.4688 18.709 27.4688 19.3066C27.4688 19.8691 27.7324 20.3262 28.2598 20.6777C28.7988 21.0176 29.7012 21.3164 30.9668 21.5742C32.2324 21.8203 33.2988 22.1016 34.166 22.418C36.8496 23.4023 38.1914 25.1074 38.1914 27.5332C38.1914 29.2676 37.4473 30.6738 35.959 31.752C34.4707 32.8184 32.5488 33.3516 30.1934 33.3516C28.5996 33.3516 27.1816 33.0703 25.9395 32.5078C24.709 31.9336 23.7422 31.1543 23.0391 30.1699C22.3359 29.1738 21.9844 28.1016 21.9844 26.9531H26.8008C26.8477 27.8555 27.1816 28.5469 27.8027 29.0273C28.4238 29.5078 29.2559 29.748 30.2988 29.748C31.2715 29.748 32.0039 29.5664 32.4961 29.2031C33 28.8281 33.252 28.3418 33.252 27.7441ZM50.2324 33.3516C47.4434 33.3516 45.1699 32.4961 43.4121 30.7852C41.666 29.0742 40.793 26.7949 40.793 23.9473V23.4551C40.793 21.5449 41.1621 19.8398 41.9004 18.3398C42.6387 16.8281 43.6816 15.668 45.0293 14.8594C46.3887 14.0391 47.9355 13.6289 49.6699 13.6289C52.2715 13.6289 54.3164 14.4492 55.8047 16.0898C57.3047 17.7305 58.0547 20.0566 58.0547 23.0684V25.1426H45.9434C46.1074 26.3848 46.5996 27.3809 47.4199 28.1309C48.252 28.8809 49.3008 29.2559 50.5664 29.2559C52.5234 29.2559 54.0527 28.5469 55.1543 27.1289L57.6504 29.9238C56.8887 31.002 55.8574 31.8457 54.5566 32.4551C53.2559 33.0527 51.8145 33.3516 50.2324 33.3516ZM49.6523 17.7422C48.6445 17.7422 47.8242 18.082 47.1914 18.7617C46.5703 19.4414 46.1719 20.4141 45.9961 21.6797H53.0625V21.2754C53.0391 20.1504 52.7344 19.2832 52.1484 18.6738C51.5625 18.0527 50.7305 17.7422 49.6523 17.7422ZM68.8652 29.2559C69.8027 29.2559 70.5645 28.998 71.1504 28.4824C71.7363 27.9668 72.041 27.2812 72.0645 26.4258H76.8281C76.8164 27.7148 76.4648 28.8984 75.7734 29.9766C75.082 31.043 74.1328 31.875 72.9258 32.4727C71.7305 33.0586 70.4062 33.3516 68.9531 33.3516C66.2344 33.3516 64.0898 32.4902 62.5195 30.7676C60.9492 29.0332 60.1641 26.6426 60.1641 23.5957V23.2617C60.1641 20.332 60.9434 17.9941 62.502 16.248C64.0605 14.502 66.1992 13.6289 68.918 13.6289C71.2969 13.6289 73.2012 14.3086 74.6309 15.668C76.0723 17.0156 76.8047 18.8145 76.8281 21.0645H72.0645C72.041 20.0801 71.7363 19.2832 71.1504 18.6738C70.5645 18.0527 69.791 17.7422 68.8301 17.7422C67.6465 17.7422 66.75 18.1758 66.1406 19.043C65.543 19.8984 65.2441 21.293 65.2441 23.2266V23.7539C65.2441 25.7109 65.543 27.1172 66.1406 27.9727C66.7383 28.8281 67.6465 29.2559 68.8652 29.2559ZM78.9375 23.3145C78.9375 21.4277 79.3008 19.7461 80.0273 18.2695C80.7539 16.793 81.7969 15.6504 83.1562 14.8418C84.5273 14.0332 86.1152 13.6289 87.9199 13.6289C90.4863 13.6289 92.5781 14.4141 94.1953 15.9844C95.8242 17.5547 96.7324 19.6875 96.9199 22.3828L96.9551 23.6836C96.9551 26.6016 96.1406 28.9453 94.5117 30.7148C92.8828 32.4727 90.6973 33.3516 87.9551 33.3516C85.2129 33.3516 83.0215 32.4727 81.3809 30.7148C79.752 28.957 78.9375 26.5664 78.9375 23.543V23.3145ZM84.0176 23.6836C84.0176 25.4883 84.3574 26.8711 85.0371 27.832C85.7168 28.7812 86.6895 29.2559 87.9551 29.2559C89.1855 29.2559 90.1465 28.7871 90.8379 27.8496C91.5293 26.9004 91.875 25.3887 91.875 23.3145C91.875 21.5449 91.5293 20.1738 90.8379 19.2012C90.1465 18.2285 89.1738 17.7422 87.9199 17.7422C86.6777 17.7422 85.7168 18.2285 85.0371 19.2012C84.3574 20.1621 84.0176 21.6562 84.0176 23.6836ZM104.76 13.9805L104.918 16.1777C106.277 14.4785 108.1 13.6289 110.385 13.6289C112.4 13.6289 113.9 14.2207 114.885 15.4043C115.869 16.5879 116.373 18.3574 116.396 20.7129V33H111.316V20.8359C111.316 19.7578 111.082 18.9785 110.613 18.498C110.145 18.0059 109.365 17.7598 108.275 17.7598C106.846 17.7598 105.773 18.3691 105.059 19.5879V33H99.9785V13.9805H104.76ZM119.473 23.3496C119.473 20.3848 120.135 18.0234 121.459 16.2656C122.795 14.5078 124.617 13.6289 126.926 13.6289C128.777 13.6289 130.307 14.3203 131.514 15.7031V6H136.611V33H132.023L131.777 30.9785C130.512 32.5605 128.883 33.3516 126.891 33.3516C124.652 33.3516 122.854 32.4727 121.494 30.7148C120.146 28.9453 119.473 26.4902 119.473 23.3496ZM124.553 23.7188C124.553 25.5 124.863 26.8652 125.484 27.8145C126.105 28.7637 127.008 29.2383 128.191 29.2383C129.762 29.2383 130.869 28.5762 131.514 27.252V19.7461C130.881 18.4219 129.785 17.7598 128.227 17.7598C125.777 17.7598 124.553 19.7461 124.553 23.7188ZM150.85 27.7441C150.85 27.123 150.539 26.6367 149.918 26.2852C149.309 25.9219 148.324 25.5996 146.965 25.3184C142.441 24.3691 140.18 22.4473 140.18 19.5527C140.18 17.8652 140.877 16.459 142.271 15.334C143.678 14.1973 145.512 13.6289 147.773 13.6289C150.188 13.6289 152.115 14.1973 153.557 15.334C155.01 16.4707 155.736 17.9473 155.736 19.7637H150.656C150.656 19.0371 150.422 18.4395 149.953 17.9707C149.484 17.4902 148.752 17.25 147.756 17.25C146.9 17.25 146.238 17.4434 145.77 17.8301C145.301 18.2168 145.066 18.709 145.066 19.3066C145.066 19.8691 145.33 20.3262 145.857 20.6777C146.396 21.0176 147.299 21.3164 148.564 21.5742C149.83 21.8203 150.896 22.1016 151.764 22.418C154.447 23.4023 155.789 25.1074 155.789 27.5332C155.789 29.2676 155.045 30.6738 153.557 31.752C152.068 32.8184 150.146 33.3516 147.791 33.3516C146.197 33.3516 144.779 33.0703 143.537 32.5078C142.307 31.9336 141.34 31.1543 140.637 30.1699C139.934 29.1738 139.582 28.1016 139.582 26.9531H144.398C144.445 27.8555 144.779 28.5469 145.4 29.0273C146.021 29.5078 146.854 29.748 147.896 29.748C148.869 29.748 149.602 29.5664 150.094 29.2031C150.598 28.8281 150.85 28.3418 150.85 27.7441Z" fill="black"/>
<rect x="11.4805" y="5" width="10" height="30" rx="5" transform="rotate(22.5 11.4805 5)" fill="#9400D3"/>
</svg>
