<svg width="20" height="20" viewBox="0 0 20 20" fill="none" xmlns="http://www.w3.org/2000/svg">
<path d="M6.71378 16.336L6.30755 17.0405C6.26385 17.1126 6.19364 17.1647 6.11198 17.1856C6.03032 17.2066 5.94369 17.1947 5.87067 17.1526C5.79764 17.1105 5.74402 17.0414 5.7213 16.9602C5.69858 16.879 5.70856 16.7921 5.74911 16.7182L6.15533 16.014C6.19803 15.94 6.2684 15.8859 6.35096 15.8637C6.39184 15.8527 6.43448 15.8499 6.47644 15.8554C6.51841 15.8609 6.55889 15.8746 6.59555 15.8958C6.63222 15.9169 6.66437 15.9451 6.69015 15.9787C6.71594 16.0122 6.73486 16.0505 6.74584 16.0914C6.75682 16.1323 6.75963 16.1749 6.75413 16.2169C6.74863 16.2589 6.73492 16.2993 6.71378 16.336V16.336ZM10 16.8069C9.91449 16.8069 9.8325 16.8409 9.77204 16.9014C9.71158 16.9618 9.67759 17.0438 9.67754 17.1293V17.9433C9.67754 18.0288 9.71151 18.1109 9.77198 18.1713C9.83245 18.2318 9.91447 18.2658 9.99999 18.2658C10.0855 18.2658 10.1675 18.2318 10.228 18.1713C10.2885 18.1109 10.3224 18.0288 10.3224 17.9433V17.1291C10.3224 17.0868 10.3141 17.0449 10.2979 17.0058C10.2817 16.9667 10.2579 16.9311 10.228 16.9012C10.198 16.8713 10.1625 16.8476 10.1234 16.8314C10.0843 16.8152 10.0423 16.8069 10 16.8069H10ZM13.8449 16.014C13.8019 15.9403 13.7316 15.8867 13.6492 15.8648C13.5668 15.8429 13.4791 15.8545 13.4052 15.8971C13.3313 15.9397 13.2774 16.0098 13.2551 16.0921C13.2328 16.1744 13.244 16.2622 13.2862 16.3362L13.6929 17.0404C13.7359 17.114 13.8062 17.1675 13.8885 17.1893C13.9708 17.2111 14.0585 17.1995 14.1322 17.1569C14.206 17.1143 14.2599 17.0443 14.2822 16.9621C14.3044 16.8799 14.2933 16.7922 14.2511 16.7182L13.8449 16.014ZM20 10C20 11.9778 19.4135 13.9112 18.3147 15.5557C17.2159 17.2002 15.6541 18.4819 13.8268 19.2388C11.9996 19.9957 9.98891 20.1937 8.0491 19.8078C6.10929 19.422 4.32746 18.4696 2.92894 17.0711C1.53041 15.6725 0.578004 13.8907 0.192152 11.9509C-0.1937 10.0111 0.00433286 8.00043 0.761209 6.17316C1.51809 4.3459 2.79981 2.78412 4.4443 1.6853C6.08879 0.586489 8.02219 0 10 0C12.6522 0 15.1957 1.05357 17.0711 2.92893C18.9464 4.80429 20 7.34783 20 10ZM19.0724 10C19.0724 8.20569 18.5404 6.45168 17.5435 4.95976C16.5467 3.46785 15.1298 2.30504 13.4721 1.61838C11.8143 0.931719 9.99024 0.752046 8.2304 1.10208C6.47057 1.45212 4.85406 2.31614 3.58527 3.58489C2.31649 4.85364 1.45243 6.47014 1.10235 8.22996C0.752273 9.98978 0.931901 11.8139 1.61852 13.4716C2.30514 15.1294 3.46792 16.5463 4.95981 17.5432C6.4517 18.5401 8.2057 19.0722 10 19.0722C11.1914 19.0722 12.3711 18.8376 13.4719 18.3817C14.5726 17.9258 15.5727 17.2575 16.4152 16.4151C17.2576 15.5727 17.9259 14.5725 18.3818 13.4718C18.8378 12.3711 19.0724 11.1914 19.0724 10ZM15.8959 6.59589C15.9386 6.66994 16.009 6.72399 16.0916 6.74614C16.1742 6.76829 16.2622 6.75673 16.3362 6.714L17.0407 6.30733C17.0775 6.28626 17.1098 6.25812 17.1357 6.22453C17.1616 6.19095 17.1807 6.15257 17.1918 6.11161C17.2028 6.07065 17.2057 6.0279 17.2002 5.98583C17.1947 5.94376 17.181 5.90318 17.1598 5.86643C17.1386 5.82968 17.1103 5.79748 17.0766 5.77167C17.043 5.74586 17.0045 5.72695 16.9635 5.71603C16.9225 5.70511 16.8798 5.70239 16.8377 5.70803C16.7956 5.71367 16.7551 5.72755 16.7184 5.74889L16.014 6.15556C15.9773 6.17671 15.9452 6.20488 15.9194 6.23846C15.8936 6.27204 15.8747 6.31037 15.8637 6.35126C15.8528 6.39215 15.85 6.4348 15.8555 6.47677C15.861 6.51875 15.8747 6.55922 15.8959 6.59589ZM14.1331 2.84133C14.059 2.7986 13.971 2.78705 13.8884 2.80923C13.8058 2.8314 13.7354 2.88547 13.6927 2.95955L13.2862 3.664C13.2648 3.70069 13.2509 3.74125 13.2452 3.78334C13.2395 3.82543 13.2422 3.86823 13.2532 3.90927C13.2641 3.95032 13.283 3.9888 13.3088 4.02252C13.3346 4.05624 13.3669 4.08452 13.4037 4.10574C13.4405 4.12696 13.4811 4.14071 13.5232 4.14619C13.5653 4.15167 13.6081 4.14877 13.6491 4.13767C13.6901 4.12657 13.7285 4.10748 13.7621 4.08149C13.7957 4.05551 13.8238 4.02315 13.8449 3.98626L14.2513 3.28178C14.2941 3.20769 14.3056 3.11967 14.2834 3.03707C14.2613 2.95447 14.2072 2.88406 14.1331 2.84133ZM10 3.19311C10.0423 3.19313 10.0843 3.18481 10.1234 3.16863C10.1625 3.15245 10.198 3.12872 10.228 3.0988C10.2579 3.06887 10.2817 3.03335 10.2979 2.99424C10.3141 2.95514 10.3224 2.91322 10.3224 2.87089V2.05667C10.3224 1.97118 10.2885 1.88919 10.228 1.82874C10.1676 1.76829 10.0856 1.73433 10.0001 1.73433C9.91463 1.73433 9.83264 1.76829 9.77219 1.82874C9.71174 1.88919 9.67778 1.97118 9.67778 2.05667V2.87089C9.67778 2.9132 9.68611 2.9551 9.70231 2.9942C9.7185 3.03329 9.74224 3.06881 9.77216 3.09873C9.80208 3.12865 9.8376 3.15239 9.87669 3.16858C9.91579 3.18478 9.95769 3.19311 10 3.19311ZM2.87134 10.3227C2.95685 10.3226 3.03885 10.2886 3.09927 10.2281C3.1597 10.1676 3.19362 10.0855 3.19356 10C3.1935 9.91448 3.15947 9.83249 3.09896 9.77206C3.03845 9.71163 2.95641 9.67772 2.87089 9.67778H2.05667C1.97115 9.67778 1.88914 9.71175 1.82867 9.77222C1.7682 9.83269 1.73423 9.9147 1.73423 10.0002C1.73423 10.0857 1.7682 10.1678 1.82867 10.2282C1.88914 10.2887 1.97115 10.3227 2.05667 10.3227H2.87134ZM3.664 13.2862L2.95978 13.6924C2.8857 13.7352 2.83162 13.8056 2.80945 13.8882C2.78728 13.9708 2.79883 14.0588 2.84156 14.1329C2.88429 14.207 2.9547 14.261 3.0373 14.2832C3.1199 14.3054 3.20792 14.2938 3.282 14.2511L3.98623 13.8449C4.06031 13.8022 4.11438 13.7317 4.13656 13.6491C4.15873 13.5665 4.14718 13.4785 4.10445 13.4044C4.06172 13.3304 3.99131 13.2763 3.90871 13.2541C3.82611 13.2319 3.73809 13.2435 3.664 13.2862ZM3.98645 6.15533L3.28223 5.74889C3.20814 5.70616 3.12012 5.69461 3.03752 5.71678C2.95492 5.73895 2.88451 5.79303 2.84178 5.86711C2.79905 5.94119 2.7875 6.02922 2.80967 6.11182C2.83184 6.19442 2.88592 6.26482 2.96 6.30755L3.66423 6.71378C3.73826 6.75615 3.82607 6.76745 3.90842 6.7452C3.99077 6.72296 4.06094 6.66898 4.10358 6.5951C4.14621 6.52121 4.15782 6.43344 4.13586 6.35102C4.11391 6.26859 4.06018 6.19822 3.98645 6.15533ZM6.714 3.664L6.30778 2.95955C6.26501 2.8856 6.19466 2.83163 6.11215 2.80948C6.02964 2.78733 5.94171 2.79881 5.86765 2.84141C5.7936 2.884 5.73946 2.95423 5.71712 3.03669C5.69477 3.11914 5.70605 3.2071 5.74847 3.28125L6.15533 3.98644C6.19809 4.06053 6.26853 4.11459 6.35115 4.13674C6.43377 4.15889 6.5218 4.14731 6.59589 4.10455C6.66997 4.0618 6.72404 3.99136 6.74619 3.90874C6.76834 3.82612 6.75676 3.73808 6.714 3.664H6.714ZM17.0407 13.6924L16.3362 13.2862C16.2622 13.2435 16.1742 13.232 16.0917 13.2541C16.0091 13.2763 15.9387 13.3302 15.8959 13.4042C15.8532 13.4782 15.8415 13.5662 15.8635 13.6488C15.8856 13.7314 15.9395 13.8018 16.0134 13.8447L16.7182 14.2511C16.7923 14.2936 16.8802 14.3049 16.9626 14.2827C17.045 14.2605 17.1153 14.2065 17.158 14.1325C17.2006 14.0586 17.2123 13.9707 17.1903 13.8882C17.1683 13.8057 17.1145 13.7353 17.0407 13.6924ZM17.1289 9.67733C17.0433 9.67739 16.9613 9.71144 16.9008 9.772C16.8403 9.83255 16.8064 9.91465 16.8064 10.0002C16.8065 10.0858 16.8405 10.1679 16.9011 10.2283C16.9617 10.2888 17.0438 10.3227 17.1293 10.3227H17.9436C18.0291 10.3227 18.1111 10.2887 18.1716 10.2282C18.232 10.1678 18.266 10.0858 18.266 10.0002C18.266 9.91472 18.232 9.8327 18.1716 9.77223C18.1111 9.71176 18.0291 9.67779 17.9436 9.67779L17.1289 9.67733ZM10.359 10.9875L13.4403 14.0688L14.0688 13.4403L10.9875 10.359C11.0807 10.1122 11.0764 9.83926 10.9755 9.59554C10.8746 9.35182 10.6847 9.15566 10.4444 9.04694V4.69032H9.55553V9.04697C9.30737 9.15965 9.1127 9.36434 9.01262 9.61785C8.91253 9.87136 8.91487 10.1538 9.01913 10.4056C9.12339 10.6575 9.32142 10.8589 9.57141 10.9675C9.82141 11.076 10.1038 11.0832 10.359 10.9875Z" fill="black"/>
</svg>
