<svg width="200" height="200" viewBox="0 0 200 200" fill="none" xmlns="http://www.w3.org/2000/svg">
<path fill-rule="evenodd" clip-rule="evenodd" d="M100 200C44.75 200 0 155.25 0 100C0 44.75 44.75 0 100 0C155.25 0 200 44.75 200 100C200 155.25 155.25 200 100 200ZM145.25 67.25C142.251 64.2505 137.5 64.2505 134.501 67.25L86.7509 116.25L65.5 94.2496C62.5005 91.2501 57.7504 91.2501 54.7509 94.2496C51.7513 97.249 51.7514 102.25 54.7509 105.25L81.5018 132.751C84.5013 135.75 89.2513 135.75 92.2509 132.751L145.501 78.2509C148.251 75.2497 148.251 70.2482 145.25 67.2487L145.25 67.25Z" fill="black"/>
</svg>
