<svg width="50" height="50" viewBox="0 0 50 50" fill="none" xmlns="http://www.w3.org/2000/svg">
<path d="M48.688 38.5733L38.5678 31.8238C37.2835 30.9742 35.562 31.2537 34.6125 32.4663L31.6646 36.2568C31.2858 36.7564 30.5971 36.9013 30.049 36.5968L29.4883 36.2876C27.6294 35.2743 25.3164 34.0128 20.6563 29.3507C15.9961 24.6885 14.7322 22.3737 13.7189 20.5181L13.4115 19.9573C13.1028 19.4093 13.245 18.7176 13.7447 18.3357L17.5324 15.3885C18.7444 14.4388 19.0243 12.7177 18.1757 11.4329L11.4267 1.31201C10.557 0.00371644 8.81214 -0.389027 7.46576 0.420383L3.23387 2.96267C1.90418 3.74444 0.92864 5.01056 0.511807 6.4957C-1.01209 12.0486 0.134323 21.632 14.2506 35.751C25.4798 46.9801 33.8394 49.9999 39.5852 49.9999C40.9076 50.0055 42.2248 49.8335 43.5013 49.4883C44.9867 49.0719 46.2529 48.0962 47.0341 46.766L49.5788 42.5364C50.3893 41.1896 49.9968 39.4435 48.688 38.5733ZM48.143 41.6814L45.6043 45.9136C45.0433 46.8736 44.1326 47.5795 43.0629 47.8834C37.937 49.2908 28.9817 48.1251 15.4295 34.5719C1.87733 21.0188 0.711777 12.0636 2.11909 6.93658C2.42334 5.86557 3.13007 4.95363 4.09126 4.39176L8.32315 1.85279C8.90734 1.50126 9.66465 1.67165 10.042 2.23938L13.7082 7.74394L16.7853 12.3594C17.1538 12.9167 17.0327 13.6636 16.507 14.076L12.7184 17.0232C11.5654 17.9049 11.2362 19.5002 11.9461 20.7663L12.2469 21.3129C13.3118 23.2661 14.6357 25.6959 19.4692 30.5289C24.3026 35.3618 26.7315 36.6859 28.6836 37.7508L29.231 38.0524C30.4969 38.7622 32.0922 38.4331 32.9738 37.28L35.9208 33.4912C36.3333 32.9657 37.0798 32.8447 37.6373 33.2129L47.7566 39.9624C48.3247 40.3395 48.495 41.0972 48.143 41.6814Z" fill="black"/>
<path d="M28.3318 8.33647C36.1511 8.34516 42.4876 14.6823 42.4964 22.5021C42.4964 22.9623 42.8694 23.3353 43.3296 23.3353C43.7898 23.3353 44.1628 22.9623 44.1628 22.5021C44.1531 13.7622 37.0711 6.67957 28.3318 6.67C27.8717 6.67 27.4987 7.04302 27.4987 7.50324C27.4987 7.96345 27.8717 8.33647 28.3318 8.33647Z" fill="black"/>
<path d="M28.3318 13.3361C33.3912 13.342 37.4912 17.4423 37.4972 22.5021C37.4972 22.9623 37.8703 23.3353 38.3304 23.3353C38.7905 23.3353 39.1635 22.9623 39.1635 22.5021C39.1566 16.5223 34.3111 11.6764 28.3318 11.6696C27.8717 11.6696 27.4987 12.0426 27.4987 12.5028C27.4987 12.9631 27.8717 13.3361 28.3318 13.3361Z" fill="black"/>
<path d="M28.3318 18.3357C30.6315 18.3384 32.4951 20.2022 32.4979 22.5021C32.4979 22.9623 32.871 23.3353 33.3311 23.3353C33.7912 23.3353 34.1643 22.9623 34.1643 22.5021C34.1606 19.2822 31.5515 16.6728 28.3318 16.6692C27.8717 16.6692 27.4987 17.0422 27.4987 17.5025C27.4987 17.9627 27.8717 18.3357 28.3318 18.3357Z" fill="black"/>
</svg>
