<svg width="95" height="140" viewBox="0 0 95 140" fill="none" xmlns="http://www.w3.org/2000/svg">
<path d="M47.379 61.3053C32.0527 61.3053 19.5264 73.8316 19.5264 89.1579C19.5264 98.8843 30.2843 119.663 39.2737 135.284C40.8948 138.232 43.9895 140 47.379 140C50.7685 140 53.7158 138.232 55.4843 135.284C64.4737 119.663 75.2316 99.0316 75.2316 89.1579C75.2316 73.8316 62.7053 61.3053 47.379 61.3053ZM49.0001 131.6C48.5579 132.484 47.6737 132.484 47.379 132.484C47.0843 132.484 46.2001 132.337 45.758 131.6C33.9685 111.263 27.0422 95.3474 27.0422 89.3053C27.0422 78.1053 36.179 68.9685 47.379 68.9685C58.579 68.9685 67.7158 78.1053 67.7158 89.3053C67.7158 95.3474 60.7895 111.263 49.0001 131.6Z" fill="black"/>
<path d="M47.3789 76.9263C40.6 76.9263 35.1473 82.3789 35.1473 89.1579C35.1473 95.9368 40.6 101.537 47.3789 101.537C54.1579 101.537 59.6105 96.0842 59.6105 89.1579C59.6105 82.2315 54.1579 76.9263 47.3789 76.9263ZM47.3789 94.021C44.7263 94.021 42.5158 91.8105 42.5158 89.1579C42.5158 86.5052 44.7263 84.2947 47.3789 84.2947C50.0316 84.2947 52.2421 86.5052 52.2421 89.1579C52.2421 91.9579 50.0316 94.021 47.3789 94.021Z" fill="black"/>
<path d="M93.6527 19.1579C81.2737 6.77895 64.9158 0 47.379 0C29.8421 0 13.3368 6.77895 1.10526 19.1579C-0.368421 20.6316 -0.368421 22.9895 1.10526 24.4632C1.84211 25.2 2.72632 25.4947 3.75789 25.4947C4.78947 25.4947 5.67369 25.2 6.41053 24.4632C17.3158 13.5579 31.7579 7.51579 47.379 7.51579C62.8527 7.51579 77.4421 13.5579 88.3474 24.4632C89.8211 25.9369 92.179 25.9369 93.6527 24.4632C95.1264 22.9895 95.1264 20.6316 93.6527 19.1579Z" fill="black"/>
<path d="M47.379 19.6C35.1474 19.6 23.6527 24.3158 14.9579 33.0105C13.4842 34.4842 13.4842 36.8421 14.9579 38.3158C16.4316 39.7895 18.7895 39.7895 20.2632 38.3158C27.4842 31.0947 37.2106 27.1158 47.379 27.1158C57.5474 27.1158 67.4211 31.2421 74.4948 38.4631C75.2316 39.2 76.2632 39.6421 77.1474 39.6421C78.0316 39.6421 79.0632 39.3473 79.8 38.6105C81.2737 37.1368 81.2737 34.7789 79.8 33.3052C71.4 24.6105 59.4632 19.6 47.379 19.6Z" fill="black"/>
<path d="M34.1159 52.1685C41.1896 45.0948 53.5685 45.0948 60.7896 52.1685C61.5264 52.9053 62.4106 53.2001 63.4422 53.2001C64.4738 53.2001 65.358 52.9053 66.0948 52.1685C67.5685 50.6948 67.5685 48.3369 66.0948 46.8632C61.0843 41.8527 54.4527 39.2001 47.5264 39.2001C40.6001 39.2001 33.9685 42.0001 28.958 46.8632C27.4843 48.3369 27.4843 50.6948 28.958 52.1685C30.2843 53.6422 32.6422 53.6422 34.1159 52.1685Z" fill="black"/>
</svg>
