<svg width="23" height="22" viewBox="0 0 23 22" fill="none" xmlns="http://www.w3.org/2000/svg">
<path d="M19.875 13.5H18.5704L16.7292 10.8698C16.2387 10.1685 15.4346 9.75 14.5785 9.75H11.625V7.125C11.625 6.91808 11.4574 6.75 11.25 6.75H0.375C0.16758 6.75 0 6.91808 0 7.125V18.375C0 18.5819 0.16758 18.75 0.375 18.75H3.0345C3.01357 18.8737 3.00001 18.9986 3.00001 19.125C3.00001 20.3658 4.00917 21.375 5.25001 21.375C6.49086 21.375 7.50001 20.3658 7.50001 19.125C7.50001 18.9986 7.48645 18.8737 7.46553 18.75H16.1595C16.1386 18.8737 16.125 18.9986 16.125 19.125C16.125 20.3658 17.1342 21.375 18.375 21.375C19.6159 21.375 20.625 20.3658 20.625 19.125C20.625 18.9986 20.6115 18.8737 20.5906 18.75H22.1251C22.3325 18.75 22.5001 18.5819 22.5001 18.375V16.125C22.5001 14.6776 21.3222 13.5 19.8751 13.5H19.875ZM21.4062 15.0495C21.4246 15.0758 21.441 15.1036 21.4579 15.1306C21.5006 15.198 21.5389 15.2685 21.5726 15.3417C21.5865 15.3713 21.6007 15.4006 21.6131 15.4312C21.6528 15.5302 21.6866 15.6326 21.7087 15.7391C21.7093 15.7425 21.7108 15.7455 21.7113 15.7488V15.75H20.25V14.2878H20.2512C20.2545 14.2885 20.2575 14.2897 20.2609 14.2905C20.3674 14.3129 20.4698 14.3468 20.5688 14.3861C20.5991 14.3985 20.6287 14.4127 20.6583 14.4266C20.7315 14.4604 20.802 14.4986 20.8694 14.5413C20.8964 14.5585 20.9242 14.5746 20.9504 14.593C21.1276 14.7184 21.2816 14.8724 21.4061 15.0495L21.4062 15.0495ZM0.749871 7.49983H10.8749V15.7498H0.749871V7.49983ZM6.74987 19.1248C6.74987 19.952 6.07706 20.6248 5.24987 20.6248C4.42269 20.6248 3.74987 19.952 3.74987 19.1248C3.74987 18.9978 3.76594 18.8724 3.79825 18.7498H4.19385C4.15183 18.8675 4.12487 18.9929 4.12487 19.1248C4.12487 19.7451 4.6296 20.2498 5.24987 20.2498C5.87014 20.2498 6.37487 19.7451 6.37487 19.1248C6.37487 18.9929 6.34792 18.8675 6.3059 18.7498H6.70149C6.7338 18.8724 6.74987 18.9978 6.74987 19.1248ZM5.62487 19.1248C5.62487 19.3314 5.45679 19.4998 5.24987 19.4998C5.04295 19.4998 4.87487 19.3314 4.87487 19.1248C4.87487 18.9182 5.04295 18.7498 5.24987 18.7498C5.45679 18.7498 5.62487 18.9182 5.62487 19.1248ZM19.8749 19.1248C19.8749 19.952 19.2021 20.6248 18.3749 20.6248C17.5477 20.6248 16.8749 19.952 16.8749 19.1248C16.8749 18.9978 16.8909 18.8724 16.9233 18.7498H17.3188C17.2768 18.8675 17.2499 18.9929 17.2499 19.1248C17.2499 19.7451 17.7546 20.2498 18.3749 20.2498C18.9951 20.2498 19.4999 19.7451 19.4999 19.1248C19.4999 18.9929 19.4729 18.8675 19.4309 18.7498H19.8265C19.8588 18.8724 19.8749 18.9978 19.8749 19.1248ZM18.7499 19.1248C18.7499 19.3314 18.5818 19.4998 18.3749 19.4998C18.168 19.4998 17.9999 19.3314 17.9999 19.1248C17.9999 18.9182 18.168 18.7498 18.3749 18.7498C18.5818 18.7498 18.7499 18.9182 18.7499 19.1248ZM20.0917 17.9998H0.749829V16.4998H11.2498C11.4572 16.4998 11.6248 16.3317 11.6248 16.1248V10.4998H14.5783C15.1899 10.4998 15.7641 10.7987 16.1143 11.2997L18.0676 14.0901C18.1378 14.1902 18.2526 14.2498 18.3748 14.2498H19.4998V16.1248C19.4998 16.3317 19.6674 16.4998 19.8748 16.4998H21.7498V17.9998L20.0917 17.9998Z" fill="black"/>
<path d="M13.875 11.25H12.75C12.5426 11.25 12.375 11.4181 12.375 11.625V14.25C12.375 14.4569 12.5426 14.625 12.75 14.625H16.5C16.7075 14.625 16.875 14.4569 16.875 14.25C16.875 12.5958 15.5292 11.25 13.875 11.25ZM13.125 13.875V12H13.875C14.988 12 15.9146 12.8123 16.0939 13.875H13.125Z" fill="black"/>
<path d="M14.6834 8.8263C14.7526 8.93428 14.8718 8.9999 15 8.9999C15.1283 8.9999 15.2474 8.93428 15.3166 8.8263L17.1953 5.87382C17.7218 5.04664 18 4.09075 18 3.10971V2.99989C18 2.18123 17.6767 1.4167 17.0888 0.846656C16.5018 0.276613 15.7227 -0.0230447 14.9081 0.0013839C13.3046 0.0494311 12 1.44396 12 3.10969C12 4.09073 12.2782 5.04615 12.8047 5.87346L14.6834 8.8263ZM14.9307 0.751149C14.9543 0.750312 14.9771 0.749977 15.0007 0.749977C15.5891 0.749977 16.1433 0.974309 16.5666 1.38478C17.0074 1.81268 17.25 2.38605 17.25 2.99998V3.1098C17.25 3.94753 17.0123 4.7643 16.5623 5.47115L15 7.92639L13.4377 5.47132C12.9877 4.76434 12.75 3.94804 12.75 3.1098C12.75 1.84534 13.728 0.787156 14.9307 0.751155L14.9307 0.751149Z" fill="black"/>
<path d="M15 4.5C15.8272 4.5 16.5 3.82719 16.5 3C16.5 2.17281 15.8272 1.5 15 1.5C14.1728 1.5 13.5 2.17281 13.5 3C13.5 3.82719 14.1728 4.5 15 4.5ZM15 2.25C15.4137 2.25 15.75 2.58633 15.75 3C15.75 3.41367 15.4137 3.75 15 3.75C14.5863 3.75 14.25 3.41367 14.25 3C14.25 2.58633 14.5863 2.25 15 2.25Z" fill="black"/>
<path d="M2.625 8.25H3.375V15H2.625V8.25Z" fill="black"/>
<path d="M4.5 8.25H5.24998V15H4.5V8.25Z" fill="black"/>
<path d="M6.375 8.25H7.12498V15H6.375V8.25Z" fill="black"/>
<path d="M8.25 8.25H9V15H8.25V8.25Z" fill="black"/>
<path d="M6 5.25H6.74998V6H6V5.25Z" fill="black"/>
<path d="M6 3.75H6.74998V4.5H6V3.75Z" fill="black"/>
<path d="M6 2.25H6.74998V3.00001H6V2.25Z" fill="black"/>
<path d="M7.5 2.25H8.25V3.00001H7.5V2.25Z" fill="black"/>
<path d="M9 2.25H9.75V3.00001H9V2.25Z" fill="black"/>
<path d="M10.5 2.25H11.25V3.00001H10.5V2.25Z" fill="black"/>
<path d="M18.75 2.25H19.5V3.00001H18.75V2.25Z" fill="black"/>
<path d="M20.25 2.25H21V3.00001H20.25V2.25Z" fill="black"/>
<path d="M20.25 3.75H21V4.5H20.25V3.75Z" fill="black"/>
<path d="M20.25 5.25H21V6H20.25V5.25Z" fill="black"/>
<path d="M20.25 6.75H21V7.5H20.25V6.75Z" fill="black"/>
<path d="M20.25 8.25H21V8.99998H20.25V8.25Z" fill="black"/>
<path d="M20.25 9.75H21V10.5H20.25V9.75Z" fill="black"/>
<path d="M20.25 11.25H21V12H20.25V11.25Z" fill="black"/>
<path d="M12.75 15.375H13.875V16.125H12.75V15.375Z" fill="black"/>
</svg>
