<svg width="227" height="154" viewBox="0 0 227 154" fill="none" xmlns="http://www.w3.org/2000/svg">
<path fill-rule="evenodd" clip-rule="evenodd" d="M7.30045 0H219.561C223.583 0 226.864 3.28402 226.864 7.30342V146.697C226.864 150.719 223.583 154 219.561 154H7.30045C3.28104 154 0 150.719 0 146.697V7.30342C0 3.28402 3.28104 0 7.30045 0ZM25.4711 115.435H65.549V127.927H25.4711V115.435ZM165.999 115.435H201.39V127.927H165.999V115.435ZM119.677 115.435H155.069V127.927H119.677V115.435ZM73.3559 115.435H108.748V127.927H73.3559V115.435ZM23.7565 21.7794H99.7471V74.3473H23.7565V21.7794Z" fill="#2B2E32"/>
</svg>
