<svg width="117" height="65" viewBox="0 0 117 65" fill="none" xmlns="http://www.w3.org/2000/svg">
<g filter="url(#filter0_d)">
<path fill-rule="evenodd" clip-rule="evenodd" d="M96.9706 44.8823C96.9706 42.2265 94.8176 40.0735 92.1618 40.0735C89.5059 40.0735 87.3529 42.2265 87.3529 44.8823C87.3529 47.5381 89.5059 49.6911 92.1618 49.6911C94.8176 49.6911 96.9706 47.5381 96.9706 44.8823ZM80.9412 44.8823C80.9412 38.6854 85.9648 33.6617 92.1618 33.6617C98.3587 33.6617 103.382 38.6854 103.382 44.8823C103.382 51.0793 98.3587 56.1029 92.1618 56.1029C85.9648 56.1029 80.9412 51.0793 80.9412 44.8823ZM34.456 44.8823C34.456 42.2265 32.303 40.0735 29.6472 40.0735C26.9913 40.0735 24.8383 42.2265 24.8383 44.8823C24.8383 47.5381 26.9913 49.6911 29.6472 49.6911C32.303 49.6911 34.456 47.5381 34.456 44.8823ZM18.4266 44.8823C18.4266 38.6854 23.4502 33.6617 29.6472 33.6617C35.8441 33.6617 40.8677 38.6854 40.8677 44.8823C40.8677 51.0793 35.8441 56.1029 29.6472 56.1029C23.4502 56.1029 18.4266 51.0793 18.4266 44.8823Z" fill="black"/>
<path fill-rule="evenodd" clip-rule="evenodd" d="M15.2208 44.8822H7.20607C5.43552 44.8822 4.0002 43.4469 4.0002 41.6764V22.4411C4.0002 20.6705 5.43552 19.2352 7.20607 19.2352H87.353C87.5047 19.2352 87.6562 19.246 87.8064 19.2674L110.248 22.4733C111.827 22.699 113 24.0516 113 25.647V41.6764C113 43.4469 111.565 44.8822 109.794 44.8822H106.588C106.588 36.9147 100.129 30.4558 92.1618 30.4558C84.1943 30.4558 77.7354 36.9147 77.7354 44.8822H44.0737C44.0737 36.9147 37.6147 30.4558 29.6472 30.4558C21.6797 30.4558 15.2208 36.9147 15.2208 44.8822Z" fill="black"/>
<path fill-rule="evenodd" clip-rule="evenodd" d="M71.3236 6.41175H27.7815L9.47299 24.708C8.22102 25.96 6.19117 25.96 4.93919 24.708C3.68723 23.4561 3.68723 21.4262 4.93919 20.1742L24.1745 0.93898C24.7757 0.337761 25.5911 4.28756e-08 26.4414 4.21055e-08L72.9266 0C73.9356 -9.14e-10 74.8858 0.475092 75.4913 1.28235L89.9177 20.5176C90.9801 21.9341 90.693 23.9435 89.2765 25.0058C87.8601 26.0682 85.8506 25.7811 84.7883 24.3647L71.3236 6.41175Z" fill="black"/>
</g>
<defs>
<filter id="filter0_d" x="0" y="0" width="117" height="64.1029" filterUnits="userSpaceOnUse" color-interpolation-filters="sRGB">
<feFlood flood-opacity="0" result="BackgroundImageFix"/>
<feColorMatrix in="SourceAlpha" type="matrix" values="0 0 0 0 0 0 0 0 0 0 0 0 0 0 0 0 0 0 127 0" result="hardAlpha"/>
<feOffset dy="4"/>
<feGaussianBlur stdDeviation="2"/>
<feComposite in2="hardAlpha" operator="out"/>
<feColorMatrix type="matrix" values="0 0 0 0 0 0 0 0 0 0 0 0 0 0 0 0 0 0 0.25 0"/>
<feBlend mode="normal" in2="BackgroundImageFix" result="effect1_dropShadow"/>
<feBlend mode="normal" in="SourceGraphic" in2="effect1_dropShadow" result="shape"/>
</filter>
</defs>
</svg>
