<svg width="108" height="75" viewBox="0 0 108 75" fill="none" xmlns="http://www.w3.org/2000/svg">
<path d="M32.7273 58.1818H29.8864C29.4318 54.0909 27.2727 50.4545 24.0909 48.0681L26.7045 43.7499L23.8636 41.9318L21.25 46.3636C19.3182 45.4545 17.2727 44.9999 15 44.9999C6.70454 44.9999 0 51.7045 0 59.9999C0 68.2954 6.70454 74.9999 15 74.9999C22.7273 74.9999 29.0909 69.2045 29.8864 61.7045H33.2954C32.9545 60.909 32.8409 59.9999 32.7273 59.0908V58.1818ZM15 71.4772C8.63636 71.4772 3.40909 66.2499 3.40909 59.8863C3.40909 53.5227 8.63636 48.2954 15 48.2954C16.5909 48.2954 18.0682 48.6363 19.5454 49.2045L13.5227 58.9772C13.1818 59.5454 13.1818 60.1136 13.5227 60.6818C13.8636 61.2499 14.4318 61.5909 15 61.5909H26.4773C25.6818 67.159 20.7954 71.4772 15 71.4772ZM17.9545 58.1818L22.3864 50.909C24.5454 52.7272 26.0227 55.2272 26.4773 58.1818H17.9545Z" fill="black"/>
<path d="M43.1816 13.4091C46.8844 13.4091 49.8861 10.4074 49.8861 6.70454C49.8861 3.00173 46.8844 0 43.1816 0C39.4788 0 36.4771 3.00173 36.4771 6.70454C36.4771 10.4074 39.4788 13.4091 43.1816 13.4091Z" fill="black"/>
<path d="M107.273 34.8863C106.818 34.3181 106.023 33.9772 105.227 33.9772L59.2043 32.159L58.2953 28.6363C58.068 27.9545 57.3862 27.3863 56.7043 27.3863H51.9316C51.5907 26.3636 50.6816 25.4545 49.5453 25.1136L44.5453 23.5227L42.8407 18.6363C42.2725 17.0454 41.1362 15.6818 39.5453 14.8863L38.2953 14.2045C34.9998 12.5 30.9089 13.6363 29.0907 16.9318L24.0907 25.7954L21.9316 29.5454C20.3407 32.159 21.1362 35.5681 23.7498 37.2727L36.1362 45.3408L36.5907 58.7499C36.7044 60.6818 38.068 62.4999 39.9998 62.7272C42.4998 63.0681 44.5453 61.1363 44.5453 58.7499V41.3636C44.5453 40.3409 44.0907 39.4318 43.2953 38.7499L34.7725 32.0454L38.068 26.0227L38.5225 27.3863C38.8634 28.409 39.6589 29.2045 40.6816 29.5454L47.3862 31.7045C47.7271 31.8181 48.1816 31.9318 48.6362 31.9318C49.5453 31.9318 50.4543 31.4772 51.0225 30.7954H55.2271L56.9316 37.0454H46.818C47.6134 38.0681 48.068 39.2045 48.1816 40.4545H52.3862L48.2953 46.1363V51.8181L56.5907 40.4545H57.8407L62.9543 58.9772L48.1816 58.409V58.7499C48.1816 59.8863 47.9543 60.7954 47.4998 61.8181L70.7953 62.7272C71.3634 69.5454 77.1589 74.9999 84.0907 74.9999C91.4771 74.9999 97.4998 68.9772 97.4998 61.5908C97.4998 54.2045 91.4771 48.1818 84.0907 48.1818C77.4998 48.1818 71.9316 53.0681 70.9089 59.4318L67.4998 59.3181C68.6362 51.1363 75.6816 44.8863 84.0907 44.8863C93.2952 44.8863 100.909 52.3863 100.909 61.7045V61.8181H103.295C104.773 61.8181 106.023 60.6818 106.136 59.2045L107.841 37.2727C107.954 36.2499 107.727 35.4545 107.273 34.8863ZM84.2043 51.3636C89.7725 51.3636 94.2043 55.909 94.2043 61.3636C94.2043 66.9318 89.6589 71.3636 84.2043 71.3636C79.0907 71.3636 74.8862 67.6136 74.318 62.6136L84.2043 62.9545C85.1134 62.9545 85.9089 62.2727 85.9089 61.3636C85.9089 60.4545 85.2271 59.659 84.318 59.659L74.4316 59.4318C75.3407 54.8863 79.4316 51.3636 84.2043 51.3636Z" fill="black"/>
</svg>
