<svg width="90" height="90" viewBox="0 0 90 90" fill="none" xmlns="http://www.w3.org/2000/svg">
<path d="M30.2121 73.512L28.3841 76.6821C28.1875 77.0065 27.8715 77.241 27.504 77.3353C27.1366 77.4297 26.7467 77.3763 26.4181 77.1867C26.0895 76.9971 25.8482 76.6863 25.746 76.3209C25.6437 75.9556 25.6887 75.5647 25.8711 75.232L27.6991 72.063C27.8913 71.7298 28.2079 71.4865 28.5794 71.3868C28.7634 71.3374 28.9553 71.3247 29.1441 71.3494C29.333 71.3742 29.5151 71.4359 29.6801 71.5311C29.8451 71.6262 29.9898 71.7529 30.1058 71.9039C30.2219 72.055 30.307 72.2274 30.3564 72.4114C30.4058 72.5953 30.4185 72.7872 30.3937 72.9761C30.369 73.1649 30.3073 73.347 30.2121 73.512V73.512ZM45.0001 75.631C44.6154 75.6312 44.2464 75.7841 43.9743 76.0562C43.7022 76.3283 43.5493 76.6972 43.5491 77.082V80.745C43.5491 81.1298 43.7019 81.4989 43.9741 81.771C44.2462 82.0431 44.6152 82.196 45.0001 82.196C45.3849 82.196 45.754 82.0431 46.0261 81.771C46.2982 81.4989 46.4511 81.1298 46.4511 80.745V77.081C46.451 76.8905 46.4135 76.7019 46.3405 76.5259C46.2676 76.35 46.1607 76.1901 46.026 76.0554C45.8912 75.9208 45.7313 75.814 45.5553 75.7412C45.3793 75.6683 45.1906 75.6309 45.0001 75.631H45.0001ZM62.3021 72.063C62.1089 71.7315 61.7922 71.4901 61.4214 71.3915C61.0506 71.2929 60.6559 71.3452 60.3235 71.5369C59.9911 71.7286 59.7482 72.0441 59.6479 72.4144C59.5476 72.7848 59.598 73.1797 59.7881 73.513L61.6181 76.682C61.8115 77.0129 62.1281 77.2537 62.4985 77.3519C62.869 77.4501 63.2632 77.3977 63.5951 77.2061C63.927 77.0145 64.1696 76.6993 64.2699 76.3294C64.3701 75.9595 64.3199 75.565 64.1301 75.232L62.3021 72.063ZM90.0001 45C90.0001 53.9002 87.3609 62.6005 82.4163 70.0007C77.4716 77.4009 70.4436 83.1686 62.2209 86.5746C53.9982 89.9805 44.9502 90.8717 36.2211 89.1353C27.4919 87.399 19.4737 83.1132 13.1803 76.8198C6.88697 70.5264 2.60114 62.5082 0.864805 53.7791C-0.87153 45.0499 0.0196199 36.0019 3.42556 27.7792C6.83151 19.5566 12.5993 12.5285 19.9995 7.58387C27.3997 2.6392 36.1 0 45.0001 0C56.9349 0 68.3808 4.74106 76.8199 13.1802C85.2591 21.6193 90.0001 33.0653 90.0001 45ZM85.8261 45C85.8261 36.9256 83.4318 29.0326 78.946 22.3189C74.4601 15.6053 68.0842 10.3727 60.6244 7.28271C53.1647 4.19274 44.9562 3.38421 37.0369 4.95937C29.1177 6.53453 21.8434 10.4226 16.1339 16.132C10.4243 21.8414 6.53606 29.1156 4.96071 37.0348C3.38535 44.954 4.19368 53.1625 7.28347 60.6224C10.3733 68.0822 15.6058 74.4582 22.3193 78.9443C29.0328 83.4303 36.9258 85.8248 45.0001 85.825C50.3614 85.8251 55.6703 84.7693 60.6235 82.7177C65.5767 80.6661 70.0774 77.6589 73.8684 73.868C77.6595 70.077 80.6667 65.5765 82.7184 60.6233C84.7701 55.6701 85.8261 50.3613 85.8261 45H85.8261ZM71.5316 29.6815C71.7239 30.0148 72.0407 30.258 72.4123 30.3576C72.7839 30.4573 73.1799 30.4053 73.5131 30.213L76.6831 28.383C76.8489 28.2882 76.9942 28.1616 77.1109 28.0104C77.2276 27.8593 77.3133 27.6866 77.3631 27.5023C77.4128 27.3179 77.4258 27.1256 77.4011 26.9362C77.3763 26.7469 77.3145 26.5643 77.2191 26.3989C77.1237 26.2336 76.9965 26.0887 76.845 25.9725C76.6934 25.8564 76.5204 25.7713 76.3359 25.7222C76.1514 25.673 75.959 25.6608 75.7698 25.6861C75.5806 25.7115 75.3982 25.774 75.2331 25.87L72.0631 27.7C71.8981 27.7952 71.7535 27.922 71.6375 28.0731C71.5214 28.2242 71.4363 28.3967 71.387 28.5807C71.3376 28.7647 71.325 28.9566 71.3498 29.1455C71.3746 29.3344 71.4364 29.5165 71.5316 29.6815V29.6815ZM63.5991 12.786C63.2658 12.5937 62.8697 12.5417 62.498 12.6415C62.1263 12.7413 61.8094 12.9846 61.6171 13.318L59.7881 16.488C59.6919 16.6531 59.6292 16.8356 59.6036 17.025C59.5781 17.2144 59.5903 17.407 59.6394 17.5917C59.6885 17.7764 59.7736 17.9496 59.8898 18.1013C60.006 18.2531 60.1511 18.3803 60.3166 18.4758C60.4822 18.5713 60.665 18.6332 60.8545 18.6579C61.044 18.6825 61.2366 18.6695 61.4211 18.6195C61.6055 18.5696 61.7783 18.4837 61.9295 18.3667C62.0807 18.2498 62.2073 18.1042 62.302 17.9382L64.1311 14.768C64.3234 14.4346 64.3754 14.0385 64.2756 13.6668C64.1758 13.2951 63.9325 12.9783 63.5991 12.786V12.786ZM45.0001 14.369C45.1906 14.3691 45.3793 14.3317 45.5553 14.2589C45.7313 14.186 45.8913 14.0792 46.026 13.9446C46.1608 13.8099 46.2677 13.6501 46.3406 13.4741C46.4136 13.2981 46.4511 13.1095 46.4511 12.919V9.255C46.4511 8.8703 46.2983 8.50136 46.0263 8.22934C45.7543 7.95732 45.3853 7.8045 45.0006 7.8045C44.6159 7.8045 44.247 7.95732 43.975 8.22934C43.703 8.50136 43.5501 8.8703 43.5501 9.255V12.919C43.5501 13.1094 43.5876 13.298 43.6605 13.4739C43.7334 13.6498 43.8402 13.8097 43.9748 13.9443C44.1095 14.079 44.2693 14.1858 44.4453 14.2586C44.6212 14.3315 44.8097 14.369 45.0001 14.369V14.369ZM12.9211 46.452C13.306 46.4517 13.6749 46.2986 13.9469 46.0263C14.2188 45.754 14.3714 45.3848 14.3711 45C14.3709 44.6152 14.2177 44.2462 13.9454 43.9743C13.6731 43.7024 13.304 43.5497 12.9191 43.55H9.25514C8.87031 43.55 8.50125 43.7029 8.22913 43.975C7.95701 44.2471 7.80414 44.6162 7.80414 45.001C7.80414 45.3858 7.95701 45.7549 8.22913 46.027C8.50125 46.2991 8.87031 46.452 9.25514 46.452H12.9211ZM16.4881 59.788L13.3191 61.616C12.9858 61.8083 12.7424 62.1251 12.6427 62.4968C12.5429 62.8685 12.5949 63.2646 12.7871 63.598C12.9794 63.9314 13.2963 64.1747 13.668 64.2745C14.0397 64.3743 14.4358 64.3223 14.7691 64.13L17.9381 62.302C18.2715 62.1097 18.5149 61.7929 18.6146 61.4212C18.7144 61.0495 18.6624 60.6534 18.4701 60.32C18.2779 59.9866 17.961 59.7433 17.5893 59.6435C17.2176 59.5437 16.8215 59.5957 16.4881 59.788V59.788ZM17.9391 27.699L14.7701 25.87C14.4368 25.6777 14.0407 25.6257 13.669 25.7255C13.2973 25.8253 12.9804 26.0686 12.7881 26.402C12.5959 26.7354 12.5439 27.1315 12.6437 27.5032C12.7434 27.8749 12.9868 28.1917 13.3201 28.384L16.4891 30.212C16.8223 30.4027 17.2174 30.4535 17.588 30.3534C17.9586 30.2533 18.2744 30.0104 18.4662 29.6779C18.6581 29.3455 18.7103 28.9505 18.6115 28.5796C18.5127 28.2087 18.2709 27.892 17.9391 27.699V27.699ZM30.2131 16.488L28.3851 13.318C28.1927 12.9852 27.8761 12.7423 27.5048 12.6427C27.1335 12.543 26.7378 12.5947 26.4046 12.7863C26.0713 12.978 25.8277 13.294 25.7272 13.6651C25.6266 14.0362 25.6773 14.4319 25.8682 14.7656L27.6991 17.939C27.8915 18.2724 28.2085 18.5157 28.5803 18.6153C28.9521 18.715 29.3482 18.6629 29.6816 18.4705C30.015 18.2781 30.2583 17.9611 30.358 17.5893C30.4576 17.2175 30.4055 16.8214 30.2131 16.488H30.2131ZM76.6831 61.616L73.5131 59.788C73.1799 59.5959 72.7841 59.544 72.4126 59.6436C72.0411 59.7431 71.7243 59.9861 71.5318 60.3191C71.3393 60.6521 71.2869 61.0479 71.386 61.4195C71.4852 61.7911 71.7278 62.1082 72.0605 62.3011L75.2321 64.13C75.5654 64.3211 75.9609 64.3722 76.3319 64.2722C76.7028 64.1722 77.019 63.9292 77.211 63.5964C77.4031 63.2637 77.4554 62.8683 77.3564 62.4971C77.2574 62.1259 77.0153 61.809 76.6831 61.616V61.616ZM77.0801 43.548C76.695 43.5483 76.3258 43.7015 76.0537 43.974C75.7816 44.2465 75.6288 44.6159 75.6291 45.001C75.6294 45.3861 75.7826 45.7554 76.0551 46.0275C76.3276 46.2996 76.697 46.4523 77.0821 46.4521H80.7461C81.131 46.4521 81.5 46.2992 81.7722 46.0271C82.0443 45.755 82.1971 45.3859 82.1971 45.0011C82.1971 44.6162 82.0443 44.2472 81.7722 43.975C81.5 43.7029 81.131 43.5501 80.7461 43.5501L77.0801 43.548ZM46.6156 49.4437L60.4815 63.3096L63.3096 60.4815L49.4437 46.6155C49.8631 45.5051 49.8439 44.2767 49.39 43.1799C48.9361 42.0832 48.0815 41.2005 47 40.7112V21.1064H43V40.7114C41.8833 41.2184 41.0073 42.1396 40.5569 43.2803C40.1065 44.4211 40.117 45.6922 40.5862 46.8254C41.0554 47.9586 41.9465 48.8651 43.0715 49.3536C44.1965 49.8421 45.4672 49.8744 46.6156 49.4437Z" fill="black"/>
</svg>
