<svg width="138" height="99" viewBox="0 0 138 99" fill="none" xmlns="http://www.w3.org/2000/svg">
<mask id="mask0_121:20" style="mask-type:alpha" maskUnits="userSpaceOnUse" x="0" y="0" width="138" height="99">
<rect width="138" height="99" fill="#C4C4C4"/>
</mask>
<g mask="url(#mask0_121:20)">
<path d="M-334.218 -215.594V-155.79H-352.214V-149.921H-314.253C-313.675 -147.495 -312.4 -145.35 -310.627 -143.819C-308.854 -142.287 -306.681 -141.455 -304.445 -141.45C-302.207 -141.452 -300.033 -142.283 -298.259 -143.815C-296.486 -145.346 -295.212 -147.493 -294.636 -149.921H-293.4C-290.398 -149.926 -287.52 -151.267 -285.397 -153.651C-283.275 -156.035 -282.08 -159.266 -282.076 -162.637V-184.958C-282.081 -187.323 -282.627 -189.647 -283.661 -191.707L-292.476 -209.157C-293.466 -211.11 -294.897 -212.733 -296.626 -213.864C-298.355 -214.994 -300.319 -215.591 -302.319 -215.594H-328.991C-329.046 -218.922 -330.261 -222.093 -332.375 -224.427C-334.489 -226.761 -337.333 -228.07 -340.298 -228.075H-414.147V-222.206H-340.298C-338.719 -222.202 -337.204 -221.511 -336.07 -220.277C-334.936 -219.044 -334.272 -217.365 -334.218 -215.594V-215.594ZM-304.445 -147.319C-305.543 -147.318 -306.609 -147.729 -307.474 -148.488C-308.339 -149.247 -308.953 -150.309 -309.218 -151.505V-154.107C-308.961 -155.313 -308.35 -156.387 -307.485 -157.156C-306.619 -157.926 -305.549 -158.347 -304.445 -158.352C-303.797 -158.352 -303.156 -158.209 -302.558 -157.931C-301.96 -157.653 -301.416 -157.245 -300.958 -156.731C-300.501 -156.217 -300.138 -155.606 -299.89 -154.935C-299.642 -154.263 -299.514 -153.543 -299.514 -152.816C-299.524 -151.355 -300.047 -149.956 -300.971 -148.927C-301.894 -147.897 -303.143 -147.319 -304.445 -147.319V-147.319ZM-297.023 -206.282L-289.184 -190.749H-318.922V-184.88H-287.302V-162.656C-287.302 -160.84 -287.945 -159.099 -289.088 -157.815C-290.232 -156.531 -291.782 -155.809 -293.4 -155.809H-294.636C-295.212 -158.237 -296.486 -160.384 -298.259 -161.915C-300.033 -163.447 -302.207 -164.278 -304.445 -164.28C-306.681 -164.272 -308.852 -163.438 -310.625 -161.907C-312.397 -160.377 -313.672 -158.234 -314.253 -155.809H-328.974V-209.744H-302.319C-301.243 -209.743 -300.186 -209.423 -299.256 -208.814C-298.326 -208.206 -297.555 -207.332 -297.023 -206.282V-206.282ZM-382.196 -155.809H-398.886V-182.806H-404.112V-149.98H-382.196C-381.62 -147.552 -380.347 -145.405 -378.573 -143.873C-376.8 -142.342 -374.625 -141.51 -372.388 -141.509C-369.696 -141.514 -367.115 -142.717 -365.211 -144.855C-363.307 -146.993 -362.236 -149.891 -362.231 -152.914C-362.236 -155.937 -363.307 -158.835 -365.211 -160.973C-367.115 -163.111 -369.696 -164.314 -372.388 -164.319C-374.632 -164.314 -376.812 -163.474 -378.586 -161.931C-380.361 -160.388 -381.63 -158.229 -382.196 -155.79V-155.809ZM-372.388 -158.411C-371.08 -158.411 -369.826 -157.828 -368.902 -156.79C-367.977 -155.751 -367.458 -154.343 -367.458 -152.875C-367.458 -151.407 -367.977 -149.998 -368.902 -148.96C-369.826 -147.922 -371.08 -147.339 -372.388 -147.339C-373.697 -147.338 -374.953 -147.921 -375.88 -148.959C-376.808 -149.997 -377.331 -151.405 -377.336 -152.875C-377.326 -154.342 -376.801 -155.745 -375.874 -156.778C-374.947 -157.812 -373.694 -158.392 -372.388 -158.392V-158.411ZM-385.576 -208.042H-414.147V-213.911H-385.576V-208.042ZM-407.771 -199.689H-384.147V-193.82H-407.771V-199.689ZM-361.639 -171.655C-357.705 -171.655 -353.933 -173.409 -351.15 -176.53C-348.366 -179.652 -346.801 -183.886 -346.796 -188.303C-346.801 -192.722 -348.366 -196.959 -351.148 -200.083C-353.931 -203.208 -357.704 -204.966 -361.639 -204.971C-365.563 -204.95 -369.321 -203.185 -372.089 -200.062C-374.858 -196.938 -376.412 -192.71 -376.412 -188.303C-376.408 -183.9 -374.851 -179.677 -372.083 -176.558C-369.315 -173.438 -365.56 -171.676 -361.639 -171.655V-171.655ZM-364.217 -198.672V-185.369H-354.984V-191.238H-358.991V-198.672C-356.983 -198.029 -355.217 -196.67 -353.96 -194.799C-352.702 -192.928 -352.022 -190.647 -352.022 -188.303C-352.027 -185.443 -353.042 -182.701 -354.845 -180.68C-356.648 -178.659 -359.091 -177.524 -361.639 -177.524C-364.176 -177.54 -366.604 -178.682 -368.393 -180.702C-370.182 -182.722 -371.186 -185.455 -371.186 -188.303C-371.186 -190.647 -370.506 -192.928 -369.249 -194.799C-367.991 -196.67 -366.225 -198.029 -364.217 -198.672V-198.672ZM-125.127 -215.594V-178.424H-189.83V-182.806H-195.056V-149.98H-173.14C-172.564 -147.552 -171.291 -145.405 -169.517 -143.873C-167.744 -142.342 -165.569 -141.51 -163.332 -141.509C-160.64 -141.514 -158.059 -142.717 -156.155 -144.855C-154.251 -146.993 -153.18 -149.891 -153.175 -152.914C-153.18 -155.937 -154.251 -158.835 -156.155 -160.973C-158.059 -163.111 -160.64 -164.314 -163.332 -164.319C-165.569 -164.318 -167.744 -163.486 -169.517 -161.955C-171.291 -160.423 -172.564 -158.276 -173.14 -155.848H-189.83V-172.653H-125.179V-155.848H-142.182V-149.98H-105.197C-104.619 -147.553 -103.344 -145.409 -101.571 -143.877C-99.7984 -142.346 -97.6254 -141.514 -95.3887 -141.509C-93.1512 -141.51 -90.9768 -142.342 -89.2033 -143.873C-87.4297 -145.405 -86.1561 -147.552 -85.5805 -149.98H-84.3436C-81.3417 -149.985 -78.4641 -151.326 -76.3415 -153.71C-74.2188 -156.093 -73.0243 -159.325 -73.0197 -162.695V-185.271C-73.0168 -187.474 -73.5273 -189.639 -74.5005 -191.551L-83.4202 -209.157C-84.4097 -211.11 -85.8413 -212.733 -87.57 -213.864C-89.2987 -214.994 -91.2629 -215.591 -93.2633 -215.594H-119.935C-119.99 -218.922 -121.205 -222.093 -123.319 -224.427C-125.433 -226.761 -128.277 -228.07 -131.242 -228.075H-205.091V-222.206H-131.242C-129.663 -222.202 -128.148 -221.511 -127.014 -220.277C-125.88 -219.044 -125.216 -217.365 -125.162 -215.594H-125.127ZM-163.297 -158.392C-162.65 -158.392 -162.008 -158.248 -161.41 -157.97C-160.812 -157.692 -160.269 -157.284 -159.811 -156.77C-159.353 -156.256 -158.99 -155.646 -158.742 -154.974C-158.494 -154.302 -158.367 -153.582 -158.367 -152.855C-158.367 -152.128 -158.494 -151.408 -158.742 -150.737C-158.99 -150.065 -159.353 -149.455 -159.811 -148.941C-160.269 -148.426 -160.812 -148.019 -161.41 -147.74C-162.008 -147.462 -162.65 -147.319 -163.297 -147.319C-164.606 -147.319 -165.862 -147.902 -166.789 -148.939C-167.717 -149.977 -168.24 -151.385 -168.245 -152.855C-168.24 -154.319 -167.722 -155.721 -166.802 -156.757C-165.882 -157.794 -164.635 -158.381 -163.332 -158.392H-163.297ZM-95.3538 -147.319C-96.4563 -147.32 -97.5265 -147.737 -98.3924 -148.503C-99.2582 -149.27 -99.8693 -150.341 -100.127 -151.545V-154.146C-99.8698 -155.352 -99.2594 -156.426 -98.3939 -157.195C-97.5284 -157.965 -96.4579 -158.386 -95.3538 -158.392C-94.0463 -158.392 -92.7922 -157.808 -91.8676 -156.77C-90.943 -155.732 -90.4236 -154.324 -90.4236 -152.855C-90.4236 -152.125 -90.5522 -151.402 -90.8022 -150.728C-91.0521 -150.053 -91.4184 -149.441 -91.8799 -148.927C-92.3414 -148.412 -92.8891 -148.005 -93.4913 -147.729C-94.0934 -147.453 -94.7383 -147.314 -95.3887 -147.319H-95.3538ZM-87.9672 -206.282L-79.0475 -188.675C-78.5236 -187.644 -78.2474 -186.478 -78.2461 -185.291V-162.715C-78.2461 -160.899 -78.8885 -159.157 -80.032 -157.873C-81.1755 -156.589 -82.7264 -155.868 -84.3436 -155.868H-85.5805C-86.1561 -158.296 -87.4297 -160.442 -89.2033 -161.974C-90.9768 -163.506 -93.1512 -164.337 -95.3887 -164.339C-97.6247 -164.331 -99.7962 -163.497 -101.569 -161.966C-103.341 -160.435 -104.616 -158.293 -105.197 -155.868H-119.918V-209.803H-93.2633C-92.1817 -209.796 -91.1212 -209.467 -90.1905 -208.848C-89.2599 -208.229 -88.4925 -207.343 -87.9672 -206.282V-206.282ZM-176.52 -208.042H-205.091V-213.911H-176.52V-208.042ZM-175.091 -193.84H-198.715V-199.709H-175.039L-175.091 -193.84ZM-135.998 -200.1C-136.002 -204.517 -137.568 -208.751 -140.351 -211.873C-143.134 -214.995 -146.907 -216.748 -150.841 -216.748C-154.771 -216.743 -158.54 -214.987 -161.319 -211.866C-164.098 -208.745 -165.662 -204.514 -165.666 -200.1C-165.666 -195.683 -164.105 -191.446 -161.325 -188.321C-158.545 -185.196 -154.774 -183.437 -150.841 -183.432C-146.909 -183.437 -143.139 -185.192 -140.356 -188.313C-137.574 -191.433 -136.007 -195.665 -135.998 -200.08V-200.1ZM-160.388 -200.1C-160.385 -202.443 -159.704 -204.722 -158.447 -206.592C-157.19 -208.463 -155.425 -209.823 -153.419 -210.468V-197.165H-144.186V-203.034H-148.193V-210.468C-146.187 -209.823 -144.422 -208.463 -143.165 -206.592C-141.908 -204.722 -141.227 -202.443 -141.224 -200.1C-141.229 -197.237 -142.243 -194.494 -144.046 -192.47C-145.848 -190.446 -148.292 -189.306 -150.841 -189.301C-153.376 -189.322 -155.802 -190.466 -157.59 -192.485C-159.378 -194.503 -160.383 -197.233 -160.388 -200.08V-200.1ZM83.9291 -215.613V-178.444H16.6131V-172.575H83.8768V-155.77H65.8981V-149.901H103.859C104.437 -147.475 105.712 -145.33 107.485 -143.799C109.258 -142.268 111.431 -141.435 113.667 -141.431C116.361 -141.431 118.944 -142.632 120.849 -144.771C122.754 -146.91 123.824 -149.811 123.824 -152.836C123.819 -155.859 122.748 -158.757 120.844 -160.895C118.94 -163.032 116.36 -164.236 113.667 -164.241C111.431 -164.236 109.258 -163.404 107.485 -161.872C105.712 -160.341 104.437 -158.196 103.859 -155.77H89.1381V-182.571H130.81V-152.836H136.036V-185.741C136.034 -187.6 135.602 -189.427 134.782 -191.042L125.148 -210.194C124.309 -211.85 123.096 -213.226 121.63 -214.185C120.164 -215.143 118.499 -215.65 116.803 -215.652H89.1207C89.066 -218.981 87.8512 -222.152 85.7372 -224.486C83.6232 -226.819 80.7786 -228.129 77.8143 -228.134H3.96519V-222.265H77.8143C79.4013 -222.265 80.9251 -221.567 82.0586 -220.319C83.1922 -219.072 83.8449 -217.375 83.8768 -215.594L83.9291 -215.613ZM113.72 -158.411C115.027 -158.411 116.281 -157.828 117.206 -156.79C118.13 -155.751 118.65 -154.343 118.65 -152.875C118.65 -151.407 118.13 -149.998 117.206 -148.96C116.281 -147.922 115.027 -147.339 113.72 -147.339C112.617 -147.339 111.547 -147.756 110.681 -148.523C109.815 -149.289 109.204 -150.36 108.946 -151.564V-154.166C109.205 -155.358 109.809 -156.42 110.663 -157.185C111.518 -157.95 112.575 -158.374 113.667 -158.392L113.72 -158.411ZM120.688 -207.319L130.165 -188.538H89.2252V-209.803H116.89C117.655 -209.779 118.4 -209.53 119.051 -209.08C119.703 -208.63 120.237 -207.996 120.601 -207.24L120.688 -207.319ZM36.003 -155.868H25.5502V-149.999H36.003C36.5787 -147.571 37.8522 -145.425 39.6258 -143.893C41.3994 -142.361 43.5738 -141.53 45.8112 -141.528C48.5035 -141.533 51.0843 -142.737 52.988 -144.875C54.8917 -147.012 55.9633 -149.91 55.9679 -152.934C55.9633 -155.957 54.8917 -158.855 52.988 -160.993C51.0843 -163.13 48.5035 -164.334 45.8112 -164.339C43.5496 -164.354 41.3482 -163.522 39.5557 -161.973C37.7632 -160.425 36.4822 -158.248 35.9159 -155.79L36.003 -155.868ZM50.7415 -152.934C50.7415 -151.465 50.222 -150.057 49.2975 -149.019C48.3729 -147.98 47.1188 -147.397 45.8112 -147.397C44.502 -147.397 43.2462 -147.98 42.3189 -149.018C41.3915 -150.055 40.8682 -151.463 40.8636 -152.934C40.8682 -154.404 41.3915 -155.812 42.3189 -156.849C43.2462 -157.887 44.502 -158.47 45.8112 -158.47C47.1158 -158.444 48.3581 -157.839 49.2659 -156.786C50.1737 -155.734 50.673 -154.32 50.6544 -152.855L50.7415 -152.934ZM32.6233 -208.101H4.0523V-213.97H32.6233V-208.101ZM34.0518 -193.898H10.3414V-199.767H34.017L34.0518 -193.898ZM73.1453 -200.159C73.1407 -204.576 71.5749 -208.81 68.7918 -211.932C66.0087 -215.053 62.2359 -216.807 58.3023 -216.807C54.3718 -216.801 50.6035 -215.046 47.8242 -211.925C45.0448 -208.804 43.4814 -204.572 43.4768 -200.159C43.4768 -195.741 45.0382 -191.505 47.818 -188.38C50.5978 -185.254 54.3688 -183.496 58.3023 -183.491C62.2104 -183.522 65.9503 -185.28 68.7121 -188.385C71.474 -191.49 73.0354 -195.692 73.0582 -200.08L73.1453 -200.159ZM48.7554 -200.159C48.7579 -202.502 49.4391 -204.781 50.6962 -206.651C51.9532 -208.521 53.7179 -209.882 55.724 -210.527V-197.224H64.9573V-203.093H60.8633V-210.527C62.8693 -209.882 64.634 -208.521 65.8911 -206.651C67.1482 -204.781 67.8293 -202.502 67.8318 -200.159C67.8272 -197.296 66.8126 -194.552 65.0101 -192.528C63.2076 -190.504 60.7643 -189.365 58.2153 -189.36C55.6889 -189.38 53.2712 -190.516 51.4847 -192.522C49.6983 -194.528 48.6866 -197.243 48.6683 -200.08L48.7554 -200.159ZM226.453 -215.437C226.453 -217.253 227.095 -218.995 228.239 -220.279C229.382 -221.563 230.933 -222.284 232.551 -222.284H284.902C286.519 -222.284 288.07 -221.563 289.213 -220.279C290.357 -218.995 290.999 -217.253 290.999 -215.437V-209.803H322.898C323.962 -209.787 325.004 -209.458 325.92 -208.851C326.837 -208.244 327.596 -207.378 328.124 -206.34L336.12 -190.631H302.288C300.672 -190.637 299.124 -191.36 297.982 -192.643C296.839 -193.925 296.195 -195.664 296.191 -197.478V-198.457H290.964V-197.576C290.969 -194.205 292.163 -190.974 294.286 -188.59C296.409 -186.207 299.286 -184.865 302.288 -184.86H337.863V-162.637C337.863 -160.821 337.22 -159.079 336.077 -157.795C334.933 -156.511 333.382 -155.79 331.765 -155.79H330.528C329.947 -158.214 328.672 -160.357 326.9 -161.888C325.127 -163.419 322.956 -164.252 320.72 -164.26C318.482 -164.259 316.308 -163.428 314.534 -161.896C312.761 -160.364 311.487 -158.218 310.912 -155.79H273.107V-149.921H310.964C311.54 -147.493 312.813 -145.346 314.587 -143.815C316.36 -142.283 318.535 -141.452 320.772 -141.45C323.008 -141.458 325.18 -142.292 326.952 -143.823C328.725 -145.353 329.999 -147.496 330.58 -149.921H331.817C334.819 -149.926 337.697 -151.267 339.819 -153.651C341.942 -156.035 343.137 -159.266 343.141 -162.637V-185.212C343.136 -187.414 342.626 -189.576 341.66 -191.492L332.741 -209.099C331.751 -211.051 330.32 -212.675 328.591 -213.805C326.862 -214.935 324.898 -215.532 322.898 -215.535H296.226C296.166 -218.865 294.948 -222.036 292.831 -224.37C290.714 -226.703 287.868 -228.012 284.902 -228.016H232.411C229.409 -228.011 226.532 -226.67 224.409 -224.286C222.286 -221.902 221.092 -218.671 221.087 -215.3V-149.862H226.314L226.453 -215.437ZM320.912 -147.397C319.604 -147.397 318.35 -147.98 317.425 -149.019C316.501 -150.057 315.981 -151.465 315.981 -152.934C315.981 -153.661 316.109 -154.38 316.357 -155.052C316.604 -155.724 316.968 -156.334 317.425 -156.848C317.883 -157.362 318.427 -157.77 319.025 -158.048C319.623 -158.327 320.264 -158.47 320.912 -158.47C321.559 -158.47 322.2 -158.327 322.798 -158.048C323.396 -157.77 323.94 -157.362 324.398 -156.848C324.856 -156.334 325.219 -155.724 325.466 -155.052C325.714 -154.38 325.842 -153.661 325.842 -152.934C325.851 -152.187 325.726 -151.445 325.474 -150.754C325.222 -150.063 324.848 -149.436 324.374 -148.911C323.9 -148.387 323.337 -147.975 322.718 -147.702C322.099 -147.428 321.437 -147.298 320.772 -147.319L320.912 -147.397ZM252.829 -164.339C250.637 -164.338 248.505 -163.541 246.749 -162.067C244.994 -160.594 243.711 -158.522 243.09 -156.161H236.488V-150.293H242.951C243.477 -147.795 244.739 -145.571 246.532 -143.98C248.325 -142.39 250.544 -141.525 252.829 -141.528C255.521 -141.533 258.102 -142.737 260.006 -144.875C261.909 -147.012 262.981 -149.91 262.986 -152.934C262.974 -154.437 262.699 -155.924 262.175 -157.307C261.651 -158.691 260.888 -159.945 259.932 -160.998C258.975 -162.05 257.843 -162.88 256.6 -163.44C255.358 -164 254.029 -164.279 252.69 -164.26L252.829 -164.339ZM252.829 -147.397C251.52 -147.397 250.264 -147.98 249.337 -149.018C248.409 -150.055 247.886 -151.463 247.881 -152.934C247.886 -154.404 248.409 -155.812 249.337 -156.849C250.264 -157.887 251.52 -158.47 252.829 -158.47C254.137 -158.47 255.391 -157.887 256.315 -156.848C257.24 -155.81 257.759 -154.402 257.759 -152.934C257.769 -152.187 257.644 -151.445 257.392 -150.754C257.139 -150.063 256.765 -149.436 256.291 -148.911C255.818 -148.387 255.255 -147.975 254.636 -147.702C254.017 -147.428 253.355 -147.298 252.69 -147.319L252.829 -147.397ZM275.773 -192.392C275.768 -196.809 274.202 -201.044 271.419 -204.165C268.636 -207.287 264.863 -209.04 260.93 -209.04C256.999 -209.035 253.231 -207.279 250.452 -204.158C247.672 -201.037 246.109 -196.806 246.104 -192.392C246.104 -187.975 247.666 -183.738 250.446 -180.613C253.225 -177.488 256.996 -175.73 260.93 -175.724C264.835 -175.771 268.567 -177.541 271.318 -180.653C274.07 -183.765 275.62 -187.968 275.633 -192.353L275.773 -192.392ZM260.93 -181.593C258.382 -181.598 255.941 -182.738 254.141 -184.763C252.342 -186.788 251.331 -189.531 251.331 -192.392C251.333 -194.735 252.014 -197.014 253.271 -198.884C254.529 -200.755 256.293 -202.115 258.299 -202.76V-189.458H267.533V-195.326H263.526V-202.76C265.532 -202.115 267.296 -200.755 268.553 -198.884C269.811 -197.014 270.492 -194.735 270.494 -192.392C270.499 -190.962 270.251 -189.546 269.764 -188.225C269.277 -186.904 268.562 -185.704 267.659 -184.696C266.757 -183.688 265.685 -182.891 264.505 -182.352C263.326 -181.812 262.064 -181.541 260.791 -181.554L260.93 -181.593ZM464.829 -174.981L453 -188.264L456.693 -192.412L464.829 -183.276L482.93 -203.602L486.623 -199.454L464.829 -174.981ZM461.868 -139.024C464.105 -139.026 466.279 -139.857 468.053 -141.389C469.827 -142.921 471.1 -145.067 471.676 -147.495H520.194C520.772 -145.069 522.047 -142.924 523.82 -141.393C525.593 -139.862 527.766 -139.029 530.002 -139.024C532.24 -139.026 534.414 -139.857 536.188 -141.389C537.961 -142.921 539.235 -145.067 539.811 -147.495H552.145V-186.132L538.486 -213.148H505.281V-225.649H430.196V-147.397H452.112C452.703 -144.997 453.976 -142.879 455.736 -141.364C457.497 -139.849 459.65 -139.021 461.868 -139.005V-139.024ZM461.868 -144.893C460.56 -144.893 459.306 -145.476 458.381 -146.515C457.457 -147.553 456.937 -148.961 456.937 -150.429C456.937 -151.156 457.065 -151.876 457.313 -152.548C457.56 -153.22 457.924 -153.83 458.381 -154.344C458.839 -154.858 459.383 -155.266 459.981 -155.544C460.579 -155.823 461.22 -155.966 461.868 -155.966C462.515 -155.966 463.156 -155.823 463.754 -155.544C464.352 -155.266 464.896 -154.858 465.354 -154.344C465.812 -153.83 466.175 -153.22 466.422 -152.548C466.67 -151.876 466.798 -151.156 466.798 -150.429C466.8 -149.701 466.674 -148.979 466.428 -148.305C466.181 -147.631 465.818 -147.018 465.36 -146.502C464.902 -145.986 464.358 -145.576 463.758 -145.297C463.159 -145.017 462.516 -144.874 461.868 -144.874V-144.893ZM530.002 -144.893C529.355 -144.893 528.714 -145.036 528.116 -145.315C527.518 -145.593 526.974 -146.001 526.516 -146.515C526.058 -147.029 525.695 -147.639 525.447 -148.311C525.2 -148.983 525.072 -149.702 525.072 -150.429C525.072 -151.156 525.2 -151.876 525.447 -152.548C525.695 -153.22 526.058 -153.83 526.516 -154.344C526.974 -154.858 527.518 -155.266 528.116 -155.544C528.714 -155.823 529.355 -155.966 530.002 -155.966C530.65 -155.966 531.291 -155.823 531.889 -155.544C532.487 -155.266 533.031 -154.858 533.489 -154.344C533.946 -153.83 534.31 -153.22 534.557 -152.548C534.805 -151.876 534.933 -151.156 534.933 -150.429C534.935 -149.701 534.809 -148.979 534.562 -148.305C534.316 -147.631 533.953 -147.018 533.495 -146.502C533.037 -145.986 532.492 -145.576 531.893 -145.297C531.294 -145.017 530.651 -144.874 530.002 -144.874V-144.893ZM539.811 -153.364C539.235 -155.792 537.961 -157.938 536.188 -159.47C534.414 -161.002 532.24 -161.833 530.002 -161.835C527.766 -161.83 525.593 -160.997 523.82 -159.466C522.047 -157.935 520.772 -155.79 520.194 -153.364H505.281V-182.415H546.918V-153.344L539.811 -153.364ZM535.49 -207.299L545.176 -188.284H505.281V-207.279L535.49 -207.299ZM435.422 -219.78H500.055V-213.148V-153.344H471.676C471.1 -155.772 469.827 -157.919 468.053 -159.451C466.279 -160.982 464.105 -161.814 461.868 -161.815C459.632 -161.807 457.46 -160.973 455.688 -159.442C453.915 -157.912 452.64 -155.769 452.059 -153.344H435.422V-219.78ZM83.8768 19.1619V56.3315H19.2263V51.9494H13.9999V84.776H35.9159C36.4916 87.204 37.7651 89.3505 39.5387 90.8822C41.3123 92.414 43.4867 93.2452 45.7241 93.2468C48.4164 93.2416 50.9971 92.0384 52.9009 89.9006C54.8046 87.7628 55.8762 84.8648 55.8808 81.8416C55.8762 78.8183 54.8046 75.9204 52.9009 73.7826C50.9971 71.6448 48.4164 70.4415 45.7241 70.4364C43.4867 70.438 41.3123 71.2692 39.5387 72.8009C37.7651 74.3327 36.4916 76.4792 35.9159 78.9071H19.2263V62.1026H83.8768V78.9071H66.8737V84.776H103.859C104.437 87.2023 105.712 89.347 107.485 90.8782C109.258 92.4094 111.431 93.2419 113.667 93.2468C115.905 93.2452 118.079 92.414 119.853 90.8822C121.626 89.3505 122.9 87.204 123.476 84.776H124.712C127.714 84.7709 130.592 83.4295 132.715 81.0459C134.837 78.6623 136.032 75.431 136.036 72.0601V49.5431C136.039 47.3407 135.529 45.1757 134.556 43.2634L125.636 25.6568C124.646 23.7045 123.215 22.0808 121.486 20.9504C119.757 19.8201 117.793 19.2233 115.793 19.2205H89.1207C89.066 15.8923 87.8512 12.7209 85.7372 10.3872C83.6232 8.05363 80.7786 6.74393 77.8143 6.73937H3.96519V12.6083H77.8143C79.3837 12.607 80.8923 13.2893 82.023 14.5115C83.1537 15.7337 83.8182 17.4007 83.8768 19.1619ZM45.7241 76.3639C47.0317 76.3639 48.2858 76.9472 49.2104 77.9855C50.135 79.0238 50.6544 80.4319 50.6544 81.9003C50.6544 83.3686 50.135 84.7768 49.2104 85.815C48.2858 86.8533 47.0317 87.4366 45.7241 87.4366C44.4149 87.4366 43.1591 86.8539 42.2318 85.8162C41.3044 84.7785 40.7811 83.3704 40.7765 81.9003C40.7811 80.4302 41.3044 79.022 42.2318 77.9843C43.1591 76.9466 44.4149 76.3639 45.7241 76.3639V76.3639ZM113.667 87.4366C112.57 87.438 111.503 87.0265 110.638 86.2677C109.773 85.5089 109.159 84.4465 108.894 83.2501V80.6482C109.151 79.4426 109.762 78.369 110.627 77.5993C111.493 76.8295 112.563 76.4083 113.667 76.4031C114.975 76.4031 116.229 76.9864 117.154 78.0246C118.078 79.0629 118.598 80.4711 118.598 81.9394C118.588 83.4009 118.065 84.7991 117.141 85.8289C116.218 86.8587 114.969 87.4366 113.667 87.4366V87.4366ZM121.089 28.4738L130.009 46.0805C130.535 47.1105 130.811 48.2775 130.81 49.4649V72.0405C130.81 73.8565 130.168 75.5981 129.024 76.8821C127.881 78.1662 126.33 78.8876 124.712 78.8876H123.476C122.9 76.4597 121.626 74.3131 119.853 72.7814C118.079 71.2496 115.905 70.4184 113.667 70.4168C111.431 70.4217 109.258 71.2542 107.485 72.7854C105.712 74.3166 104.437 76.4613 103.859 78.8876H89.1381V25.0308H115.793C116.867 25.0297 117.923 25.3475 118.853 25.9522C119.783 26.5568 120.555 27.4267 121.089 28.4738V28.4738ZM32.5362 26.7131H3.96519V20.8443H32.5362V26.7131ZM33.9647 40.9159H10.3414V35.047H34.017L33.9647 40.9159ZM339.43 24.5612C338.592 22.9059 337.378 21.5292 335.912 20.5706C334.447 19.6121 332.782 19.1058 331.086 19.1032H303.403C303.348 15.7749 302.134 12.6035 300.02 10.2699C297.906 7.93626 295.061 6.62655 292.097 6.622H218.248V12.4909H292.097C293.675 12.4902 295.191 13.1805 296.323 14.4152C297.455 15.6499 298.114 17.3317 298.159 19.1032V56.2728H230.896V62.1417H298.159V78.9463H280.18V84.8152H318.142C318.72 87.2414 319.994 89.3861 321.767 90.9173C323.54 92.4485 325.713 93.281 327.95 93.2859C330.643 93.2859 333.227 92.0843 335.132 89.9454C337.036 87.8065 338.106 84.9056 338.106 81.8807C338.102 78.8575 337.03 75.9595 335.126 73.8217C333.223 71.684 330.642 70.4807 327.95 70.4755C325.713 70.4804 323.54 71.3129 321.767 72.8441C319.994 74.3753 318.72 76.52 318.142 78.9463H303.421V52.145H345.092V81.8807H350.319V49.0149C350.316 47.1556 349.884 45.3288 349.064 43.7134L339.43 24.5612ZM327.95 76.3053C329.257 76.3053 330.511 76.8886 331.436 77.9268C332.361 78.9651 332.88 80.3733 332.88 81.8416C332.88 83.3099 332.361 84.7181 331.436 85.7564C330.511 86.7946 329.257 87.3779 327.95 87.3779C326.859 87.3826 325.798 86.9795 324.933 86.2321C324.069 85.4847 323.451 84.4356 323.176 83.2501V80.6482C323.427 79.4354 324.035 78.3529 324.901 77.5755C325.767 76.7981 326.841 76.3713 327.95 76.3639V76.3053ZM303.421 25.0308H331.086C331.858 25.0295 332.617 25.259 333.284 25.6956C333.951 26.1321 334.503 26.7602 334.883 27.5152L344.361 46.2957H303.421V25.0308ZM260.007 93.3055C262.699 93.3003 265.28 92.097 267.183 89.9593C269.087 87.8215 270.159 84.9235 270.163 81.9003C270.159 78.877 269.087 75.9791 267.183 73.8413C265.28 71.7035 262.699 70.5002 260.007 70.4951C257.769 70.4967 255.595 71.3279 253.821 72.8596C252.048 74.3914 250.774 76.5379 250.198 78.9658H239.746V84.8347H250.198C250.774 87.2626 252.048 89.4092 253.821 90.9409C255.595 92.4727 257.769 93.3039 260.007 93.3055V93.3055ZM260.007 76.3639C261.314 76.3639 262.568 76.9472 263.493 77.9855C264.417 79.0238 264.937 80.4319 264.937 81.9003C264.937 83.3686 264.417 84.7768 263.493 85.815C262.568 86.8533 261.314 87.4366 260.007 87.4366C258.697 87.4366 257.442 86.8539 256.514 85.8162C255.587 84.7785 255.064 83.3704 255.059 81.9003C255.064 80.4302 255.587 79.022 256.514 77.9843C257.442 76.9466 258.697 76.3639 260.007 76.3639V76.3639ZM246.819 26.7327H218.248V20.8638H246.819V26.7327ZM224.624 35.0666H248.299V40.9355H224.624V35.0666ZM-79.0475 25.5981C-80.0427 23.6342 -81.4854 22.0031 -83.2274 20.872C-84.9694 19.741 -86.948 19.1507 -88.9602 19.1619H-115.615C-115.674 15.8318 -116.893 12.6604 -119.009 10.3273C-121.126 7.99421 -123.973 6.68514 -126.939 6.68069H-200.718V12.5496H-126.886C-125.307 12.5487 -123.788 13.2384 -122.654 14.4726C-121.519 15.7068 -120.856 17.3886 -120.806 19.1619V78.9658H-138.785V84.8347H-100.824C-100.248 87.2626 -98.9749 89.4092 -97.2013 90.9409C-95.4278 92.4727 -93.2534 93.3039 -91.0159 93.3055C-88.7799 93.2973 -86.6084 92.4636 -84.836 90.9329C-83.0636 89.4021 -81.7887 87.2593 -81.2077 84.8347H-79.9882C-78.5012 84.8347 -77.0286 84.5058 -75.6548 83.8668C-74.2809 83.2277 -73.0325 82.2911 -71.981 81.1103C-70.9295 79.9295 -70.0954 78.5277 -69.5263 76.985C-68.9573 75.4422 -68.6644 73.7887 -68.6644 72.1188V49.5431C-68.6633 47.3434 -69.1673 45.1806 -70.1277 43.2634L-79.0475 25.5981ZM-91.0159 87.4366C-92.1152 87.4356 -93.1828 87.0235 -94.0503 86.2654C-94.9178 85.5073 -95.5358 84.4464 -95.8068 83.2501V80.6287C-95.5397 79.4268 -94.9238 78.359 -94.0563 77.5938C-93.1888 76.8287 -92.119 76.4097 -91.0159 76.4031C-89.7083 76.4031 -88.4543 76.9864 -87.5297 78.0246C-86.6051 79.0629 -86.0857 80.4711 -86.0857 81.9394C-86.0949 83.4009 -86.6184 84.7991 -87.542 85.8289C-88.4656 86.8587 -89.7143 87.4366 -91.0159 87.4366V87.4366ZM-79.9882 78.9658H-81.2077C-81.7887 76.5412 -83.0636 74.3984 -84.836 72.8677C-86.6084 71.337 -88.7799 70.5033 -91.0159 70.4951C-93.2534 70.4967 -95.4278 71.3279 -97.2013 72.8596C-98.9749 74.3914 -100.248 76.5379 -100.824 78.9658H-115.563V25.0308H-88.9602C-87.8744 25.0198 -86.8056 25.3328 -85.8628 25.9378C-84.9201 26.5427 -84.1373 27.4179 -83.5944 28.4738L-75.7548 44.0068H-105.528V49.8757H-73.8908V72.0992C-73.8885 73 -74.0445 73.8925 -74.3499 74.7255C-74.6553 75.5585 -75.1041 76.3156 -75.6705 76.9535C-76.2369 77.5913 -76.9099 78.0974 -77.6508 78.4428C-78.3917 78.7881 -79.186 78.9658 -79.9882 78.9658ZM-168.837 78.9658H-185.474V51.9494H-190.701V84.776H-168.785C-168.206 87.2023 -166.932 89.347 -165.159 90.8782C-163.386 92.4094 -161.213 93.2419 -158.977 93.2468C-156.283 93.2468 -153.699 92.0452 -151.795 89.9063C-149.89 87.7674 -148.82 84.8664 -148.82 81.8416C-148.825 78.8183 -149.896 75.9204 -151.8 73.7826C-153.704 71.6448 -156.284 70.4415 -158.977 70.4364C-161.22 70.4447 -163.398 71.2856 -165.172 72.8283C-166.946 74.3709 -168.216 76.5286 -168.785 78.9658H-168.837ZM-159.029 76.3639C-158.381 76.3639 -157.74 76.5072 -157.142 76.7854C-156.544 77.0636 -156 77.4714 -155.543 77.9855C-155.085 78.4996 -154.722 79.1099 -154.474 79.7816C-154.226 80.4533 -154.099 81.1732 -154.099 81.9003C-154.099 82.6273 -154.226 83.3472 -154.474 84.0189C-154.722 84.6906 -155.085 85.3009 -155.543 85.815C-156 86.3291 -156.544 86.7369 -157.142 87.0152C-157.74 87.2934 -158.381 87.4366 -159.029 87.4366C-160.321 87.4109 -161.553 86.8164 -162.459 85.7809C-163.365 84.7454 -163.872 83.3518 -163.872 81.9003C-163.872 80.4387 -163.357 79.0364 -162.44 77.9993C-161.523 76.9621 -160.278 76.3743 -158.977 76.3639H-159.029ZM-172.199 26.7327H-200.77V20.8638H-172.199V26.7327ZM-194.464 35.0666H-170.771V40.9355H-194.464V35.0666ZM-152.356 59.5203L-164.168 46.2566L-160.388 42.1679L-152.269 51.2842L-134.256 30.8996L-130.562 35.047L-152.356 59.5203ZM74.9049 26.7131L53.1108 51.1864L41.2817 37.9032L44.975 33.7558L53.1108 42.8722L71.2116 22.6049L74.9049 26.7131ZM290.546 26.9479L268.752 51.4212L256.923 38.1379L260.634 33.9906L268.752 43.1265L286.853 22.8005L290.546 26.9479ZM435.422 18.888C435.422 16.8126 436.156 14.8222 437.463 13.3547C438.77 11.8872 440.542 11.0628 442.391 11.0628H493.958C495.575 11.0628 497.126 11.7842 498.269 13.0682C499.413 14.3523 500.055 16.0939 500.055 17.9098V23.5635H531.953C533.018 23.5801 534.06 23.9082 534.976 24.5155C535.893 25.1228 536.652 25.9882 537.18 27.0262L545.176 42.5592H511.344C509.728 42.554 508.18 41.8309 507.038 40.548C505.895 39.265 505.251 37.5265 505.247 35.7121V34.8122H500.02V35.7121C500.025 39.083 501.219 42.3143 503.342 44.6979C505.465 47.0815 508.342 48.4229 511.344 48.428H546.918V69.6734C546.918 71.7488 546.184 73.7392 544.877 75.2067C543.571 76.6742 541.798 77.4986 539.95 77.4986H539.584C539.003 75.074 537.728 72.9312 535.956 71.4005C534.183 69.8697 532.012 69.036 529.776 69.0278C527.538 69.0294 525.364 69.8607 523.59 71.3924C521.817 72.9241 520.543 75.0707 519.968 77.4986H482.163V83.3675H520.02C520.596 85.7954 521.869 87.942 523.643 89.4737C525.416 91.0054 527.591 91.8367 529.828 91.8383C532.064 91.8301 534.236 90.9964 536.008 89.4656C537.78 87.9349 539.055 85.7921 539.636 83.3675H539.95C543.184 83.3675 546.286 81.9247 548.573 79.3566C550.86 76.7885 552.145 73.3053 552.145 69.6734V44.7111L541.692 24.1308C540.703 22.1786 539.271 20.5549 537.542 19.4245C535.814 18.2942 533.849 17.6974 531.849 17.6946H505.281C505.222 14.3628 504.004 11.1893 501.888 8.85309C499.772 6.51686 496.925 5.20346 493.958 5.1939H442.391C439.156 5.1939 436.054 6.63667 433.767 9.2048C431.48 11.7729 430.196 15.2561 430.196 18.888V83.4457H435.422V18.888ZM529.88 85.9694C528.573 85.9694 527.319 85.3861 526.394 84.3478C525.47 83.3096 524.95 81.9014 524.95 80.433C524.95 78.9647 525.47 77.5565 526.394 76.5183C527.319 75.48 528.573 74.8967 529.88 74.8967C531.173 74.9224 532.405 75.517 533.31 76.5525C534.216 77.5879 534.724 78.9815 534.724 80.433C534.724 81.8946 534.209 83.2969 533.292 84.3341C532.375 85.3712 531.13 85.959 529.828 85.9694H529.88ZM452.059 77.2052H445.457V83.0741H451.92C452.452 85.5678 453.715 87.7881 455.507 89.3778C457.299 90.9675 459.514 91.8341 461.798 91.8383C464.49 91.8331 467.071 90.6298 468.975 88.4921C470.878 86.3543 471.95 83.4563 471.954 80.433C471.95 77.4098 470.878 74.5118 468.975 72.3741C467.071 70.2363 464.49 69.033 461.798 69.0278C459.597 69.0126 457.451 69.8023 455.684 71.2775C453.918 72.7527 452.627 74.8334 452.007 77.2052H452.059ZM466.728 80.433C466.728 81.9014 466.209 83.3096 465.284 84.3478C464.359 85.3861 463.105 85.9694 461.798 85.9694C460.489 85.9694 459.233 85.3867 458.306 84.349C457.378 83.3113 456.855 81.9032 456.85 80.433C456.855 78.9629 457.378 77.5548 458.306 76.5171C459.233 75.4794 460.489 74.8967 461.798 74.8967C463.096 74.9122 464.337 75.5023 465.25 76.5389C466.164 77.5755 466.676 78.9748 466.676 80.433H466.728ZM-284.079 48.0368C-284.083 45.8352 -284.593 43.672 -285.56 41.7571L-294.48 24.1504C-295.469 22.1981 -296.901 20.5744 -298.63 19.4441C-300.358 18.3137 -302.322 17.7169 -304.323 17.7142H-330.943C-331.002 14.3824 -332.22 11.2089 -334.336 8.87264C-336.452 6.53641 -339.299 5.22302 -342.266 5.21346H-394.757C-397.747 5.23408 -400.608 6.57958 -402.719 8.95727C-404.83 11.335 -406.019 14.5525 -406.029 17.9098V83.3675H-400.802V17.9098C-400.802 16.0939 -400.16 14.3523 -399.016 13.0682C-397.873 11.7842 -396.322 11.0628 -394.705 11.0628H-342.266C-340.685 11.067 -339.167 11.761 -338.032 12.9984C-336.898 14.2357 -336.236 15.9196 -336.186 17.6946V17.6946V77.4986H-354.061V83.3675H-316.204C-315.628 85.7954 -314.355 87.942 -312.581 89.4737C-310.808 91.0054 -308.633 91.8367 -306.396 91.8383C-304.16 91.8301 -301.988 90.9964 -300.216 89.4656C-298.444 87.9349 -297.169 85.7921 -296.588 83.3675H-295.351C-292.349 83.3623 -289.471 82.021 -287.349 79.6374C-285.226 77.2538 -284.032 74.0225 -284.027 70.6516L-284.079 48.0368ZM-306.396 85.9694C-307.703 85.9694 -308.957 85.3861 -309.882 84.3478C-310.807 83.3096 -311.326 81.9014 -311.326 80.433C-311.326 78.9647 -310.807 77.5565 -309.882 76.5183C-308.957 75.48 -307.703 74.8967 -306.396 74.8967C-305.094 74.9071 -303.849 75.4949 -302.932 76.5321C-302.015 77.5692 -301.5 78.9715 -301.5 80.433C-301.5 81.8946 -302.015 83.2969 -302.932 84.3341C-303.849 85.3712 -305.094 85.959 -306.396 85.9694ZM-295.351 77.4986H-296.588C-297.169 75.074 -298.444 72.9312 -300.216 71.4005C-301.988 69.8697 -304.16 69.036 -306.396 69.0278C-308.633 69.0294 -310.808 69.8607 -312.581 71.3924C-314.355 72.9241 -315.628 75.0707 -316.204 77.4986H-330.943V23.5635H-304.27C-303.206 23.5801 -302.164 23.9082 -301.248 24.5155C-300.331 25.1228 -299.572 25.9882 -299.044 27.0262L-291.048 42.5592H-320.908V48.428H-289.306V70.6516C-289.305 72.4574 -289.941 74.1901 -291.073 75.4725C-292.205 76.7549 -293.743 77.4831 -295.351 77.4986V77.4986ZM-390.82 77.2052V83.0741H-384.356C-383.828 85.5662 -382.568 87.786 -380.779 89.3759C-378.991 90.9658 -376.777 91.8332 -374.496 91.8383C-371.801 91.8383 -369.215 90.6373 -367.308 88.4989C-365.4 86.3606 -364.326 83.4597 -364.322 80.433C-364.326 77.4064 -365.4 74.5055 -367.308 72.3672C-369.215 70.2288 -371.801 69.0278 -374.496 69.0278C-376.685 69.0296 -378.815 69.8271 -380.568 71.3011C-382.32 72.775 -383.6 74.8463 -384.217 77.2052H-390.82ZM-374.496 74.8967C-373.187 74.8967 -371.931 75.4794 -371.004 76.5171C-370.076 77.5548 -369.553 78.9629 -369.548 80.433C-369.553 81.9032 -370.076 83.3113 -371.004 84.349C-371.931 85.3867 -373.187 85.9694 -374.496 85.9694C-375.803 85.9694 -377.057 85.3861 -377.982 84.3478C-378.907 83.3096 -379.426 81.9014 -379.426 80.433C-379.426 79.706 -379.299 78.9861 -379.051 78.3144C-378.803 77.6427 -378.44 77.0324 -377.982 76.5183C-377.524 76.0042 -376.981 75.5964 -376.383 75.3182C-375.784 75.0399 -375.143 74.8967 -374.496 74.8967ZM-371.395 59.7746L-383.224 46.4913L-379.531 42.344L-371.395 51.4799L-353.294 31.1735L-349.601 35.3209L-371.395 59.7746ZM557.267 278.469L547.615 259.317C546.779 257.663 545.569 256.287 544.106 255.328C542.644 254.37 540.981 253.863 539.288 253.859H511.605C511.546 250.529 510.328 247.357 508.211 245.024C506.094 242.691 503.248 241.382 500.282 241.378H426.45V247.246H500.282C501.861 247.246 503.38 247.935 504.514 249.169C505.649 250.404 506.312 252.086 506.362 253.859V253.859V291.028H439.08V296.897H506.344V313.702H488.383V319.571H526.344C526.978 322.246 528.457 324.571 530.506 326.112C532.554 327.653 535.032 328.304 537.476 327.945C539.921 327.586 542.166 326.24 543.792 324.16C545.418 322.079 546.315 319.405 546.315 316.636C546.315 313.868 545.418 311.194 543.792 309.113C542.166 307.032 539.921 305.687 537.476 305.327C535.032 304.968 532.554 305.62 530.506 307.161C528.457 308.702 526.978 311.026 526.344 313.702H511.605V286.92H553.277V316.656H558.504V283.77C558.509 281.913 558.083 280.085 557.267 278.469V278.469ZM536.152 311.119C537.077 311.12 537.983 311.412 538.767 311.963C539.551 312.514 540.181 313.302 540.586 314.236C540.99 315.17 541.152 316.213 541.053 317.246C540.955 318.279 540.599 319.26 540.028 320.076C539.457 320.893 538.692 321.513 537.822 321.865C536.952 322.217 536.011 322.287 535.107 322.066C534.203 321.846 533.372 321.345 532.71 320.62C532.048 319.895 531.58 318.976 531.361 317.967V315.365C531.622 314.158 532.236 313.083 533.104 312.314C533.973 311.544 535.046 311.124 536.152 311.119V311.119ZM511.605 259.786H539.288C540.058 259.787 540.814 260.017 541.478 260.453C542.142 260.89 542.691 261.517 543.068 262.271L552.563 281.051H511.605V259.786ZM468.192 328.061C470.088 328.062 471.947 327.467 473.558 326.343C475.169 325.219 476.468 323.611 477.307 321.701C478.146 319.791 478.492 317.655 478.305 315.536C478.119 313.416 477.408 311.398 476.253 309.709C475.098 308.019 473.544 306.727 471.769 305.979C469.993 305.23 468.066 305.054 466.206 305.472C464.346 305.89 462.628 306.884 461.245 308.342C459.863 309.8 458.871 311.663 458.383 313.721H447.93V319.59H458.383C458.962 322.017 460.236 324.161 462.009 325.692C463.782 327.224 465.955 328.056 468.192 328.061V328.061ZM468.192 311.119C469.168 311.112 470.125 311.43 470.94 312.033C471.755 312.637 472.393 313.499 472.771 314.51C473.15 315.521 473.252 316.635 473.066 317.712C472.88 318.788 472.413 319.778 471.725 320.557C471.037 321.335 470.158 321.866 469.201 322.083C468.244 322.3 467.251 322.192 466.348 321.774C465.445 321.356 464.673 320.647 464.13 319.736C463.586 318.824 463.296 317.752 463.296 316.656C463.296 315.194 463.811 313.792 464.728 312.755C465.645 311.718 466.89 311.13 468.192 311.119V311.119ZM455.021 261.488H426.45V255.619H455.021V261.488ZM432.757 269.822H456.45V275.691H432.757V269.822ZM487.825 276.2C489.88 273.756 491.006 270.51 490.963 267.15C490.92 263.79 489.712 260.581 487.596 258.204C485.48 255.828 482.623 254.472 479.63 254.424C476.638 254.376 473.747 255.64 471.571 257.947V257.947C470.502 259.145 469.655 260.567 469.076 262.133C468.497 263.699 468.2 265.378 468.2 267.073C468.2 268.769 468.497 270.448 469.076 272.014C469.655 273.58 470.502 275.002 471.571 276.2L479.689 285.316L487.825 276.2ZM476.728 263.738C477.313 263.083 478.058 262.637 478.869 262.458C479.68 262.278 480.519 262.372 481.283 262.728C482.046 263.083 482.698 263.685 483.157 264.457C483.616 265.229 483.86 266.136 483.86 267.064C483.86 267.992 483.616 268.899 483.157 269.67C482.698 270.442 482.046 271.044 481.283 271.4C480.519 271.756 479.68 271.85 478.869 271.67C478.058 271.49 477.313 271.044 476.728 270.389C476.338 269.953 476.029 269.435 475.818 268.864C475.607 268.293 475.498 267.682 475.498 267.064C475.498 266.446 475.607 265.834 475.818 265.263C476.029 264.692 476.338 264.174 476.728 263.738V263.738ZM339.099 260.354C338.101 258.384 336.653 256.749 334.904 255.618C333.156 254.486 331.17 253.899 329.152 253.917H302.497C302.438 250.587 301.219 247.416 299.103 245.083C296.986 242.75 294.139 241.441 291.173 241.436H217.394V247.305H291.226C292.805 247.304 294.324 247.994 295.458 249.228C296.593 250.462 297.256 252.144 297.306 253.917V253.917V291.087H232.638V286.705H227.411V319.59H249.327C249.962 322.266 251.441 324.59 253.489 326.131C255.538 327.672 258.015 328.324 260.46 327.965C262.904 327.605 265.149 326.26 266.776 324.179C268.402 322.098 269.299 319.424 269.299 316.656C269.299 313.887 268.402 311.213 266.776 309.132C265.149 307.052 262.904 305.706 260.46 305.347C258.015 304.988 255.538 305.639 253.489 307.18C251.441 308.721 249.962 311.046 249.327 313.721H232.638V296.917H297.288V313.721H280.372V319.59H317.375C317.949 322.017 319.221 324.162 320.993 325.693C322.766 327.224 324.939 328.053 327.174 328.053C329.41 328.053 331.583 327.224 333.356 325.693C335.128 324.162 336.4 322.017 336.974 319.59H338.211C341.214 319.59 344.094 318.251 346.218 315.866C348.342 313.481 349.535 310.247 349.535 306.874V284.299C349.536 282.099 349.032 279.936 348.071 278.019L339.099 260.354ZM259.135 311.119C260.112 311.112 261.069 311.43 261.884 312.033C262.699 312.637 263.337 313.499 263.715 314.51C264.094 315.521 264.196 316.635 264.01 317.712C263.824 318.788 263.357 319.778 262.669 320.557C261.981 321.335 261.102 321.866 260.145 322.083C259.188 322.3 258.195 322.192 257.292 321.774C256.389 321.356 255.617 320.647 255.073 319.736C254.53 318.824 254.24 317.752 254.24 316.656C254.24 315.194 254.755 313.792 255.672 312.755C256.589 311.718 257.834 311.13 259.135 311.119V311.119ZM327.079 322.192C325.982 322.19 324.917 321.777 324.052 321.019C323.187 320.261 322.573 319.2 322.305 318.006V315.365C322.521 314.354 322.986 313.431 323.647 312.703C324.308 311.975 325.139 311.471 326.043 311.248C326.947 311.025 327.889 311.093 328.761 311.443C329.633 311.794 330.399 312.413 330.972 313.229C331.545 314.046 331.902 315.027 332.001 316.061C332.101 317.095 331.939 318.139 331.535 319.074C331.13 320.009 330.499 320.798 329.714 321.349C328.929 321.901 328.022 322.193 327.096 322.192H327.079ZM344.204 306.874C344.204 308.69 343.561 310.432 342.418 311.716C341.274 313 339.724 313.721 338.106 313.721H336.869C336.296 311.295 335.024 309.149 333.251 307.619C331.479 306.088 329.306 305.258 327.07 305.258C324.834 305.258 322.661 306.088 320.889 307.619C319.116 309.149 317.844 311.295 317.27 313.721H302.532V259.786H329.152C330.238 259.775 331.306 260.088 332.249 260.693C333.192 261.298 333.975 262.173 334.518 263.229L343.437 280.836C343.958 281.868 344.228 283.035 344.221 284.22L344.204 306.874ZM245.948 261.488H217.377V255.619H245.948V261.488ZM223.683 269.822H247.376V275.691H223.683V269.822ZM129.991 260.354C128.997 258.393 127.557 256.763 125.819 255.633C124.08 254.502 122.105 253.91 120.096 253.917H93.4412C93.382 250.587 92.1633 247.416 90.0466 245.083C87.9298 242.75 85.0834 241.441 82.1173 241.436H8.33796V247.305H82.1696C83.7495 247.304 85.2675 247.994 86.4024 249.228C87.5373 250.462 88.1998 252.144 88.2496 253.917V253.917V313.721H70.2708V319.59H108.232C108.806 322.017 110.078 324.162 111.85 325.693C113.622 327.224 115.796 328.053 118.031 328.053C120.267 328.053 122.44 327.224 124.213 325.693C125.985 324.162 127.257 322.017 127.831 319.59H129.068C132.071 319.59 134.951 318.251 137.075 315.866C139.199 313.481 140.392 310.247 140.392 306.874V284.299C140.393 282.099 139.889 279.936 138.928 278.019L129.991 260.354ZM118.023 322.192C116.926 322.19 115.861 321.777 114.996 321.019C114.131 320.261 113.517 319.2 113.249 318.006V315.365C113.465 314.354 113.93 313.431 114.591 312.703C115.252 311.975 116.083 311.471 116.987 311.248C117.891 311.025 118.833 311.093 119.705 311.443C120.577 311.794 121.343 312.413 121.916 313.229C122.489 314.046 122.846 315.027 122.945 316.061C123.045 317.095 122.883 318.139 122.478 319.074C122.074 320.009 121.443 320.798 120.658 321.349C119.873 321.901 118.966 322.193 118.04 322.192H118.023ZM129.05 313.721H127.813C127.24 311.295 125.968 309.149 124.195 307.619C122.423 306.088 120.25 305.258 118.014 305.258C115.778 305.258 113.605 306.088 111.833 307.619C110.06 309.149 108.788 311.295 108.214 313.721H93.476V259.786H120.096C121.182 259.775 122.25 260.088 123.193 260.693C124.136 261.298 124.919 262.173 125.462 263.229L133.301 278.762H103.528V284.631H135.165V306.874C135.165 307.774 135.008 308.664 134.701 309.495C134.395 310.325 133.946 311.08 133.379 311.716C132.813 312.352 132.141 312.856 131.401 313.2C130.661 313.544 129.869 313.721 129.068 313.721H129.05ZM40.2016 313.721H23.5816V286.705H18.3552V319.59H40.2712C40.9056 322.266 42.3849 324.59 44.4332 326.131C46.4815 327.672 48.9591 328.324 51.4037 327.965C53.8483 327.605 56.0932 326.26 57.7195 324.179C59.3458 322.098 60.2426 319.424 60.2426 316.656C60.2426 313.887 59.3458 311.213 57.7195 309.132C56.0932 307.052 53.8483 305.706 51.4037 305.347C48.9591 304.988 46.4815 305.639 44.4332 307.18C42.3849 308.721 40.9056 311.046 40.2712 313.721H40.2016ZM54.94 316.656C54.94 317.751 54.6508 318.821 54.1091 319.732C53.5674 320.642 52.7974 321.352 51.8965 321.771C50.9956 322.19 50.0043 322.299 49.0479 322.086C48.0916 321.872 47.2131 321.345 46.5236 320.571C45.8341 319.796 45.3645 318.81 45.1743 317.736C44.9841 316.662 45.0817 315.549 45.4548 314.537C45.828 313.526 46.4599 312.661 47.2707 312.053C48.0814 311.444 49.0347 311.119 50.0098 311.119C50.6631 311.109 51.3117 311.245 51.9179 311.518C52.5242 311.792 53.0759 312.198 53.5411 312.713C54.0064 313.228 54.3757 313.842 54.6278 314.519C54.88 315.196 55.0098 315.922 55.0097 316.656H54.94ZM36.8392 261.488H8.26826V255.619H36.8392V261.488ZM14.5748 269.822H38.2678V275.691H14.5748V269.822ZM-85.4411 258.886C-86.4305 256.934 -87.8622 255.31 -89.5909 254.18C-91.3196 253.05 -93.2838 252.453 -95.2842 252.45H-121.887C-121.946 249.118 -123.164 245.945 -125.28 243.609C-127.396 241.272 -130.243 239.959 -133.21 239.949H-185.701C-188.703 239.955 -191.58 241.296 -193.703 243.68C-195.826 246.063 -197.02 249.294 -197.025 252.665V318.123H-191.798V252.665C-191.798 250.849 -191.156 249.108 -190.012 247.824C-188.869 246.54 -187.318 245.818 -185.701 245.818H-133.21C-131.629 245.823 -130.111 246.517 -128.976 247.754C-127.842 248.991 -127.18 250.675 -127.13 252.45V252.45V312.254H-145.005V318.123H-107.148C-106.568 320.546 -105.292 322.686 -103.519 324.213C-101.746 325.739 -99.5741 326.567 -97.3399 326.567C-95.1056 326.567 -92.9337 325.739 -91.1605 324.213C-89.3873 322.686 -88.1118 320.546 -87.5316 318.123H-86.2947C-83.2929 318.118 -80.4153 316.776 -78.2926 314.393C-76.17 312.009 -74.9755 308.778 -74.9709 305.407V282.792C-74.9744 280.591 -75.4845 278.428 -76.4517 276.513L-85.4411 258.886ZM-97.4096 320.725C-98.3832 320.717 -99.3329 320.386 -100.139 319.773C-100.945 319.16 -101.572 318.293 -101.94 317.28C-102.307 316.268 -102.4 315.156 -102.206 314.085C-102.012 313.013 -101.539 312.031 -100.849 311.26C-100.158 310.49 -99.2792 309.966 -98.3238 309.756C-97.3684 309.546 -96.3789 309.657 -95.48 310.078C-94.5812 310.498 -93.8132 311.207 -93.273 312.117C-92.7328 313.026 -92.4445 314.095 -92.4445 315.189C-92.4444 316.65 -92.9591 318.052 -93.8762 319.09C-94.7932 320.127 -96.0383 320.715 -97.3399 320.725H-97.4096ZM-86.3644 312.254H-87.6013C-88.1815 309.831 -89.457 307.691 -91.2302 306.164C-93.0033 304.638 -95.1753 303.811 -97.4096 303.811C-99.6438 303.811 -101.816 304.638 -103.589 306.164C-105.362 307.691 -106.638 309.831 -107.218 312.254H-121.887V258.319H-95.2145C-94.1503 258.336 -93.1084 258.664 -92.1918 259.271C-91.2752 259.878 -90.5155 260.744 -89.9881 261.782L-81.9917 277.315H-111.852V283.184H-80.2495V305.407C-80.2495 307.213 -80.8847 308.946 -82.0169 310.228C-83.1491 311.51 -84.6867 312.239 -86.2947 312.254H-86.3644ZM-175.213 311.961H-181.816V317.83H-175.353C-174.782 320.523 -173.358 322.891 -171.347 324.492C-169.336 326.094 -166.875 326.819 -164.423 326.533C-161.97 326.247 -159.695 324.969 -158.02 322.938C-156.345 320.907 -155.385 318.26 -155.319 315.493C-155.253 312.726 -156.086 310.026 -157.662 307.897C-159.239 305.768 -161.451 304.356 -163.886 303.924C-166.321 303.491 -168.813 304.068 -170.897 305.547C-172.981 307.026 -174.515 309.305 -175.213 311.961V311.961ZM-165.492 309.652C-164.517 309.652 -163.564 309.977 -162.753 310.585C-161.942 311.194 -161.31 312.058 -160.937 313.07C-160.564 314.082 -160.466 315.195 -160.657 316.269C-160.847 317.343 -161.316 318.329 -162.006 319.103C-162.695 319.878 -163.574 320.405 -164.53 320.619C-165.487 320.832 -166.478 320.723 -167.379 320.303C-168.28 319.884 -169.05 319.175 -169.591 318.264C-170.133 317.354 -170.422 316.284 -170.422 315.189C-170.42 314.457 -170.289 313.734 -170.037 313.059C-169.786 312.385 -169.418 311.773 -168.955 311.259C-168.492 310.744 -167.943 310.338 -167.34 310.062C-166.737 309.786 -166.091 309.647 -165.44 309.652H-165.492ZM-284.079 283.379L-297.685 256.363H-330.943V243.862H-406.029V322.114H-384.165C-383.585 324.537 -382.309 326.677 -380.536 328.204C-378.763 329.73 -376.591 330.557 -374.357 330.557C-372.122 330.557 -369.95 329.73 -368.177 328.204C-366.404 326.677 -365.129 324.537 -364.548 322.114H-316.03C-315.45 324.537 -314.174 326.677 -312.401 328.204C-310.628 329.73 -308.456 330.557 -306.222 330.557C-303.987 330.557 -301.815 329.73 -300.042 328.204C-298.269 326.677 -296.994 324.537 -296.413 322.114H-284.079V283.379ZM-300.734 262.232L-291.048 281.227H-330.943V262.232H-300.734ZM-374.357 324.638C-375.332 324.641 -376.287 324.32 -377.1 323.714C-377.913 323.108 -378.548 322.245 -378.924 321.233C-379.3 320.222 -379.4 319.108 -379.212 318.033C-379.023 316.958 -378.555 315.97 -377.866 315.193C-377.178 314.417 -376.299 313.888 -375.342 313.673C-374.385 313.458 -373.393 313.566 -372.491 313.984C-371.589 314.403 -370.818 315.113 -370.276 316.023C-369.733 316.934 -369.444 318.005 -369.444 319.101C-369.444 320.566 -369.961 321.971 -370.882 323.009C-371.802 324.047 -373.052 324.632 -374.357 324.638V324.638ZM-364.548 316.167C-365.129 313.744 -366.404 311.603 -368.177 310.077C-369.95 308.551 -372.122 307.723 -374.357 307.723C-376.591 307.723 -378.763 308.551 -380.536 310.077C-382.309 311.603 -383.585 313.744 -384.165 316.167H-400.802V249.653H-336.169V256.285V316.167H-364.548ZM-306.222 324.638C-307.197 324.638 -308.15 324.313 -308.961 323.704C-309.772 323.096 -310.403 322.231 -310.777 321.22C-311.15 320.208 -311.247 319.095 -311.057 318.021C-310.867 316.947 -310.397 315.961 -309.708 315.186C-309.018 314.412 -308.14 313.885 -307.184 313.671C-306.227 313.458 -305.236 313.567 -304.335 313.986C-303.434 314.405 -302.664 315.115 -302.122 316.025C-301.581 316.936 -301.291 318.006 -301.291 319.101C-301.291 320.569 -301.811 321.978 -302.735 323.016C-303.66 324.054 -304.914 324.638 -306.222 324.638V324.638ZM-296.413 316.167C-296.994 313.744 -298.269 311.603 -300.042 310.077C-301.815 308.551 -303.987 307.723 -306.222 307.723C-308.456 307.723 -310.628 308.551 -312.401 310.077C-314.174 311.603 -315.45 313.744 -316.03 316.167H-330.943V287.096H-289.306V316.167H-296.413ZM-296.222 547.01H-296.588C-297.168 544.587 -298.443 542.446 -300.217 540.92C-301.99 539.393 -304.162 538.566 -306.396 538.566C-308.63 538.566 -310.802 539.393 -312.575 540.92C-314.348 542.446 -315.624 544.587 -316.204 547.01H-354.061V552.879H-316.204C-315.624 555.301 -314.348 557.442 -312.575 558.968C-310.802 560.495 -308.63 561.322 -306.396 561.322C-304.162 561.322 -301.99 560.495 -300.217 558.968C-298.443 557.442 -297.168 555.301 -296.588 552.879H-296.274C-293.04 552.879 -289.938 551.436 -287.651 548.868C-285.364 546.3 -284.079 542.816 -284.079 539.184V514.222L-294.532 493.642C-295.521 491.69 -296.953 490.066 -298.682 488.936C-300.41 487.805 -302.375 487.208 -304.375 487.206H-330.943C-331.002 483.874 -332.22 480.7 -334.336 478.364C-336.452 476.028 -339.299 474.715 -342.266 474.705H-393.834C-397.068 474.705 -400.17 476.148 -402.457 478.716C-404.744 481.284 -406.029 484.767 -406.029 488.399V552.957H-400.802V488.399C-400.802 486.324 -400.068 484.333 -398.761 482.866C-397.454 481.398 -395.682 480.574 -393.834 480.574H-342.266C-340.649 480.574 -339.098 481.295 -337.955 482.579C-336.811 483.863 -336.169 485.605 -336.169 487.421V493.075H-304.27C-303.206 493.091 -302.164 493.419 -301.248 494.027C-300.331 494.634 -299.572 495.499 -299.044 496.537L-291.048 512.07H-324.863C-326.48 512.07 -328.031 511.349 -329.174 510.065C-330.318 508.781 -330.96 507.039 -330.96 505.223V504.323H-336.186V505.223C-336.182 508.594 -334.987 511.825 -332.865 514.209C-330.742 516.593 -327.864 517.934 -324.863 517.939H-289.306V539.184C-289.306 541.26 -290.04 543.25 -291.347 544.718C-292.653 546.185 -294.426 547.01 -296.274 547.01H-296.222ZM-306.396 555.48C-307.372 555.488 -308.329 555.17 -309.144 554.566C-309.96 553.963 -310.597 553.101 -310.976 552.09C-311.354 551.079 -311.457 549.965 -311.27 548.888C-311.084 547.812 -310.617 546.822 -309.929 546.043C-309.241 545.265 -308.363 544.734 -307.405 544.517C-306.448 544.3 -305.455 544.408 -304.552 544.826C-303.649 545.243 -302.877 545.953 -302.334 546.864C-301.791 547.776 -301.501 548.847 -301.5 549.944C-301.5 551.406 -302.015 552.808 -302.932 553.845C-303.849 554.882 -305.094 555.47 -306.396 555.48V555.48ZM-384.217 546.716H-390.82V552.585H-384.356C-383.786 555.278 -382.362 557.647 -380.351 559.248C-378.34 560.849 -375.879 561.575 -373.426 561.289C-370.974 561.003 -368.698 559.725 -367.023 557.693C-365.348 555.662 -364.388 553.016 -364.323 550.249C-364.257 547.481 -365.09 544.781 -366.666 542.653C-368.242 540.524 -370.454 539.112 -372.89 538.679C-375.325 538.247 -377.817 538.824 -379.901 540.303C-381.985 541.781 -383.519 544.061 -384.217 546.716V546.716ZM-369.548 549.944C-369.545 551.044 -369.832 552.12 -370.374 553.036C-370.915 553.952 -371.687 554.668 -372.59 555.091C-373.494 555.515 -374.49 555.627 -375.45 555.415C-376.411 555.203 -377.295 554.675 -377.988 553.899C-378.682 553.123 -379.155 552.133 -379.347 551.055C-379.539 549.977 -379.443 548.858 -379.069 547.842C-378.695 546.826 -378.06 545.957 -377.246 545.346C-376.432 544.734 -375.475 544.408 -374.496 544.408C-373.187 544.408 -371.931 544.99 -371.004 546.028C-370.076 547.066 -369.553 548.474 -369.548 549.944V549.944ZM-121.887 491.118V478.618H-196.972V556.869H-175.056C-174.476 559.292 -173.201 561.433 -171.428 562.959C-169.654 564.486 -167.482 565.313 -165.248 565.313C-163.014 565.313 -160.842 564.486 -159.069 562.959C-157.296 561.433 -156.02 559.292 -155.44 556.869H-106.922C-106.341 559.292 -105.066 561.433 -103.293 562.959C-101.52 564.486 -99.3477 565.313 -97.1134 565.313C-94.8791 565.313 -92.7072 564.486 -90.934 562.959C-89.1608 561.433 -87.8854 559.292 -87.3052 556.869H-75.0231V518.135L-88.6815 491.118H-121.887ZM-91.6779 496.987L-81.9917 515.983H-121.887V496.987H-91.6779ZM-165.301 559.393C-166.276 559.393 -167.229 559.068 -168.04 558.46C-168.85 557.852 -169.482 556.987 -169.855 555.975C-170.229 554.964 -170.326 553.851 -170.136 552.777C-169.946 551.703 -169.476 550.716 -168.787 549.942C-168.097 549.168 -167.219 548.64 -166.262 548.427C-165.306 548.213 -164.315 548.323 -163.414 548.742C-162.513 549.161 -161.743 549.87 -161.201 550.781C-160.659 551.691 -160.37 552.762 -160.37 553.857C-160.37 555.325 -160.89 556.733 -161.814 557.772C-162.739 558.81 -163.993 559.393 -165.301 559.393V559.393ZM-155.492 550.922C-156.072 548.499 -157.348 546.359 -159.121 544.833C-160.894 543.306 -163.066 542.479 -165.301 542.479C-167.535 542.479 -169.707 543.306 -171.48 544.833C-173.253 546.359 -174.529 548.499 -175.109 550.922H-191.746V484.408H-127.113V491.04V550.844L-155.492 550.922ZM-97.1657 559.393C-98.1408 559.393 -99.094 559.068 -99.9047 558.46C-100.716 557.852 -101.347 556.987 -101.721 555.975C-102.094 554.964 -102.191 553.851 -102.001 552.777C-101.811 551.703 -101.341 550.716 -100.652 549.942C-99.9623 549.168 -99.0839 548.64 -98.1275 548.427C-97.1711 548.213 -96.1798 548.323 -95.2789 548.742C-94.378 549.161 -93.608 549.87 -93.0663 550.781C-92.5246 551.691 -92.2354 552.762 -92.2354 553.857C-92.2354 555.325 -92.7549 556.733 -93.6795 557.772C-94.6041 558.81 -95.8581 559.393 -97.1657 559.393V559.393ZM-87.3574 550.922C-87.9376 548.499 -89.2131 546.359 -90.9863 544.833C-92.7594 543.306 -94.9314 542.479 -97.1657 542.479C-99.3999 542.479 -101.572 543.306 -103.345 544.833C-105.118 546.359 -106.394 548.499 -106.974 550.922H-121.887V521.852H-80.2495V550.922H-87.3574ZM123.685 495.109C122.695 493.157 121.263 491.533 119.535 490.403C117.806 489.272 115.842 488.676 113.842 488.673H87.1695C87.1103 485.343 85.8917 482.171 83.7749 479.838C81.6582 477.505 78.8117 476.196 75.8456 476.192H23.3551C20.3533 476.197 17.4757 477.538 15.3531 479.922C13.2304 482.305 12.0359 485.537 12.0313 488.908V554.346H17.2577V488.908C17.2577 487.092 17.9001 485.35 19.0436 484.066C20.1871 482.782 21.738 482.061 23.3551 482.061H75.8456C77.4255 482.06 78.9436 482.749 80.0785 483.984C81.2134 485.218 81.8759 486.9 81.9257 488.673V488.673V548.477H64.0514V554.346H101.908C102.488 556.769 103.764 558.909 105.537 560.436C107.31 561.962 109.482 562.789 111.716 562.789C113.95 562.789 116.122 561.962 117.896 560.436C119.669 558.909 120.944 556.769 121.524 554.346H122.761C125.763 554.341 128.641 552.999 130.763 550.616C132.886 548.232 134.081 545.001 134.085 541.63V519.054C134.08 516.853 133.57 514.69 132.604 512.774L123.685 495.109ZM111.716 556.948C110.741 556.948 109.788 556.623 108.977 556.015C108.166 555.406 107.534 554.542 107.161 553.53C106.788 552.518 106.69 551.405 106.881 550.331C107.071 549.257 107.54 548.271 108.23 547.497C108.919 546.722 109.798 546.195 110.754 545.981C111.711 545.768 112.702 545.877 113.603 546.296C114.504 546.716 115.274 547.425 115.815 548.336C116.357 549.246 116.646 550.316 116.646 551.411C116.646 552.88 116.127 554.288 115.202 555.326C114.278 556.364 113.024 556.948 111.716 556.948V556.948ZM122.761 548.477H121.524C120.944 546.054 119.669 543.914 117.896 542.387C116.122 540.861 113.95 540.033 111.716 540.033C109.482 540.033 107.31 540.861 105.537 542.387C103.764 543.914 102.488 546.054 101.908 548.477H87.1695V494.542H113.842C114.906 494.558 115.948 494.886 116.864 495.494C117.781 496.101 118.54 496.966 119.068 498.004L127.064 513.635H97.2042V519.504H128.806V541.728C128.784 543.517 128.139 545.224 127.009 546.486C125.879 547.747 124.354 548.462 122.761 548.477V548.477ZM43.6162 540.006C41.4275 540.011 39.2988 540.81 37.5471 542.283C35.7954 543.757 34.5145 545.826 33.895 548.184H27.2924V554.052H33.7557C34.1977 556.137 35.1539 558.04 36.5148 559.543C37.8757 561.046 39.5861 562.088 41.4501 562.549C43.314 563.011 45.256 562.873 47.0534 562.152C48.8508 561.43 50.4309 560.155 51.6126 558.472C52.7942 556.789 53.5295 554.766 53.7343 552.635C53.939 550.504 53.6049 548.351 52.7702 546.424C51.9355 544.496 50.6341 542.872 49.015 541.737C47.396 540.602 45.5248 540.002 43.6162 540.006V540.006ZM43.6162 556.948C42.6418 556.944 41.6903 556.616 40.8818 556.005C40.0733 555.394 39.4441 554.528 39.0736 553.517C38.7031 552.505 38.608 551.392 38.8002 550.319C38.9924 549.247 39.4633 548.262 40.1535 547.49C40.8437 546.717 41.7222 546.192 42.6781 545.98C43.634 545.768 44.6244 545.879 45.5243 546.298C46.4241 546.718 47.1931 547.428 47.7341 548.338C48.2751 549.248 48.5638 550.317 48.5638 551.411C48.5638 552.14 48.4357 552.862 48.1869 553.535C47.938 554.208 47.5733 554.819 47.1136 555.333C46.654 555.847 46.1084 556.255 45.5082 556.532C44.908 556.809 44.2651 556.95 43.6162 556.948V556.948ZM339.065 495.109C338.074 493.154 336.639 491.528 334.907 490.398C333.175 489.267 331.207 488.672 329.204 488.673H302.549C302.49 485.343 301.272 482.171 299.155 479.838C297.038 477.505 294.192 476.196 291.226 476.192H217.394V482.061H291.226C292.805 482.06 294.324 482.749 295.458 483.984C296.593 485.218 297.256 486.9 297.306 488.673V488.673V548.477H279.327V554.346H317.288C317.862 556.772 319.134 558.918 320.906 560.448C322.678 561.979 324.852 562.809 327.087 562.809C329.323 562.809 331.496 561.979 333.269 560.448C335.041 558.918 336.313 556.772 336.887 554.346H338.124C341.127 554.346 344.007 553.006 346.131 550.621C348.255 548.237 349.448 545.002 349.448 541.63V519.054C349.449 516.855 348.945 514.692 347.984 512.774L339.065 495.109ZM327.096 556.948C325.991 556.948 324.919 556.531 324.05 555.765C323.181 554.999 322.567 553.927 322.305 552.722V550.12C322.521 549.109 322.986 548.187 323.647 547.459C324.308 546.731 325.139 546.227 326.043 546.004C326.947 545.781 327.889 545.849 328.761 546.199C329.633 546.549 330.399 547.168 330.972 547.985C331.545 548.801 331.902 549.783 332.001 550.817C332.101 551.85 331.939 552.895 331.535 553.83C331.13 554.765 330.499 555.554 329.714 556.105C328.929 556.656 328.022 556.948 327.096 556.948V556.948ZM338.124 548.477H336.887C336.313 546.05 335.041 543.905 333.269 542.374C331.496 540.844 329.323 540.014 327.087 540.014C324.852 540.014 322.678 540.844 320.906 542.374C319.134 543.905 317.862 546.05 317.288 548.477H302.549V494.542H329.152C330.23 494.543 331.29 494.864 332.223 495.472C333.155 496.08 333.929 496.954 334.465 498.004L342.305 513.537H312.584V519.406H344.221V541.63C344.221 543.446 343.579 545.187 342.435 546.471C341.292 547.756 339.741 548.477 338.124 548.477V548.477ZM259.135 540.006C256.899 540.011 254.726 540.844 252.953 542.375C251.18 543.906 249.906 546.051 249.327 548.477H232.638V521.46H227.411V554.287H249.327C249.815 556.345 250.807 558.209 252.189 559.667C253.572 561.125 255.29 562.119 257.15 562.536C259.01 562.954 260.937 562.779 262.713 562.03C264.488 561.281 266.042 559.989 267.197 558.3C268.352 556.611 269.063 554.592 269.25 552.473C269.436 550.353 269.09 548.218 268.251 546.307C267.412 544.397 266.113 542.789 264.502 541.665C262.891 540.541 261.032 539.946 259.135 539.947V540.006ZM259.135 556.948C258.16 556.948 257.207 556.623 256.396 556.015C255.586 555.406 254.954 554.542 254.581 553.53C254.207 552.518 254.11 551.405 254.3 550.331C254.49 549.257 254.96 548.271 255.649 547.497C256.339 546.722 257.217 546.195 258.174 545.981C259.13 545.768 260.121 545.877 261.022 546.296C261.923 546.716 262.693 547.425 263.235 548.336C263.777 549.246 264.066 550.316 264.066 551.411C264.066 552.88 263.546 554.288 262.622 555.326C261.697 556.364 260.443 556.948 259.135 556.948V556.948ZM245.965 496.302H217.394V490.434H245.965V496.302ZM247.394 510.505H223.7V504.636H247.394V510.505ZM543.748 495.168C542.758 493.216 541.327 491.592 539.598 490.462C537.869 489.331 535.905 488.734 533.905 488.732H507.233C507.178 485.403 505.963 482.232 503.849 479.898C501.735 477.565 498.891 476.255 495.926 476.25H422.077V482.119H495.926C497.504 482.119 499.021 482.809 500.153 484.044C501.285 485.278 501.944 486.96 501.989 488.732V488.732V525.901H437.338V521.46H432.112V554.287H454.028C454.662 556.962 456.142 559.287 458.19 560.828C460.238 562.369 462.716 563.021 465.16 562.661C467.605 562.302 469.85 560.957 471.476 558.876C473.103 556.795 473.999 554.121 473.999 551.353C473.999 548.584 473.103 545.91 471.476 543.829C469.85 541.749 467.605 540.403 465.16 540.044C462.716 539.685 460.238 540.336 458.19 541.877C456.142 543.418 454.662 545.743 454.028 548.418H437.338V531.614H501.989V548.418H484.986V554.287H521.971C522.551 556.71 523.827 558.85 525.6 560.377C527.373 561.903 529.545 562.731 531.779 562.731C534.014 562.731 536.185 561.903 537.959 560.377C539.732 558.85 541.007 556.71 541.588 554.287H542.824C545.826 554.282 548.704 552.941 550.827 550.557C552.949 548.173 554.144 544.942 554.148 541.571V519.054C554.151 516.852 553.641 514.687 552.667 512.774L543.748 495.168ZM463.836 545.934C464.811 545.938 465.762 546.266 466.57 546.876C467.379 547.487 468.008 548.353 468.379 549.365C468.749 550.377 468.844 551.489 468.652 552.562C468.46 553.635 467.989 554.619 467.299 555.392C466.609 556.164 465.73 556.689 464.774 556.901C463.818 557.113 462.828 557.003 461.928 556.583C461.028 556.163 460.259 555.454 459.718 554.544C459.177 553.634 458.889 552.564 458.889 551.47C458.882 550.736 459.005 550.009 459.25 549.329C459.496 548.649 459.86 548.031 460.32 547.51C460.78 546.99 461.328 546.577 461.932 546.296C462.536 546.016 463.183 545.872 463.836 545.875V545.934ZM531.779 557.006C530.677 557.006 529.607 556.589 528.741 555.822C527.875 555.056 527.264 553.984 527.006 552.781V550.179C527.225 549.174 527.691 548.258 528.351 547.536C529.012 546.815 529.839 546.316 530.74 546.097C531.641 545.879 532.578 545.949 533.445 546.3C534.312 546.651 535.073 547.269 535.642 548.083C536.211 548.897 536.565 549.874 536.663 550.903C536.761 551.932 536.599 552.971 536.196 553.901C535.794 554.832 535.166 555.617 534.385 556.166C533.604 556.715 532.701 557.006 531.779 557.006ZM548.922 541.689C548.922 543.505 548.28 545.246 547.136 546.53C545.993 547.814 544.442 548.536 542.824 548.536H541.588C541.007 546.113 539.732 543.972 537.959 542.446C536.185 540.919 534.014 540.092 531.779 540.092C529.545 540.092 527.373 540.919 525.6 542.446C523.827 543.972 522.551 546.113 521.971 548.536H507.25V494.542H533.905C534.969 494.556 536.012 494.884 536.929 495.491C537.846 496.099 538.605 496.965 539.131 498.004L548.051 515.611C548.575 516.642 548.851 517.808 548.852 518.996L548.922 541.689ZM450.648 496.302H422.077V490.434H450.648V496.302ZM452.077 510.505H428.453V504.636H452.129L452.077 510.505ZM-287.738 728.828C-288.58 727.178 -289.795 725.806 -291.26 724.851C-292.725 723.896 -294.389 723.392 -296.082 723.389H-323.765C-323.82 720.061 -325.034 716.89 -327.148 714.556C-329.262 712.222 -332.107 710.913 -335.071 710.908H-408.92V716.777H-335.071C-333.493 716.781 -331.977 717.472 -330.843 718.706C-329.709 719.939 -329.045 721.618 -328.991 723.389V723.389V760.559H-396.273V766.428H-329.009V783.232H-346.988V789.101H-309.027C-308.392 791.777 -306.913 794.102 -304.865 795.642C-302.816 797.183 -300.339 797.835 -297.894 797.476C-295.449 797.117 -293.205 795.771 -291.578 793.69C-289.952 791.61 -289.055 788.935 -289.055 786.167C-289.055 783.398 -289.952 780.724 -291.578 778.644C-293.205 776.563 -295.449 775.217 -297.894 774.858C-300.339 774.499 -302.816 775.15 -304.865 776.691C-306.913 778.232 -308.392 780.557 -309.027 783.232H-323.748V756.431H-282.076V786.167H-276.849V753.282C-276.852 751.422 -277.284 749.596 -278.104 747.98L-287.738 728.828ZM-299.218 780.591C-298.293 780.588 -297.385 780.877 -296.599 781.426C-295.812 781.975 -295.18 782.761 -294.773 783.695C-294.366 784.629 -294.202 785.672 -294.298 786.706C-294.395 787.74 -294.749 788.722 -295.32 789.54C-295.89 790.359 -296.654 790.981 -297.525 791.334C-298.396 791.688 -299.337 791.759 -300.242 791.539C-301.147 791.32 -301.978 790.819 -302.642 790.094C-303.305 789.369 -303.773 788.448 -303.992 787.439V784.837C-303.728 783.638 -303.114 782.573 -302.249 781.811C-301.385 781.049 -300.318 780.634 -299.218 780.631V780.591ZM-323.748 729.297H-296.082C-295.313 729.298 -294.556 729.526 -293.89 729.959C-293.223 730.392 -292.67 731.014 -292.285 731.762L-282.807 750.562H-323.748V729.297ZM-367.162 774.762C-369.399 774.763 -371.573 775.595 -373.347 777.126C-375.121 778.658 -376.394 780.804 -376.97 783.232H-387.423V789.101H-376.97C-376.482 791.159 -375.49 793.023 -374.108 794.481C-372.725 795.939 -371.007 796.933 -369.147 797.351C-367.287 797.768 -365.36 797.593 -363.584 796.844C-361.809 796.095 -360.255 794.803 -359.1 793.114C-357.945 791.425 -357.234 789.407 -357.047 787.287C-356.861 785.167 -357.207 783.032 -358.046 781.122C-358.885 779.212 -360.184 777.603 -361.795 776.479C-363.406 775.355 -365.265 774.76 -367.162 774.762V774.762ZM-367.162 791.703C-368.137 791.703 -369.09 791.379 -369.901 790.77C-370.711 790.162 -371.343 789.297 -371.716 788.286C-372.09 787.274 -372.187 786.161 -371.997 785.087C-371.807 784.013 -371.337 783.026 -370.648 782.252C-369.958 781.478 -369.08 780.951 -368.123 780.737C-367.167 780.523 -366.176 780.633 -365.275 781.052C-364.374 781.471 -363.604 782.181 -363.062 783.091C-362.52 784.001 -362.231 785.072 -362.231 786.167C-362.236 787.634 -362.757 789.039 -363.68 790.076C-364.604 791.113 -365.855 791.698 -367.162 791.703V791.703ZM-380.349 731.058H-408.92V725.189H-380.349V731.058ZM-378.921 745.261H-402.544V739.392H-378.921V745.261ZM-95.2145 723.487H-121.887C-121.946 720.157 -123.164 716.986 -125.281 714.653C-127.398 712.319 -130.244 711.01 -133.21 711.006H-184.778C-188.012 711.006 -191.114 712.449 -193.401 715.017C-195.688 717.585 -196.972 721.068 -196.972 724.7V789.16H-191.746V724.641C-191.746 722.566 -191.012 720.576 -189.705 719.108C-188.398 717.641 -186.626 716.816 -184.778 716.816H-133.21C-131.593 716.816 -130.042 717.538 -128.899 718.822C-127.755 720.106 -127.113 721.847 -127.113 723.663V729.297H-95.2145C-94.1503 729.314 -93.1084 729.642 -92.1918 730.249C-91.2752 730.857 -90.5155 731.722 -89.9881 732.76L-81.9917 748.391H-115.806C-117.424 748.391 -118.975 747.669 -120.118 746.385C-121.262 745.101 -121.904 743.36 -121.904 741.544V740.566H-127.13V741.446C-127.126 744.817 -125.931 748.048 -123.809 750.432C-121.686 752.815 -118.808 754.157 -115.806 754.162H-80.2495V775.407C-80.2495 777.483 -80.9837 779.473 -82.2906 780.94C-83.5974 782.408 -85.3699 783.232 -87.2181 783.232H-87.5839C-88.1641 780.81 -89.4396 778.669 -91.2128 777.143C-92.9859 775.616 -95.1579 774.789 -97.3921 774.789C-99.6264 774.789 -101.798 775.616 -103.572 777.143C-105.345 778.669 -106.62 780.81 -107.2 783.232H-145.005V789.101H-107.148C-106.568 791.524 -105.292 793.665 -103.519 795.191C-101.746 796.718 -99.5741 797.545 -97.3399 797.545C-95.1056 797.545 -92.9337 796.718 -91.1605 795.191C-89.3873 793.665 -88.1118 791.524 -87.5316 789.101H-87.2181C-83.9838 789.101 -80.8819 787.659 -78.5949 785.09C-76.3079 782.522 -75.0231 779.039 -75.0231 775.407V750.445L-85.4759 729.865C-86.4565 727.93 -87.8718 726.317 -89.5805 725.188C-91.2893 724.058 -93.2318 723.452 -95.2145 723.428V723.487ZM-97.3399 791.762C-98.315 791.762 -99.2682 791.437 -100.079 790.829C-100.89 790.22 -101.522 789.356 -101.895 788.344C-102.268 787.333 -102.366 786.219 -102.175 785.146C-101.985 784.072 -101.516 783.085 -100.826 782.311C-100.137 781.537 -99.2581 781.009 -98.3017 780.796C-97.3453 780.582 -96.354 780.692 -95.4531 781.111C-94.5523 781.53 -93.7823 782.239 -93.2405 783.15C-92.6988 784.06 -92.4096 785.131 -92.4096 786.226C-92.4234 787.684 -92.9489 789.077 -93.872 790.103C-94.7951 791.128 -96.0413 791.703 -97.3399 791.703V791.762ZM-165.44 774.82C-167.629 774.825 -169.757 775.624 -171.509 777.098C-173.261 778.571 -174.542 780.64 -175.161 782.998H-181.764V788.867H-175.3C-174.858 790.952 -173.902 792.855 -172.541 794.358C-171.18 795.86 -169.47 796.902 -167.606 797.363C-165.742 797.825 -163.8 797.687 -162.003 796.966C-160.205 796.245 -158.625 794.969 -157.443 793.286C-156.262 791.603 -155.526 789.58 -155.322 787.449C-155.117 785.318 -155.451 783.165 -156.286 781.238C-157.12 779.31 -158.422 777.686 -160.041 776.551C-161.66 775.416 -163.531 774.816 -165.44 774.82V774.82ZM-165.44 791.762C-166.414 791.758 -167.366 791.43 -168.174 790.819C-168.983 790.209 -169.612 789.343 -169.982 788.331C-170.353 787.319 -170.448 786.206 -170.256 785.134C-170.064 784.061 -169.593 783.076 -168.902 782.304C-168.212 781.532 -167.334 781.006 -166.378 780.794C-165.422 780.582 -164.432 780.693 -163.532 781.113C-162.632 781.532 -161.863 782.242 -161.322 783.152C-160.781 784.062 -160.492 785.131 -160.492 786.226C-160.506 787.687 -161.034 789.083 -161.961 790.109C-162.888 791.136 -164.138 791.708 -165.44 791.703V791.762ZM-361.256 266.477C-363.413 264.056 -366.339 262.698 -369.389 262.7C-372.439 262.701 -375.363 264.064 -377.518 266.487C-379.674 268.91 -380.884 272.195 -380.882 275.62C-380.881 277.315 -380.583 278.994 -380.005 280.561C-379.426 282.127 -378.578 283.55 -377.51 284.749L-369.444 293.865L-361.256 284.749C-360.187 283.551 -359.339 282.129 -358.76 280.563C-358.182 278.997 -357.884 277.318 -357.884 275.623C-357.884 273.927 -358.182 272.248 -358.76 270.682C-359.339 269.116 -360.187 267.694 -361.256 266.496V266.477ZM-366.482 278.938C-367.067 279.593 -367.812 280.039 -368.623 280.219C-369.434 280.399 -370.274 280.305 -371.037 279.949C-371.8 279.593 -372.452 278.991 -372.911 278.219C-373.37 277.448 -373.615 276.541 -373.615 275.613C-373.615 274.685 -373.37 273.778 -372.911 273.006C-372.452 272.234 -371.8 271.632 -371.037 271.277C-370.274 270.921 -369.434 270.827 -368.623 271.007C-367.812 271.186 -367.067 271.632 -366.482 272.287C-365.704 273.158 -365.262 274.338 -365.252 275.571C-365.242 276.805 -365.665 277.994 -366.43 278.88L-366.482 278.938ZM69.661 284.025C71.7158 281.582 72.8414 278.335 72.7987 274.975C72.7559 271.615 71.5482 268.406 69.4321 266.03C67.316 263.653 64.4583 262.297 61.466 262.249C58.4737 262.201 55.5826 263.465 53.4069 265.773V265.773C52.3382 266.97 51.4902 268.393 50.9117 269.959C50.3331 271.525 50.0353 273.203 50.0353 274.899C50.0353 276.594 50.3331 278.273 50.9117 279.839C51.4902 281.405 52.3382 282.827 53.4069 284.025L61.5253 293.141L69.661 284.025ZM58.5636 271.563C59.149 270.908 59.894 270.463 60.7047 270.283C61.5153 270.103 62.3553 270.197 63.1184 270.553C63.8816 270.909 64.5337 271.51 64.9925 272.282C65.4513 273.054 65.6961 273.961 65.6961 274.889C65.6961 275.817 65.4513 276.724 64.9925 277.496C64.5337 278.267 63.8816 278.869 63.1184 279.225C62.3553 279.581 61.5153 279.675 60.7047 279.495C59.894 279.315 59.149 278.87 58.5636 278.215C58.1773 277.775 57.8721 277.253 57.6655 276.68C57.459 276.108 57.3551 275.495 57.36 274.877C57.3648 274.259 57.4783 273.648 57.6938 273.079C57.9093 272.511 58.2227 271.995 58.6159 271.563H58.5636ZM-359.514 497.868C-361.689 495.56 -364.58 494.296 -367.573 494.344C-370.565 494.392 -373.423 495.748 -375.539 498.125C-377.655 500.501 -378.862 503.71 -378.905 507.07C-378.948 510.43 -377.822 513.677 -375.768 516.12L-367.702 525.236L-359.566 516.12C-358.494 514.926 -357.642 513.507 -357.059 511.943C-356.475 510.379 -356.173 508.701 -356.168 507.006C-356.163 505.31 -356.456 503.631 -357.03 502.062C-357.604 500.494 -358.448 499.069 -359.514 497.868V497.868ZM-364.74 510.31C-365.325 510.965 -366.07 511.41 -366.881 511.59C-367.692 511.77 -368.532 511.676 -369.295 511.32C-370.058 510.964 -370.71 510.362 -371.169 509.591C-371.628 508.819 -371.872 507.912 -371.872 506.984C-371.872 506.056 -371.628 505.149 -371.169 504.377C-370.71 503.605 -370.058 503.004 -369.295 502.648C-368.532 502.292 -367.692 502.198 -366.881 502.378C-366.07 502.558 -365.325 503.003 -364.74 503.658C-364.347 504.091 -364.033 504.606 -363.818 505.174C-363.602 505.743 -363.489 506.354 -363.484 506.972C-363.479 507.59 -363.583 508.203 -363.79 508.775C-363.996 509.348 -364.301 509.87 -364.688 510.31H-364.74ZM-170.109 499.941V518.565C-170.105 520.115 -169.735 521.635 -169.037 522.972C-168.34 524.309 -167.339 525.414 -166.137 526.175L-159.29 530.479L-152.444 526.175C-151.241 525.414 -150.241 524.309 -149.543 522.972C-148.845 521.635 -148.475 520.115 -148.471 518.565V499.941L-159.29 502.445L-170.109 499.941ZM-153.698 518.565C-153.7 519.072 -153.822 519.57 -154.051 520.006C-154.281 520.443 -154.61 520.803 -155.004 521.05L-159.29 523.749L-163.576 521.05C-163.97 520.803 -164.299 520.443 -164.529 520.006C-164.759 519.57 -164.881 519.072 -164.882 518.565V507.14L-159.29 508.451L-153.698 507.14V518.565ZM282.201 518.565V499.941L271.383 502.445L260.564 499.941V518.565C260.568 520.115 260.938 521.635 261.635 522.972C262.333 524.309 263.334 525.414 264.536 526.175L271.383 530.479L278.229 526.175C279.439 525.409 280.445 524.295 281.143 522.947C281.841 521.599 282.207 520.066 282.201 518.506V518.565ZM276.975 518.565C276.973 519.072 276.851 519.57 276.622 520.006C276.392 520.443 276.063 520.803 275.668 521.05L271.383 523.749L267.097 521.05C266.702 520.803 266.373 520.443 266.144 520.006C265.914 519.57 265.792 519.072 265.79 518.565V507.14L271.383 508.451L276.975 507.14V518.565ZM474.515 520.639L481.362 516.335C482.561 515.576 483.558 514.474 484.253 513.14C484.948 511.807 485.315 510.29 485.317 508.745V490.101L474.515 492.625L463.697 490.101V508.745C463.697 510.292 464.065 511.812 464.763 513.147C465.461 514.481 466.465 515.582 467.669 516.335L474.515 520.639ZM468.923 497.32L474.515 498.611L480.09 497.32V508.745C480.093 509.248 479.974 509.742 479.747 510.176C479.52 510.61 479.193 510.967 478.801 511.209L474.515 513.909L470.265 511.151C469.875 510.905 469.55 510.547 469.323 510.114C469.097 509.681 468.977 509.188 468.975 508.686L468.923 497.32ZM-356.482 755.336L-349.636 751.032C-348.437 750.273 -347.439 749.171 -346.744 747.837C-346.05 746.503 -345.683 744.987 -345.681 743.441V724.798L-356.482 727.322L-367.301 724.798V743.441C-367.301 744.989 -366.933 746.509 -366.235 747.844C-365.536 749.178 -364.533 750.279 -363.329 751.032L-356.482 755.336ZM-362.074 732.017L-356.482 733.308L-350.907 732.017V743.441C-350.905 743.945 -351.024 744.439 -351.25 744.873C-351.477 745.307 -351.804 745.664 -352.197 745.906L-356.482 748.606L-360.733 745.906C-361.123 745.66 -361.448 745.303 -361.674 744.87C-361.901 744.437 -362.021 743.944 -362.022 743.441L-362.074 732.017ZM486.623 35.3209L464.829 59.7746L453 46.4913L456.693 42.344L464.829 51.4799L482.93 31.154L486.623 35.3209ZM-152.2 284.749C-150.145 282.305 -149.019 279.059 -149.062 275.699C-149.105 272.339 -150.312 269.13 -152.429 266.753C-154.545 264.377 -157.402 263.021 -160.395 262.973C-163.387 262.925 -166.278 264.189 -168.454 266.496V266.496C-169.523 267.694 -170.37 269.116 -170.949 270.682C-171.528 272.248 -171.825 273.927 -171.825 275.623C-171.825 277.318 -171.528 278.997 -170.949 280.563C-170.37 282.129 -169.523 283.551 -168.454 284.749L-160.388 293.865L-152.2 284.749ZM-163.297 272.307C-162.712 271.652 -161.967 271.206 -161.156 271.026C-160.345 270.846 -159.505 270.94 -158.742 271.296C-157.979 271.652 -157.327 272.254 -156.868 273.026C-156.409 273.797 -156.165 274.704 -156.165 275.632C-156.165 276.56 -156.409 277.467 -156.868 278.239C-157.327 279.011 -157.979 279.613 -158.742 279.968C-159.505 280.324 -160.345 280.418 -161.156 280.238C-161.967 280.059 -162.712 279.613 -163.297 278.958C-163.689 278.521 -164.001 278.002 -164.214 277.429C-164.426 276.857 -164.536 276.243 -164.536 275.623C-164.536 275.002 -164.426 274.388 -164.214 273.816C-164.001 273.243 -163.689 272.724 -163.297 272.287V272.307ZM278.769 276.219C280.824 273.776 281.95 270.53 281.907 267.169C281.864 263.809 280.656 260.6 278.54 258.224C276.424 255.848 273.567 254.492 270.574 254.444C267.582 254.396 264.691 255.66 262.515 257.967C261.446 259.164 260.599 260.587 260.02 262.153C259.441 263.719 259.144 265.398 259.144 267.093C259.144 268.788 259.441 270.467 260.02 272.033C260.599 273.599 261.446 275.022 262.515 276.219L270.634 285.336L278.769 276.219ZM267.672 263.758C268.257 263.103 269.002 262.657 269.813 262.477C270.624 262.297 271.464 262.391 272.227 262.747C272.99 263.103 273.642 263.705 274.101 264.477C274.56 265.248 274.804 266.155 274.804 267.083C274.804 268.011 274.56 268.918 274.101 269.69C273.642 270.462 272.99 271.064 272.227 271.419C271.464 271.775 270.624 271.869 269.813 271.689C269.002 271.51 268.257 271.064 267.672 270.409C267.28 269.972 266.968 269.453 266.755 268.88C266.543 268.308 266.433 267.694 266.433 267.073C266.433 266.453 266.543 265.839 266.755 265.267C266.968 264.694 267.28 264.175 267.672 263.738V263.758ZM38.9473 499.941V518.565C38.9511 520.115 39.3208 521.635 40.0185 522.972C40.7163 524.309 41.7173 525.414 42.9193 526.175L49.7659 530.479L56.6125 526.175C57.8145 525.414 58.8155 524.309 59.5132 522.972C60.211 521.635 60.5806 520.115 60.5845 518.565V499.941L49.7659 502.445L38.9473 499.941ZM55.3581 518.565C55.3564 519.072 55.2344 519.57 55.0047 520.006C54.7751 520.443 54.4461 520.803 54.0515 521.05L49.7659 523.749L45.4803 521.05C45.0857 520.803 44.7566 520.443 44.527 520.006C44.2974 519.57 44.1754 519.072 44.1737 518.565V507.14L49.7659 508.451L55.3581 507.14V518.565ZM-170.109 734.697V753.321C-170.105 754.87 -169.735 756.391 -169.037 757.728C-168.34 759.065 -167.339 760.17 -166.137 760.931L-159.29 765.234L-152.444 760.931C-151.241 760.17 -150.241 759.065 -149.543 757.728C-148.845 756.391 -148.475 754.87 -148.471 753.321V734.697L-159.29 737.201L-170.109 734.697ZM-153.698 753.321C-153.7 753.828 -153.822 754.325 -154.051 754.762C-154.281 755.199 -154.61 755.559 -155.004 755.805L-159.29 758.505L-163.576 755.805C-163.97 755.559 -164.299 755.199 -164.529 754.762C-164.759 754.325 -164.881 753.828 -164.882 753.321V741.896L-159.29 743.207L-153.698 741.896V753.321Z" fill="black"/>
</g>
</svg>
