<svg width="105" height="105" viewBox="0 0 105 105" fill="none" xmlns="http://www.w3.org/2000/svg">
<path d="M74.1631 48.4106H56.5894V30.8369C56.5894 28.6264 54.821 26.7474 52.4999 26.7474C50.2894 26.7474 48.4105 28.5159 48.4105 30.8369V48.4106H30.8368C28.6263 48.4106 26.7473 50.179 26.7473 52.5001C26.7473 53.6053 27.1894 54.6001 27.9631 55.3737C28.7368 56.1474 29.7315 56.5895 30.8368 56.5895H48.4105V74.1632C48.4105 75.2685 48.8526 76.2632 49.6263 77.0369C50.3999 77.8106 51.3947 78.2527 52.4999 78.2527C54.7105 78.2527 56.5894 76.4843 56.5894 74.1632V56.5895H74.1631C76.3736 56.5895 78.2526 54.8211 78.2526 52.5001C78.2526 50.179 76.3736 48.4106 74.1631 48.4106Z" fill="black"/>
<path d="M52.5 0C23.5421 0 0 23.5421 0 52.5C0 81.4579 23.5421 105 52.5 105C81.4579 105 105 81.4579 105 52.5C105 23.5421 81.4579 0 52.5 0ZM52.5 96.9316C27.9632 96.9316 8.06842 77.0368 8.06842 52.5C8.06842 27.9632 27.9632 8.06842 52.5 8.06842C77.0368 8.06842 96.9316 27.9632 96.9316 52.5C96.9316 77.0368 77.0368 96.9316 52.5 96.9316Z" fill="black"/>
</svg>
