<svg width="96" height="97" viewBox="0 0 96 97" fill="none" xmlns="http://www.w3.org/2000/svg">
<path d="M89.1 4.9C90.2 4.9 91 5.7 91 6.9V28.7C91 29.8 91 31.1 89.8 31.1H60.6C59.5 31.1 58 29.9 58 28.7V6.9C58 5.8 59.4 5 60.6 5L89.1 4.9ZM89.8 0H60.6C56.8 0 53 3.1 53 6.9V28.7C53 32.5 56.8 36.1 60.6 36.1H89.8C93.6 36.1 96 32.5 96 28.7V6.9C96 3.1 93.5 0 89.7 0H89.8Z" fill="black"/>
<path d="M89.1 48C90.2 48 91 48.9 91 50V89.3C91 90.4 91 91.1 89.8 91.1H60.6C59.5 91.1 58 90.5 58 89.3V50C58 48.9 59.4 48 60.6 48H89.1ZM89.8 43H60.6C56.8 43 53 46.2 53 50V89.3C53 93.1 56.8 96.1 60.6 96.1H89.8C93.6 96.1 96 93.1 96 89.3V50C96 46.2 93.5 43 89.7 43H89.8Z" fill="black"/>
<path d="M35.8 4.9C36.9 4.9 38 5.7 38 6.9V56.1C38 57.2 37.9 58 36.7 58H7.5C6.4 58 5 57.2 5 56.1V6.9C5 5.7 6.3 5 7.5 5H36L35.8 4.9ZM36.7 0H7.5C3.7 0 0 3.1 0 6.9V56.1C0 59.9 3.7 63 7.5 63H36.8C40.6 63 43.1 59.9 43.1 56.1V6.9C43 3.1 40.4 0 36.7 0Z" fill="black"/>
<path d="M36 75.2C37.1 75.2 38 76.1 38 77.2V88.8C38 89.9 38.1 91 37 91H7.7C6.6 91 5 89.9 5 88.8V77.2C5 76.1 6.6 75 7.7 75H36V75.2ZM37 71H7.7C3.9 71 0 73.5 0 77.2V88.8C0 92.6 3.9 95 7.7 95H37C40.8 95 43 92.5 43 88.8V77.2C43 73.4 40.6 71 36.8 71H37Z" fill="black"/>
</svg>
