<svg width="21" height="21" viewBox="0 0 21 21" fill="none" xmlns="http://www.w3.org/2000/svg">
<path d="M10.5 0C4.69617 0 0 4.69658 0 10.5C0 16.3038 4.69658 21 10.5 21C16.3038 21 21 16.3034 21 10.5C21 4.69617 16.3034 0 10.5 0ZM10.5 19.3594C5.60302 19.3594 1.64062 15.3967 1.64062 10.5C1.64062 5.60302 5.60335 1.64062 10.5 1.64062C15.397 1.64062 19.3594 5.60335 19.3594 10.5C19.3594 15.397 15.3966 19.3594 10.5 19.3594Z" fill="black"/>
<path d="M10.5 8.79089C10.0469 8.79089 9.67969 9.15815 9.67969 9.61121V14.8937C9.67969 15.3468 10.0469 15.714 10.5 15.714C10.9531 15.714 11.3203 15.3468 11.3203 14.8937V9.61121C11.3203 9.15815 10.9531 8.79089 10.5 8.79089Z" fill="black"/>
<path d="M10.5 7.78644C11.1116 7.78644 11.6074 7.29063 11.6074 6.67902C11.6074 6.0674 11.1116 5.57159 10.5 5.57159C9.88839 5.57159 9.39258 6.0674 9.39258 6.67902C9.39258 7.29063 9.88839 7.78644 10.5 7.78644Z" fill="black"/>
</svg>
