<svg width="24" height="24" viewBox="0 0 24 24" fill="none" xmlns="http://www.w3.org/2000/svg">
<path d="M21.5 23.5H23C23.2759 23.5 23.5 23.2759 23.5 23V8.5C23.5 8.41692 23.4594 8.34012 23.3923 8.29375L21.5 23.5ZM21.5 23.5V12C21.5 11.1719 20.8281 10.5 20 10.5H4C3.17186 10.5 2.5 11.1719 2.5 12V23.5H1C0.724142 23.5 0.5 23.2759 0.5 23V8.5C0.5 8.41706 0.540399 8.3406 0.607922 8.29426L0.608653 8.29375L11.8575 0.544535C11.8576 0.544446 11.8578 0.544357 11.8579 0.544268C11.9449 0.484929 12.0578 0.485642 12.1427 0.544021L23.3921 8.29361L21.5 23.5Z" stroke="black"/>
<path d="M9.75 19.75V19.5L11 19.5V23.5H6L6 19.5H7.25V19.75C7.25 20.4401 7.80986 21 8.5 21C9.19014 21 9.75 20.4401 9.75 19.75Z" stroke="black"/>
<path d="M16.7501 19.75V19.5L18.0001 19.5V23.5H13.0001L13.0001 19.5H14.2501V19.75C14.2501 20.4401 14.8099 21 15.5001 21C16.1902 21 16.7501 20.4401 16.7501 19.75Z" stroke="black"/>
<path d="M13.25 13.75V13.5L14.5 13.5V17.5H9.5V13.5H10.75V13.75C10.75 14.4401 11.3099 15 12 15C12.6901 15 13.25 14.4401 13.25 13.75Z" stroke="black"/>
</svg>
