<svg width="21" height="21" viewBox="0 0 21 21" fill="none" xmlns="http://www.w3.org/2000/svg">
<path d="M18.2147 1.4502H11.0796C9.90688 1.4502 8.94812 2.42176 8.94812 3.59436V5.48928C8.94812 5.78293 9.18623 6.02087 9.47988 6.02087C9.77353 6.02087 10.0115 5.78293 10.0115 5.48928V3.59436C10.013 3.00307 10.4884 2.52203 11.0796 2.51355H18.2147C18.8011 2.51355 19.2626 3.00806 19.2626 3.59436V17.3428C19.2696 17.9256 18.8028 18.4037 18.22 18.4105H11.0798C10.4909 18.4083 10.014 17.9316 10.0115 17.3428V15.4875C10.0115 15.1936 9.77353 14.9557 9.47988 14.9557C9.18623 14.9557 8.94812 15.1936 8.94812 15.4875V17.3428C8.95128 18.5187 9.90373 19.471 11.0796 19.4738H18.2147C19.3851 19.4695 20.3306 18.5167 20.3259 17.3461V3.59436C20.3259 2.42176 19.3874 1.4502 18.2147 1.4502V1.4502Z" fill="black"/>
<path d="M2.46339 11.0208H15.0464C15.34 11.0208 15.5781 10.7827 15.5781 10.489C15.5781 10.1956 15.34 9.95745 15.0464 9.95745H2.34533L5.07314 6.8043C5.26552 6.58066 5.24158 6.24378 5.02009 6.0494C4.79911 5.85618 4.46339 5.87863 4.27034 6.09945V6.09978L0.832025 10.06C0.70532 10.1643 0.633986 10.3213 0.638642 10.4851C0.643631 10.6492 0.72411 10.8018 0.856966 10.8983L4.29561 14.3369C4.5033 14.5446 4.84001 14.5446 5.04736 14.3369C5.25238 14.1357 5.25554 13.8068 5.05451 13.6018C5.05218 13.5996 5.04986 13.5973 5.04736 13.595L2.46339 11.0208Z" fill="black"/>
</svg>
