<svg width="94" height="87" viewBox="0 0 94 87" fill="none" xmlns="http://www.w3.org/2000/svg">
<path d="M87.5096 62.1961C87.6085 62.1961 87.6085 62.1961 87.7073 62.1961H92.0581C92.7503 62.1961 93.3436 61.5039 93.2447 60.8117C92.2559 54.78 84.4443 52.2091 81.4779 51.4181C80.7857 51.2203 80.0935 50.7259 79.7969 50.0337L75.0506 39.9479C75.6439 40.2445 76.336 40.4423 77.0282 40.4423H79.5002C79.8958 40.4423 80.1924 40.1456 80.1924 39.7501V31.543C80.1924 31.1475 79.8958 30.8508 79.5002 30.8508H77.0282C75.8416 30.8508 74.8528 31.3453 74.0618 32.1363C73.864 31.4441 73.6663 30.752 73.4685 29.9609C73.073 28.6755 71.4909 28.7744 69.5133 29.2688C66.8435 29.9609 64.0748 30.4553 61.405 30.8508L60.3173 30.9497C59.9218 29.7632 59.0319 28.7744 57.6476 28.4777L50.627 26.7967C49.4405 25.3135 46.9684 22.3471 44.5953 19.7762C44.2986 19.4796 43.0132 18.1941 41.53 17.6008C39.1568 16.612 36.5859 16.8098 34.3117 18.0952C32.1363 19.3807 30.6531 21.556 30.3565 24.127L28.28 42.4199C28.1811 43.6065 28.5766 44.793 29.3676 45.683C30.1587 46.5729 31.3453 47.0673 32.5318 47.0673H49.9349L49.3416 62.4927C49.2427 64.767 51.0225 66.7446 53.3957 66.8435C53.4946 66.8435 53.4946 66.8435 53.5934 66.8435C55.8677 66.8435 57.7464 65.0636 57.8453 62.7894L58.6364 42.9143C58.6364 41.7277 58.2408 40.6401 57.4498 39.849C56.6588 39.058 55.5711 38.5636 54.3845 38.5636H43.5076L44.1998 30.4553C45.0897 31.543 45.683 32.2352 45.683 32.2352C46.1774 32.8285 46.8696 33.3229 47.6606 33.5206L55.8677 35.4982C56.1644 35.5971 56.461 35.5971 56.7576 35.5971C57.6476 35.5971 58.4386 35.3005 59.0319 34.8061L62.4927 34.4106C62.5916 34.905 62.6905 35.4982 62.7894 36.0915C63.1849 38.8602 64.0748 40.0468 65.6569 40.2445C66.9424 44.8919 68.3267 52.0114 69.2166 56.5599C69.6121 58.7352 69.0189 61.0095 67.5357 62.5916L62.7894 67.8323C61.8994 68.7222 60.8118 69.2166 59.5263 69.2166H45.4852C43.9031 69.2166 42.7166 67.9312 42.7166 66.3491L42.9143 57.0543H44.3975C45.2875 57.0543 46.0785 56.3621 46.3751 55.4722L47.0673 52.5058C47.364 51.2203 46.3751 50.0337 45.0897 50.0337H5.3396C3.55974 50.0337 2.96646 52.308 4.35079 53.2968L11.0747 57.6476C7.11945 61.8006 6.42728 67.9312 6.3284 70.6998C6.3284 71.4909 6.92169 72.0842 7.71274 72.0842H10.5803C10.4814 72.5786 10.4814 73.073 10.4814 73.5674C10.4814 80.8846 16.4143 86.8174 23.7314 86.8174C30.5542 86.8174 36.1904 81.5767 36.8826 74.9517C37.4759 75.0506 38.0692 75.0506 38.6624 75.0506H63.6793C65.1625 75.0506 66.5468 74.3584 67.5357 73.2707C67.5357 73.3696 67.5357 73.4685 67.5357 73.4685C67.5357 81.2801 74.3584 87.5096 82.2689 86.6196C88.1029 85.9275 92.8492 81.379 93.838 75.6439C94.7279 70.0077 91.8603 64.8659 87.5096 62.1961ZM23.7314 81.1812C19.5784 81.1812 16.1176 77.7204 16.1176 73.5674C16.1176 73.073 16.2165 72.5786 16.2165 72.0842H20.765C20.5672 72.4797 20.3695 72.9741 20.3695 73.5674C20.3695 75.3472 21.8527 76.8304 23.6326 76.8304C25.4124 76.8304 26.8956 75.3472 26.8956 73.5674C26.8956 73.073 26.7967 72.5786 26.5001 72.0842H31.1475L31.2464 72.3808C31.3453 72.7763 31.3453 73.073 31.3453 73.4685C31.3453 77.7204 27.8844 81.1812 23.7314 81.1812ZM80.6868 81.1812C76.5338 81.1812 73.073 77.7204 73.073 73.5674C73.073 69.4144 76.5338 65.9536 80.6868 65.9536C84.8398 65.9536 88.3006 69.4144 88.3006 73.5674C88.3006 77.7204 84.9387 81.1812 80.6868 81.1812Z" fill="black"/>
<path d="M80.6864 76.8305C82.4885 76.8305 83.9495 75.3695 83.9495 73.5674C83.9495 71.7652 82.4885 70.3043 80.6864 70.3043C78.8843 70.3043 77.4233 71.7652 77.4233 73.5674C77.4233 75.3695 78.8843 76.8305 80.6864 76.8305Z" fill="black"/>
<path d="M44.2989 16.0187C48.7485 16.0187 52.3082 12.459 52.3082 8.00935C52.3082 3.55971 48.7485 0 44.2989 0C39.8493 0 36.2896 3.55971 36.2896 8.00935C36.2896 12.459 39.8493 16.0187 44.2989 16.0187Z" fill="black"/>
<path d="M24.4236 44.002V26.7968C24.4236 25.1158 23.0392 23.7314 21.3583 23.7314H3.06531C1.38433 23.7314 0 25.1158 0 26.7968V44.002C0 45.683 1.38433 47.0673 3.06531 47.0673H21.2594C23.0392 47.1662 24.4236 45.7819 24.4236 44.002Z" fill="black"/>
</svg>
