<svg width="102" height="106" viewBox="0 0 102 106" fill="none" xmlns="http://www.w3.org/2000/svg">
<path d="M18.6157 21.4818C18.6157 20.9638 18.8215 20.4669 19.1878 20.1006C19.5541 19.7343 20.051 19.5285 20.569 19.5285H69.2831C69.8011 19.5285 70.298 19.7343 70.6643 20.1006C71.0306 20.4669 71.2364 20.9638 71.2364 21.4818C71.2364 21.9999 71.0306 22.4967 70.6643 22.863C70.298 23.2293 69.8011 23.4351 69.2831 23.4351H20.569C20.051 23.4351 19.5541 23.2293 19.1878 22.863C18.8215 22.4967 18.6157 21.9999 18.6157 21.4818ZM20.569 40.6163H69.2831C69.8011 40.6163 70.298 40.4105 70.6643 40.0442C71.0306 39.6779 71.2364 39.1811 71.2364 38.663C71.2364 38.145 71.0306 37.6481 70.6643 37.2818C70.298 36.9155 69.8011 36.7097 69.2831 36.7097H20.569C20.051 36.7097 19.5541 36.9155 19.1878 37.2818C18.8215 37.6481 18.6157 38.145 18.6157 38.663C18.6157 39.1811 18.8215 39.6779 19.1878 40.0442C19.5541 40.4105 20.051 40.6163 20.569 40.6163ZM20.569 57.7956H69.2831C69.8011 57.7956 70.298 57.5898 70.6643 57.2235C71.0306 56.8572 71.2364 56.3603 71.2364 55.8423C71.2364 55.3242 71.0306 54.8274 70.6643 54.4611C70.298 54.0947 69.8011 53.889 69.2831 53.889H20.569C20.051 53.889 19.5541 54.0947 19.1878 54.4611C18.8215 54.8274 18.6157 55.3242 18.6157 55.8423C18.6157 56.3603 18.8215 56.8572 19.1878 57.2235C19.5541 57.5898 20.051 57.7956 20.569 57.7956ZM55.6335 71.0682H20.569C20.051 71.0682 19.5541 71.274 19.1878 71.6403C18.8215 72.0066 18.6157 72.5035 18.6157 73.0215C18.6157 73.5396 18.8215 74.0364 19.1878 74.4027C19.5541 74.769 20.051 74.9748 20.569 74.9748H55.6335C56.1515 74.9748 56.6484 74.769 57.0147 74.4027C57.381 74.0364 57.5868 73.5396 57.5868 73.0215C57.5868 72.5035 57.381 72.0066 57.0147 71.6403C56.6484 71.274 56.1515 71.0682 55.6335 71.0682ZM102 84.9563C102.002 89.5126 100.479 93.9384 97.6726 97.5282C94.8666 101.118 90.9396 103.665 86.5176 104.763C82.0956 105.862 77.4333 105.448 73.2738 103.588C69.1143 101.728 65.6972 98.5294 63.5673 94.5016H15.6266C11.4836 94.4968 7.51168 92.8489 4.58216 89.9194C1.65265 86.9899 0.0047562 83.018 0 78.875V15.6266C0.0047562 11.4836 1.65265 7.51168 4.58216 4.58217C7.51168 1.65265 11.4836 0.0047562 15.6266 0H74.2261C78.3691 0.00470461 82.3411 1.65258 85.2706 4.58211C88.2001 7.51164 89.848 11.4836 89.8527 15.6266V66.3127C93.4633 67.9132 96.5324 70.5262 98.6884 73.8353C100.844 77.1444 101.995 81.0076 102 84.9571V84.9563ZM61.9944 90.5957C61.0093 87.2016 60.9242 83.6095 61.7476 80.1725C62.571 76.7355 64.2746 73.5719 66.6908 70.9927C69.1071 68.4134 72.1529 66.5072 75.5289 65.4615C78.9049 64.4158 82.4949 64.2665 85.9461 65.0283V15.6275C85.9426 12.5203 84.7068 9.54124 82.5096 7.34407C80.3124 5.1469 77.3334 3.91103 74.2261 3.90762H15.6266C12.5193 3.91103 9.54026 5.1469 7.34309 7.34407C5.14592 9.54124 3.91005 12.5203 3.90664 15.6275V78.876C3.91005 81.9833 5.14592 84.9623 7.34309 87.1595C9.54026 89.3566 12.5193 90.5925 15.6266 90.5959L61.9944 90.5957ZM98.0934 84.9571C98.0932 81.6934 97.1253 78.5031 95.3119 75.7896C93.4986 73.0761 90.9214 70.9612 87.9061 69.7124C84.8908 68.4636 81.5729 68.137 78.372 68.7738C75.1711 69.4107 72.231 70.9825 69.9233 73.2903C67.6157 75.5982 66.0443 78.5385 65.4077 81.7395C64.7712 84.9405 65.0982 88.2583 66.3473 91.2735C67.5964 94.2886 69.7116 96.8657 72.4253 98.6787C75.139 100.492 78.3294 101.459 81.5931 101.459C85.9681 101.454 90.1625 99.7142 93.256 96.6205C96.3494 93.5267 98.0891 89.3321 98.0934 84.9571ZM89.0534 83.0038H83.5464V76.382C83.5464 75.864 83.3406 75.3671 82.9743 75.0008C82.608 74.6345 82.1111 74.4287 81.5931 74.4287C81.075 74.4287 80.5782 74.6345 80.2119 75.0008C79.8456 75.3671 79.6398 75.864 79.6398 76.382V84.9571C79.6398 85.4751 79.8456 85.972 80.2119 86.3383C80.5782 86.7046 81.075 86.9104 81.5931 86.9104H89.0534C89.5714 86.9104 90.0683 86.7046 90.4346 86.3383C90.8009 85.972 91.0067 85.4751 91.0067 84.9571C91.0067 84.439 90.8009 83.9422 90.4346 83.5759C90.0683 83.2096 89.5714 83.0038 89.0534 83.0038Z" fill="black"/>
</svg>
