<svg width="21" height="21" viewBox="0 0 21 21" fill="none" xmlns="http://www.w3.org/2000/svg">
<g clip-path="url(#clip0)">
<path d="M15.3856 4.88562H13.6719V0.728995C13.6719 0.326298 13.3456 0 12.9429 0C12.5402 0 12.2139 0.326298 12.2139 0.728995V4.88562H8.78623V0.728995C8.78623 0.326298 8.46003 0 8.05723 0C7.65463 0 7.32824 0.326298 7.32824 0.728995V4.88562H5.61461C5.21192 4.88562 4.88562 5.21192 4.88562 5.61462V10.5C4.88562 13.3487 7.01876 15.7068 9.77134 16.0656V20.2711C9.77134 20.6738 10.0975 21.0001 10.5003 21.0001C10.9029 21.0001 11.2293 20.6738 11.2293 20.2711V16.0656C13.9816 15.7069 16.1147 13.3487 16.1147 10.5V5.61462C16.1146 5.21192 15.7883 4.88562 15.3856 4.88562ZM14.6566 10.5C14.6566 12.7918 12.792 14.6564 10.5002 14.6564C8.20818 14.6564 6.34351 12.7918 6.34351 10.5V6.34361H14.6565V10.5H14.6566Z" fill="black"/>
</g>
<defs>
<clipPath id="clip0">
<rect width="21" height="21" fill="white"/>
</clipPath>
</defs>
</svg>
