<svg width="98" height="98" viewBox="0 0 98 98" fill="none" xmlns="http://www.w3.org/2000/svg">
<path d="M15.5909 0C6.99191 0 0 6.99194 0 15.5909V82.4092C0 91.0081 6.99191 98.0001 15.5909 98.0001H82.4091C91.0081 98.0001 98 91.0081 98 82.4092V15.5909C98 6.99193 91.0081 0 82.4091 0H15.5909ZM15.5909 4.45455H82.4091C88.6171 4.45455 93.5455 9.38297 93.5455 15.5909V82.4092C93.5455 88.6171 88.6171 93.5455 82.4091 93.5455H15.5909C9.38289 93.5455 4.45455 88.6171 4.45455 82.4092V15.5909C4.45455 9.38297 9.38289 4.45455 15.5909 4.45455ZM27.8409 36.75C27.8409 42.8741 32.8532 47.8864 38.9773 47.8864C45.9811 47.6543 54.4244 47.9576 60.4147 47.8173C65.983 47.1824 70.2342 42.3476 70.159 36.6113C70.086 31.0115 65.9174 26.3521 60.5191 25.6838C53.1183 25.5327 45.2826 25.6104 39.0121 25.6142C32.3303 25.6142 27.9995 31.5788 27.8409 36.7505V36.75ZM38.9773 30.0682C42.6938 30.0682 45.6591 33.0334 45.6591 36.75C45.6591 40.4666 42.6938 43.4318 38.9773 43.4318C38.9739 43.4319 38.9461 43.4318 38.9425 43.4318C35.2423 43.4134 32.2955 40.455 32.2955 36.75C32.2955 33.0334 35.2608 30.0682 38.9773 30.0682H38.9773ZM47.8168 30.0682C52.2256 30.1658 56.1591 29.9479 60.1015 30.1378C63.2139 30.6023 65.6605 33.2775 65.7045 36.6456C65.7499 40.1151 63.2385 42.9351 59.9971 43.3622C55.8602 43.4358 51.5603 43.3997 47.8863 43.3969C49.2753 41.5391 50.1136 39.234 50.1136 36.7499C50.1484 34.5228 49.0767 31.7675 47.8168 30.0681V30.0682ZM37.4809 56.8651C32.0826 57.5334 27.9141 62.1928 27.841 67.7926C27.7658 73.5288 32.017 78.3635 37.5853 78.9985C44.8611 79.1065 52.2252 78.974 59.0227 79.0676C65.1468 79.0676 70.1591 74.0552 70.1591 67.9312C70.1591 61.8071 65.1468 56.7948 59.0227 56.7948C51.5429 57.0043 43.4318 56.7459 37.4809 56.8651ZM50.1832 61.2501C48.7642 63.1193 47.8863 65.4183 47.8863 67.9319C47.8863 70.4159 48.7246 72.721 50.1136 74.5789C46.0975 74.5154 41.6759 74.5633 37.968 74.5444C34.743 74.1021 32.2502 71.2851 32.2955 67.8278C32.3402 64.3949 34.8744 61.6708 38.0724 61.2851C42.0589 61.2261 46.3355 61.2495 50.1832 61.2506V61.2501Z" fill="black"/>
</svg>
