<svg width="97" height="97" viewBox="0 0 97 97" fill="none" xmlns="http://www.w3.org/2000/svg">
<path d="M92.035 38.3175L85.2266 37.1625C84.5174 34.8728 83.6055 32.6641 82.4911 30.5567L86.5031 24.9439C88.2052 22.5528 87.9418 19.2905 85.8547 17.2236L79.8163 11.1852C78.6816 10.0505 77.1821 9.42234 75.5813 9.42234C74.325 9.42234 73.1295 9.80734 72.1163 10.5368L66.4832 14.5489C64.2948 13.3939 62.0051 12.4415 59.6343 11.7323L58.4995 5.00498C58.0132 2.10736 55.5209 0 52.5827 0H44.052C41.1138 0 38.6215 2.10736 38.1351 5.00498L36.9599 11.8944C34.6904 12.6036 32.4817 13.5357 30.3744 14.6705L24.802 10.6584C23.7889 9.92892 22.5731 9.54392 21.3168 9.54392C19.716 9.54392 18.1963 10.1721 17.0818 11.3068L11.0231 17.3452C8.95629 19.412 8.6726 22.6744 10.3747 25.0654L14.4273 30.7594C13.3129 32.887 12.4213 35.0957 11.7323 37.3854L5.00498 38.5201C2.10736 39.0065 0 41.4988 0 44.437V52.9677C0 55.9059 2.10736 58.3982 5.00498 58.8845L11.8944 60.0598C12.6036 62.3293 13.5357 64.5379 14.6705 66.6453L10.6786 72.1974C8.97655 74.5884 9.23997 77.8508 11.3271 79.9176L17.3655 85.956C18.5002 87.0908 19.9997 87.7189 21.6005 87.7189C22.8568 87.7189 24.0523 87.3339 25.0654 86.6045L30.7594 82.5518C32.8059 83.6258 34.9538 84.4971 37.1625 85.186L38.2972 91.9944C38.7836 94.8921 41.2759 96.9994 44.2141 96.9994H52.7651C55.7032 96.9994 58.1956 94.8921 58.6819 91.9944L59.8369 85.186C62.1266 84.4768 64.3353 83.565 66.4427 82.4505L72.0556 86.4626C73.0687 87.1921 74.2845 87.5771 75.5408 87.5771C77.1416 87.5771 78.6411 86.9489 79.7758 85.8142L85.8142 79.7758C87.881 77.709 88.1647 74.4466 86.4626 72.0556L82.4505 66.4224C83.565 64.2948 84.4971 62.0861 85.186 59.8166L91.9944 58.6819C94.8921 58.1956 96.9994 55.7032 96.9994 52.7651V44.2343C97.0399 41.2962 94.9326 38.8038 92.035 38.3175ZM91.5689 52.7651C91.5689 53.0285 91.3866 53.2514 91.1231 53.2919L82.6126 54.7104C81.5387 54.8927 80.6876 55.683 80.4242 56.7164C79.6542 59.6951 78.479 62.5522 76.8984 65.2066C76.3513 66.1387 76.3919 67.2937 77.02 68.1853L82.025 75.2369C82.1668 75.4395 82.1466 75.7434 81.9642 75.9258L75.9258 81.9642C75.784 82.106 75.6421 82.1263 75.5408 82.1263C75.4192 82.1263 75.3179 82.0858 75.2369 82.025L68.2056 77.02C67.3343 76.3919 66.159 76.3513 65.2269 76.8984C62.5724 78.479 59.7153 79.6542 56.7367 80.4242C55.683 80.6876 54.8927 81.5589 54.7306 82.6126L53.2919 91.1231C53.2514 91.3865 53.0285 91.5689 52.7651 91.5689H44.2343C43.9709 91.5689 43.748 91.3865 43.7075 91.1231L42.2891 82.6126C42.1067 81.5387 41.3164 80.6876 40.283 80.4242C37.3854 79.6745 34.5891 78.5195 31.9752 77.02C31.5496 76.7769 31.0633 76.6553 30.5973 76.6553C30.0502 76.6553 29.4828 76.8174 29.0167 77.1618L21.9247 82.2074C21.8233 82.2682 21.722 82.3087 21.6207 82.3087C21.5397 82.3087 21.3776 82.2884 21.2357 82.1466L15.1973 76.1082C15.015 75.9258 14.9947 75.6421 15.1365 75.4192L20.1213 68.4285C20.7494 67.5369 20.7899 66.3616 20.2428 65.4295C18.6623 62.7953 17.4465 59.9382 16.6765 56.9596C16.3928 55.9261 15.5418 55.1359 14.4881 54.9535L5.91682 53.4946C5.6534 53.454 5.47104 53.2311 5.47104 52.9677V44.437C5.47104 44.1735 5.6534 43.9506 5.91682 43.9101L14.3665 42.4917C15.4405 42.3093 16.3118 41.5191 16.5752 40.4654C17.3249 37.4867 18.4799 34.6094 20.0402 31.9549C20.5873 31.0228 20.5265 29.8678 19.8984 28.9965L14.8528 21.9044C14.711 21.7018 14.7313 21.3978 14.9136 21.2155L20.952 15.1771C21.0939 15.0352 21.2357 15.015 21.337 15.015C21.4586 15.015 21.5599 15.0555 21.641 15.1163L28.6318 20.101C29.5233 20.7291 30.6986 20.7697 31.6307 20.2226C34.2649 18.642 37.122 17.4263 40.1007 16.6563C41.1341 16.3726 41.9243 15.5215 42.1067 14.4678L43.5656 5.89656C43.6062 5.63314 43.8291 5.45077 44.0925 5.45077H52.6233C52.8867 5.45077 53.1096 5.63314 53.1501 5.89656L54.5685 14.3463C54.7509 15.4202 55.5411 16.2915 56.5948 16.5549C59.6545 17.3249 62.5724 18.5205 65.2877 20.1213C66.2198 20.6684 67.3748 20.6278 68.2664 19.9997L75.2571 14.9744C75.3584 14.9136 75.4598 14.8731 75.5611 14.8731C75.6421 14.8731 75.8042 14.8934 75.9461 15.0352L81.9845 21.0736C82.1668 21.256 82.1871 21.5397 82.0453 21.7626L77.0403 28.7939C76.4121 29.6652 76.3716 30.8404 76.9187 31.7725C78.4992 34.427 79.6745 37.2841 80.4445 40.2628C80.7079 41.3164 81.5792 42.1067 82.6329 42.2688L91.1434 43.7075C91.4068 43.748 91.5892 43.9709 91.5892 44.2343V52.7651H91.5689Z" fill="black"/>
<path d="M48.5099 27.5578C36.9599 27.5578 27.5781 36.9396 27.5781 48.4896C27.5781 60.0395 36.9599 69.4213 48.5099 69.4213C60.0599 69.4213 69.4417 60.0395 69.4417 48.4896C69.4417 36.9396 60.0599 27.5578 48.5099 27.5578ZM48.5099 63.9503C39.9791 63.9503 33.0492 57.0203 33.0492 48.4896C33.0492 39.9588 39.9791 33.0288 48.5099 33.0288C57.0407 33.0288 63.9706 39.9588 63.9706 48.4896C63.9706 57.0203 57.0407 63.9503 48.5099 63.9503Z" fill="black"/>
</svg>
