<svg width="160" height="158" viewBox="0 0 160 158" fill="none" xmlns="http://www.w3.org/2000/svg">
<path d="M149.466 68.881C149.019 68.9 148.573 68.9477 148.132 69.0237V68.3458C148.129 66.0351 147.381 63.7873 145.998 61.9383C144.616 60.0894 142.674 58.7385 140.463 58.0877C139.878 42.4935 133.292 27.7324 122.087 16.902C110.881 6.07161 95.9272 0.0138725 80.3628 2.37968e-05C64.7984 -0.0138249 49.8336 6.01729 38.6089 16.8277C27.3841 27.6382 20.772 42.3876 20.1601 57.9807C17.8551 58.5604 15.8088 59.8948 14.3456 61.7723C12.8823 63.6498 12.0857 65.9631 12.0819 68.3458V68.9345C11.615 68.8852 11.1454 68.8673 10.6762 68.881C7.85328 68.9089 5.15389 70.0456 3.15772 72.047C1.16155 74.0484 0.0278136 76.7549 0 79.5851V100.744C0.0278136 103.574 1.16155 106.28 3.15772 108.282C5.15389 110.283 7.85328 111.42 10.6762 111.448C11.1236 111.429 11.5693 111.381 12.0107 111.305V111.894C12.0107 114.752 13.143 117.492 15.1585 119.513C17.174 121.534 19.9076 122.669 22.758 122.669C25.6084 122.669 28.342 121.534 30.3575 119.513C32.373 117.492 33.5053 114.752 33.5053 111.894V68.3458C33.4893 67.9755 33.4537 67.6063 33.3986 67.2397V60.3534C33.3986 47.9142 38.3271 35.9846 47.0999 27.1888C55.8728 18.393 67.7713 13.4515 80.1779 13.4515C92.5846 13.4515 104.483 18.393 113.256 27.1888C122.029 35.9846 126.957 47.9142 126.957 60.3534V65.5271C126.701 66.4447 126.569 67.3928 126.566 68.3458V111.876C126.567 112.613 126.645 113.349 126.797 114.07C123.737 120.957 114.947 137.601 100.107 142.222C99.025 139.765 97.1015 137.778 94.6845 136.62C92.2674 135.462 89.5167 135.21 86.9305 135.91C84.3442 136.609 82.0935 138.215 80.5857 140.435C79.078 142.655 78.413 145.343 78.7111 148.012C79.0093 150.681 80.2509 153.155 82.2111 154.985C84.1713 156.816 86.7205 157.882 89.3971 157.991C92.0737 158.1 94.7007 157.244 96.8023 155.579C98.904 153.913 100.341 151.548 100.854 148.912C115.196 145.023 125.427 131.893 131.103 120.618C132.913 121.923 135.084 122.628 137.313 122.634C140.136 122.606 142.835 121.469 144.832 119.468C146.828 117.466 147.962 114.76 147.989 111.929V111.341C148.431 111.417 148.876 111.464 149.324 111.483C152.147 111.456 154.846 110.319 156.842 108.317C158.838 106.316 159.972 103.61 160 100.779V79.6565C159.991 76.8381 158.886 74.1345 156.918 72.1217C154.95 70.1089 152.276 68.9461 149.466 68.881Z" fill="#2B2E32"/>
</svg>
