<svg width="109" height="53" viewBox="0 0 109 53" fill="none" xmlns="http://www.w3.org/2000/svg">
<path d="M87.9581 34.7805C92.7514 34.7805 96.6348 38.6638 96.6348 43.4558C96.6348 43.5715 96.6319 43.6844 96.629 43.8001C96.4481 48.4315 92.6357 52.1339 87.9581 52.1339C83.2804 52.1339 79.468 48.4315 79.2871 43.8001C79.2842 43.6844 79.2799 43.5715 79.2799 43.4558C79.2784 38.6638 83.1647 34.7805 87.9581 34.7805Z" fill="black"/>
<path d="M19.4459 34.7805C24.2393 34.7805 28.124 38.6638 28.124 43.4558C28.124 43.5715 28.1211 43.6844 28.1153 43.8001C27.9359 48.4315 24.1235 52.1339 19.4459 52.1339C14.7697 52.1339 10.9558 48.4315 10.7764 43.8001C10.7706 43.6844 10.7677 43.5715 10.7677 43.4558C10.7663 38.6638 14.6525 34.7805 19.4459 34.7805Z" fill="black"/>
<path d="M0.655411 31.9635C0.655411 31.9635 0.231491 0.636512 5.50234 0.00279519H70.2094C70.2094 0.00279519 77.0197 -0.260531 81.2112 4.32451L91.9511 16.3753C91.9511 16.3753 93.7828 16.5764 95.059 17.7049L106.817 27.3206C106.817 27.3206 108.39 28.7515 108.39 30.7829V34.8442C108.39 34.8442 111.074 41.7847 105.181 43.7509H97.9686C97.9729 43.6207 97.9772 43.4876 97.9772 43.3589C97.9772 37.8594 93.5195 33.4031 88.0215 33.4031C82.5235 33.4031 78.0672 37.8594 78.0672 43.3589C78.0672 43.4891 78.0701 43.6222 78.0759 43.7509H29.3318C29.3376 43.6207 29.3405 43.4876 29.3405 43.3589C29.3405 37.8594 24.8842 33.4031 19.3848 33.4031C13.8882 33.4031 9.43051 37.8594 9.43051 43.3589C9.43051 43.4891 9.43485 43.6222 9.43919 43.7509H6.81173C6.81173 43.7509 0 44.0794 0 40.5404V34.5809C0 34.5838 -7.62939e-06 32.8794 0.655411 31.9635ZM69.3225 7.39181V14.8083C69.3225 18.0015 71.4349 17.8496 71.4349 17.8496H87.4327C90.2815 17.8496 88.3876 15.7777 88.3876 15.7777L78.2684 4.77448H71.2873C69.0288 4.77303 69.3225 7.39181 69.3225 7.39181Z" fill="black"/>
</svg>
